<?xml version="1.0" encoding="utf-8"?>
<!-- Generator: Adobe Illustrator 17.0.0, SVG Export Plug-In . SVG Version: 6.00 Build 0)  -->
<!DOCTYPE svg PUBLIC "-//W3C//DTD SVG 1.1//EN" "http://www.w3.org/Graphics/SVG/1.1/DTD/svg11.dtd">
<svg version="1.1" id="Layer_1" xmlns="http://www.w3.org/2000/svg" xmlns:xlink="http://www.w3.org/1999/xlink" x="0px" y="0px"
	 width="24px" height="27px" viewBox="0 0 24 27" enable-background="new 0 0 24 27" xml:space="preserve">
<rect x="1.928" y="3.553" fill="#797979" width="19.623" height="4.205"/>
<rect x="2.913" y="12.206" fill="#797979" width="18.638" height="0.989"/>
<rect x="2.913" y="17.728" fill="#797979" width="18.638" height="0.989"/>
<rect x="9.059" y="5.901" fill="#797979" width="0.964" height="19.121"/>
<rect x="14.442" y="5.901" fill="#797979" width="0.964" height="19.121"/>
<rect x="15.366" y="13.195" opacity="0.3" fill="#010101" enable-background="new    " width="4.82" height="4.533"/>
<path fill="#797979" d="M22.072,27H1.928C0.864,27,0,26.114,0,25.022V1.978C0,0.886,0.864,0,1.928,0h20.144
	C23.136,0,24,0.886,24,1.978v23.044C24,26.114,23.136,27,22.072,27z M3.856,23.044h16.288V3.956H3.856V23.044z"/>
</svg>
