<?xml version="1.0" encoding="utf-8"?>
<!-- Generator: Adobe Illustrator 17.0.0, SVG Export Plug-In . SVG Version: 6.00 Build 0)  -->
<!DOCTYPE svg PUBLIC "-//W3C//DTD SVG 1.1//EN" "http://www.w3.org/Graphics/SVG/1.1/DTD/svg11.dtd">
<svg version="1.1" id="Layer_1" xmlns="http://www.w3.org/2000/svg" xmlns:xlink="http://www.w3.org/1999/xlink" x="0px" y="0px"
	 width="300px" height="122px" viewBox="0 0 300 122" enable-background="new 0 0 300 122" xml:space="preserve">
<g id="Layer_1_1_">
	<path fill="#231F20" d="M32.515,3.688c0,1.569-1.272,2.841-2.841,2.841H2.841C1.273,6.529,0,5.257,0,3.688l0,0
		c0-1.569,1.272-2.841,2.841-2.841h26.833C31.243,0.846,32.515,2.118,32.515,3.688L32.515,3.688z"/>
	<path fill="#231F20" d="M32.515,13.632c0,1.569-1.272,2.841-2.841,2.841H2.841C1.273,16.473,0,15.201,0,13.632l0,0
		c0-1.568,1.272-2.841,2.841-2.841h26.833C31.243,10.791,32.515,12.064,32.515,13.632L32.515,13.632z"/>
	<path fill="#231F20" d="M32.515,23.576c0,1.568-1.272,2.841-2.841,2.841H2.841C1.273,26.417,0,25.145,0,23.576l0,0
		c0-1.569,1.272-2.841,2.841-2.841h26.833C31.243,20.736,32.515,22.007,32.515,23.576L32.515,23.576z"/>
	
		<circle fill="none" stroke="#231F20" stroke-width="1.75" stroke-linecap="round" stroke-linejoin="round" stroke-miterlimit="10" cx="77.028" cy="3.644" r="2.644"/>
	
		<path fill="none" stroke="#231F20" stroke-width="1.75" stroke-linecap="round" stroke-linejoin="round" stroke-miterlimit="10" d="
		M71.454,13.632v-2.34c0-1.722,1.396-3.117,3.118-3.117h4.913c1.722,0,3.119,1.396,3.119,3.117v2.34"/>
	
		<polyline fill="none" stroke="#231F20" stroke-width="1.8" stroke-linecap="round" stroke-linejoin="round" stroke-miterlimit="10" points="
		87.838,1.109 90.359,1.109 93.169,10.292 103.296,10.292 105.846,2.31 	"/>
	<circle fill="#231F20" cx="102.063" cy="14.041" r="1.567"/>
	<circle fill="#231F20" cx="94.127" cy="14.041" r="1.567"/>
	<path fill="#231F20" d="M62.132,3.346c1.016,1.016,1.016,2.664,0,3.679L42.816,26.34c-1.016,1.016-2.664,1.016-3.68,0l0,0
		c-1.016-1.016-1.016-2.663,0-3.679L58.452,3.346C59.468,2.33,61.115,2.33,62.132,3.346L62.132,3.346z"/>
	<path fill="#231F20" d="M39.137,3.346c-1.016,1.016-1.016,2.664,0,3.679L58.452,26.34c1.016,1.016,2.663,1.016,3.68,0l0,0
		c1.016-1.016,1.016-2.663,0-3.679L42.816,3.346C41.8,2.33,40.153,2.33,39.137,3.346L39.137,3.346z"/>
	
		<polyline fill="none" stroke="#231F20" stroke-width="2" stroke-linecap="round" stroke-linejoin="round" stroke-miterlimit="10" points="
		111.341,1.847 115.897,6.404 111.341,10.39 	"/>
	
		<polyline fill="none" stroke="#231F20" stroke-width="1.5" stroke-linecap="round" stroke-linejoin="round" stroke-miterlimit="10" points="
		189.816,5.005 193.82,1 197.326,5.005 	"/>
	
		<polyline fill="none" stroke="#231F20" stroke-width="1.5" stroke-linecap="round" stroke-linejoin="round" stroke-miterlimit="10" points="
		197.326,9.464 193.32,13.469 189.816,9.464 	"/>
	
		<polyline fill="none" stroke="#FA3C7A" stroke-width="1.5" stroke-linecap="round" stroke-linejoin="round" stroke-miterlimit="10" points="
		3.72,57.984 7.724,53.98 11.23,57.984 	"/>
	
		<polyline fill="none" stroke="#FA3C7A" stroke-width="1.5" stroke-linecap="round" stroke-linejoin="round" stroke-miterlimit="10" points="
		11.23,62.443 7.224,66.449 3.72,62.443 	"/>
	<path fill="none" stroke="#231F20" stroke-width="1.8" stroke-linecap="round" stroke-linejoin="round" stroke-miterlimit="10" d="
		M212.323,2c3.704,0,6.708,2.373,6.708,5.3c0,1.454-0.742,2.771-1.943,3.729l0.907,4.739l-4.183-3.307
		c-0.479,0.086-0.979,0.136-1.485,0.136c-3.708,0-6.711-2.374-6.711-5.298C205.611,4.373,208.616,2,212.323,2z"/>
	<rect id="facebook-guide" x="180" display="none" fill="#00FFFF" width="40" height="40"/>
	<path id="facebook" fill="#FFFFFF" d="M243.999,35.847v-15h-4v-5h4c0,0,0-2.637,0-5.039c0-3.628,2.539-6.961,7.942-6.961
		c2.188,0,4.058,0.21,4.058,0.21v5.048c0,0-2.028-0.015-3.829-0.015c-1.947,0-2.261,0.898-2.261,2.389c0,1.178,0-2.09,0,4.369h6.09
		l-1,5h-5v15L243.999,35.847L243.999,35.847z"/>
	<g>
		<circle fill="#DC243A" cx="277" cy="13" r="12.5"/>
		
			<line fill="none" stroke="#FFFFFF" stroke-width="2" stroke-linecap="round" stroke-linejoin="round" stroke-miterlimit="10" x1="281.762" y1="8.238" x2="272.238" y2="17.762"/>
		
			<line fill="none" stroke="#FFFFFF" stroke-width="2" stroke-linecap="round" stroke-linejoin="round" stroke-miterlimit="10" x1="272.238" y1="8.238" x2="281.762" y2="17.762"/>
	</g>
	<g>
		<circle fill="#C6243F" cx="277" cy="41.602" r="12.5"/>
		
			<line fill="none" stroke="#FFFFFF" stroke-width="2" stroke-linecap="round" stroke-linejoin="round" stroke-miterlimit="10" x1="281.762" y1="36.84" x2="272.238" y2="46.364"/>
		
			<line fill="none" stroke="#FFFFFF" stroke-width="2" stroke-linecap="round" stroke-linejoin="round" stroke-miterlimit="10" x1="272.238" y1="36.84" x2="281.762" y2="46.364"/>
	</g>
	<g>
		<path fill="#231F20" d="M8,45c-4.135,0-7.5-3.364-7.5-7.499C0.5,33.365,3.865,30,8,30s7.5,3.365,7.5,7.501
			C15.5,41.636,12.135,45,8,45z M8,31.567c-3.272,0-5.933,2.661-5.933,5.933c0,3.271,2.661,5.932,5.933,5.932
			c3.271,0,5.932-2.66,5.932-5.932C13.933,34.229,11.271,31.567,8,31.567z"/>
		<g>
			<path d="M9.583,40.473c-0.862,0.968-1.739,1.203-2.065,1.203c-0.327,0-0.915-0.131-0.915-0.929c0-0.379,0.17-1.085,0.235-1.386
				l0.34-1.478c0.04-0.156,0.091-0.404,0.091-0.496c0-0.144-0.091-0.196-0.144-0.196c-0.091,0-0.157,0.065-0.68,0.614l-0.287-0.261
				c1.202-1.307,1.687-1.517,2.118-1.517c0.51,0,0.746,0.379,0.746,0.85c0,0.366-0.065,0.641-0.157,1.046l-0.51,2.222
				c-0.026,0.145-0.091,0.38-0.091,0.498c0,0.092,0.065,0.188,0.17,0.188c0.117,0,0.444-0.157,0.889-0.614L9.583,40.473z
				 M8.942,33.177c0.484,0,0.85,0.432,0.85,0.994c0,0.536-0.379,1.229-1.046,1.229c-0.522,0-0.863-0.418-0.863-0.967
				C7.883,33.739,8.341,33.177,8.942,33.177z"/>
		</g>
	</g>
	
		<polyline fill="none" stroke="#FFFFFF" stroke-width="1.5" stroke-linecap="round" stroke-linejoin="round" stroke-miterlimit="10" points="
		189.816,23.778 193.82,19.773 197.326,23.778 	"/>
	
		<polyline fill="none" stroke="#FFFFFF" stroke-width="1.5" stroke-linecap="round" stroke-linejoin="round" stroke-miterlimit="10" points="
		197.326,28.237 193.32,32.242 189.816,28.237 	"/>
	<g>
		<path fill="#EFEFEF" d="M20.45,52.151c-1.516,0-2.75-1.235-2.75-2.75v-14c0-1.516,1.234-2.75,2.75-2.75h14
			c1.516,0,2.75,1.234,2.75,2.75v14c0,1.515-1.234,2.75-2.75,2.75H20.45z"/>
		<path fill="#CCCCCC" d="M34.45,32.901c1.379,0,2.5,1.121,2.5,2.5v14c0,1.379-1.121,2.5-2.5,2.5h-14c-1.379,0-2.5-1.121-2.5-2.5
			v-14c0-1.379,1.121-2.5,2.5-2.5H34.45 M34.45,32.401h-14c-1.657,0-3,1.343-3,3v14c0,1.657,1.343,3,3,3h14c1.656,0,3-1.343,3-3v-14
			C37.45,33.744,36.106,32.401,34.45,32.401L34.45,32.401z"/>
	</g>
	<g>
		<path fill="#EFEFEF" d="M46.554,52.25c-1.517,0-2.75-1.235-2.75-2.75v-14c0-1.516,1.234-2.75,2.75-2.75h14
			c1.517,0,2.75,1.234,2.75,2.75v14c0,1.515-1.234,2.75-2.75,2.75H46.554z"/>
		<path fill="#CCCCCC" d="M60.553,33c1.379,0,2.5,1.121,2.5,2.5v14c0,1.379-1.121,2.5-2.5,2.5h-14c-1.379,0-2.5-1.121-2.5-2.5v-14
			c0-1.379,1.121-2.5,2.5-2.5H60.553 M60.553,32.5h-14c-1.657,0-3,1.343-3,3v14c0,1.657,1.343,3,3,3h14c1.656,0,3-1.343,3-3v-14
			C63.553,33.843,62.209,32.5,60.553,32.5L60.553,32.5z"/>
	</g>
	<path fill="#231F20" d="M52.883,48.654c-0.016,0-0.031,0-0.048,0c-0.481-0.014-0.933-0.235-1.234-0.603l-5.252-6.429
		c-0.567-0.693-0.452-1.705,0.256-2.259c0.706-0.554,1.74-0.443,2.307,0.251l4.045,4.951L63.48,33.113
		c0.606-0.659,1.643-0.714,2.318-0.12c0.673,0.594,0.728,1.61,0.122,2.27L54.102,48.122C53.791,48.461,53.347,48.654,52.883,48.654z
		"/>
	<g>
		<path fill="#EFEFEF" d="M85.633,52.187c-5.341,0-9.687-4.346-9.687-9.688s4.345-9.688,9.687-9.688s9.687,4.346,9.687,9.688
			S90.976,52.187,85.633,52.187z"/>
		<path fill="#CCCCCC" d="M85.633,33.125c5.169,0,9.375,4.206,9.375,9.375s-4.205,9.375-9.375,9.375
			c-5.169,0-9.375-4.206-9.375-9.375S80.464,33.125,85.633,33.125 M85.633,32.5c-5.522,0-10,4.477-10,10s4.477,10,10,10
			s10-4.477,10-10S91.157,32.5,85.633,32.5L85.633,32.5z"/>
	</g>
	<g>
		<path fill="#EFEFEF" d="M111.755,52.187c-5.342,0-9.688-4.346-9.688-9.688s4.346-9.688,9.688-9.688s9.688,4.346,9.688,9.688
			S117.097,52.187,111.755,52.187z"/>
		<path fill="#CCCCCC" d="M111.755,33.125c5.169,0,9.375,4.206,9.375,9.375s-4.206,9.375-9.375,9.375s-9.375-4.206-9.375-9.375
			S106.585,33.125,111.755,33.125 M111.755,32.5c-5.524,0-10,4.477-10,10s4.476,10,10,10c5.522,0,10-4.477,10-10
			S117.277,32.5,111.755,32.5L111.755,32.5z"/>
	</g>
	<g>
		<circle fill="#242424" cx="111.755" cy="42.5" r="5.625"/>
	</g>
	
		<polyline fill="none" stroke="#FA3C7A" stroke-width="2" stroke-linecap="round" stroke-linejoin="round" stroke-miterlimit="10" points="
		129.125,1.938 133.716,6.529 129.125,10.546 	"/>
	
		<polyline fill="none" stroke="#FA3C7A" stroke-width="2" stroke-linecap="round" stroke-linejoin="round" stroke-miterlimit="10" points="
		141.749,11.12 137.158,6.529 141.749,2.512 	"/>
	<path fill="none" stroke="#787878" stroke-width="2" stroke-linecap="round" stroke-linejoin="round" stroke-miterlimit="10" d="
		M201.314,37.426c4.275,0,7.741,2.648,7.741,5.913c0,1.623-0.857,3.092-2.243,4.161l0.457,4.107l-4.234-2.507
		c-0.555,0.096-1.128,0.152-1.721,0.152c-4.276,0-7.743-2.649-7.743-5.913C193.571,40.074,197.037,37.426,201.314,37.426z"/>
	<circle fill="#787878" cx="204.571" cy="43.334" r="1.183"/>
	<circle fill="#787878" cx="201.145" cy="43.334" r="1.183"/>
	<circle fill="#787878" cx="197.721" cy="43.334" r="1.183"/>
	<g>
		
			<path fill="none" stroke="#787878" stroke-width="1.8" stroke-linecap="round" stroke-linejoin="round" stroke-miterlimit="10" d="
			M210.771,56.379l-8.444,6.064l-8.444-6.064c-0.426,0.36-0.702,0.89-0.702,1.491v9.146c0,1.082,0.878,1.96,1.96,1.96h14.372
			c1.082,0,1.96-0.878,1.96-1.96V57.87C211.474,57.269,211.199,56.739,210.771,56.379z"/>
		
			<path fill="none" stroke="#787878" stroke-width="1.8" stroke-linecap="round" stroke-linejoin="round" stroke-miterlimit="10" d="
			M210.771,56.379c-0.341-0.288-0.776-0.468-1.258-0.468h-14.372c-0.481,0-0.916,0.18-1.258,0.468l8.444,6.064L210.771,56.379z"/>
	</g>
	<circle fill="#45CA58" cx="13" cy="90.425" r="12.5"/>
	
		<polyline fill="none" stroke="#FFFFFF" stroke-width="2" stroke-linecap="round" stroke-linejoin="round" stroke-miterlimit="10" points="
		19.25,86.05 11.125,94.8 7.375,90.113 	"/>
	<path fill="#FFFFFF" d="M58.889,81.367c0.546,0.547,0.546,1.433,0,1.979L48.503,93.73c-0.546,0.546-1.432,0.546-1.979,0l0,0
		c-0.546-0.546-0.546-1.432,0-1.978L56.91,81.367C57.457,80.821,58.342,80.821,58.889,81.367L58.889,81.367z"/>
	<path fill="#FFFFFF" d="M46.525,81.367c-0.546,0.547-0.546,1.433,0,1.979L56.91,93.73c0.547,0.546,1.433,0.546,1.979,0l0,0
		c0.546-0.546,0.546-1.432,0-1.978L48.503,81.367C47.957,80.821,47.071,80.821,46.525,81.367L46.525,81.367z"/>
	
		<polyline fill="none" stroke="#231F20" stroke-width="2" stroke-linecap="round" stroke-linejoin="round" stroke-miterlimit="10" points="
		124.644,10.801 120.087,6.244 124.644,2.257 	"/>
	<g>
		<path fill="#EFEEEE" d="M63.022,75.382c0,1.74-1.411,3.15-3.15,3.15h-14.7c-1.74,0-3.15-1.41-3.15-3.15v-14.7
			c0-1.74,1.41-3.15,3.15-3.15h14.7c1.739,0,3.15,1.41,3.15,3.15V75.382z"/>
		<path fill="#CCCCCC" d="M59.872,58.057c1.447,0,2.625,1.178,2.625,2.625v14.7c0,1.447-1.178,2.625-2.625,2.625h-14.7
			c-1.447,0-2.625-1.178-2.625-2.625v-14.7c0-1.447,1.178-2.625,2.625-2.625L59.872,58.057 M59.872,57.532h-14.7
			c-1.74,0-3.15,1.41-3.15,3.15v14.7c0,1.74,1.41,3.15,3.15,3.15h14.7c1.739,0,3.15-1.41,3.15-3.15v-14.7
			C63.022,58.942,61.611,57.532,59.872,57.532L59.872,57.532z"/>
	</g>
	
		<line fill="none" stroke="#242424" stroke-width="2" stroke-linecap="round" stroke-miterlimit="10" x1="48.847" y1="64.357" x2="56.197" y2="71.707"/>
	
		<line fill="none" stroke="#242424" stroke-width="2" stroke-linecap="round" stroke-miterlimit="10" x1="56.197" y1="64.357" x2="48.847" y2="71.707"/>
	<g>
		<path fill="#E5E5E4" d="M89.611,75.382c0,1.74-1.411,3.15-3.15,3.15h-14.7c-1.74,0-3.15-1.41-3.15-3.15v-14.7
			c0-1.74,1.41-3.15,3.15-3.15h14.7c1.739,0,3.15,1.41,3.15,3.15V75.382z"/>
		<path fill="#CCCCCC" d="M86.461,58.057c1.447,0,2.625,1.178,2.625,2.625v14.7c0,1.447-1.178,2.625-2.625,2.625h-14.7
			c-1.447,0-2.625-1.178-2.625-2.625v-14.7c0-1.447,1.178-2.625,2.625-2.625L86.461,58.057 M86.461,57.532h-14.7
			c-1.74,0-3.15,1.41-3.15,3.15v14.7c0,1.74,1.41,3.15,3.15,3.15h14.7c1.739,0,3.15-1.41,3.15-3.15v-14.7
			C89.611,58.942,88.2,57.532,86.461,57.532L86.461,57.532z"/>
	</g>
	
		<line fill="none" stroke="#242424" stroke-width="2" stroke-linecap="round" stroke-miterlimit="10" x1="75.436" y1="64.357" x2="82.786" y2="71.707"/>
	
		<line fill="none" stroke="#242424" stroke-width="2" stroke-linecap="round" stroke-miterlimit="10" x1="82.786" y1="64.357" x2="75.436" y2="71.707"/>
	<g>
		<path fill="#FF475D" d="M101.9,78.269c-1.592,0-2.887-1.296-2.887-2.888v-14.7c0-1.592,1.295-2.888,2.887-2.888h14.7
			c1.592,0,2.887,1.296,2.887,2.888v14.7c0,1.592-1.296,2.888-2.887,2.888H101.9z"/>
		<path fill="#E73449" d="M116.6,58.057c1.447,0,2.625,1.178,2.625,2.625v14.7c0,1.447-1.178,2.625-2.625,2.625h-14.7
			c-1.447,0-2.625-1.178-2.625-2.625v-14.7c0-1.447,1.178-2.625,2.625-2.625L116.6,58.057 M116.6,57.532h-14.7
			c-1.74,0-3.15,1.41-3.15,3.15v14.7c0,1.74,1.41,3.15,3.15,3.15h14.7c1.739,0,3.15-1.41,3.15-3.15v-14.7
			C119.75,58.942,118.339,57.532,116.6,57.532L116.6,57.532z"/>
	</g>
	
		<line fill="none" stroke="#FFFFFF" stroke-width="2" stroke-linecap="round" stroke-miterlimit="10" x1="105.575" y1="64.357" x2="112.925" y2="71.707"/>
	
		<line fill="none" stroke="#FFFFFF" stroke-width="2" stroke-linecap="round" stroke-miterlimit="10" x1="112.925" y1="64.357" x2="105.575" y2="71.707"/>
	<g>
		<path fill="#E73449" d="M146.339,75.382c0,1.74-1.411,3.15-3.15,3.15h-14.7c-1.74,0-3.15-1.41-3.15-3.15v-14.7
			c0-1.74,1.41-3.15,3.15-3.15h14.7c1.739,0,3.15,1.41,3.15,3.15V75.382z"/>
	</g>
	
		<line fill="none" stroke="#FFFFFF" stroke-width="2" stroke-linecap="round" stroke-miterlimit="10" x1="132.164" y1="64.357" x2="139.514" y2="71.707"/>
	
		<line fill="none" stroke="#FFFFFF" stroke-width="2" stroke-linecap="round" stroke-miterlimit="10" x1="139.514" y1="64.357" x2="132.164" y2="71.707"/>
	<rect x="222.96" y="42.184" fill="#787878" width="20.355" height="4.252"/>
	<rect x="223.982" y="50.934" fill="#787878" width="19.333" height="1"/>
	<rect x="223.982" y="56.517" fill="#787878" width="19.333" height="1"/>
	<rect x="230.357" y="44.559" fill="#787878" width="1" height="19.333"/>
	<rect x="235.941" y="44.559" fill="#787878" width="1" height="19.333"/>
	<rect x="236.899" y="51.934" opacity="0.3" enable-background="new    " width="5" height="4.583"/>
	<path fill="#787878" d="M243.855,65.892H222.96c-1.104,0-2-0.896-2-2v-23.3c0-1.104,0.896-2,2-2h20.895c1.104,0,2,0.896,2,2v23.3
		C245.855,64.996,244.959,65.892,243.855,65.892z M224.96,61.892h16.895v-19.3H224.96V61.892z"/>
	<circle fill="#CCCCCC" cx="259.5" cy="91.457" r="12.5"/>
	<circle fill="#FA3C7A" cx="286" cy="91.457" r="12.5"/>
	<path fill="#FFFFFF" d="M259.5,95.957c-0.256,0-0.512-0.098-0.707-0.293l-5.5-5.5c-0.391-0.391-0.391-1.023,0-1.414
		s1.023-0.391,1.414,0l4.793,4.793l4.793-4.793c0.391-0.391,1.023-0.391,1.414,0s0.391,1.023,0,1.414l-5.5,5.5
		C260.012,95.859,259.756,95.957,259.5,95.957z"/>
	<path fill="#FFFFFF" d="M286,95.957c-0.256,0-0.512-0.098-0.707-0.293l-5.5-5.5c-0.391-0.391-0.391-1.023,0-1.414
		s1.023-0.391,1.414,0L286,93.543l4.793-4.793c0.391-0.391,1.023-0.391,1.414,0s0.391,1.023,0,1.414l-5.5,5.5
		C286.512,95.859,286.256,95.957,286,95.957z"/>
	<polygon fill="#FA3C7A" points="43.619,97.217 52.619,105.217 43.619,113.217 183.619,113.217 174.619,105.217 183.619,97.217 	"/>
	<g display="none">
		<path display="inline" fill="#FFFFFF" d="M59.259,103.546h-1.712v-1.65h-0.968v1.65h-1.265v0.819h1.265v3.188
			c0,1.203,0.223,1.948,1.6,1.948c0.36,0,0.794-0.062,1.129-0.211l-0.037-0.881c-0.261,0.136-0.571,0.199-0.856,0.199
			c-0.856,0-0.868-0.595-0.868-1.34v-2.903h1.712C59.259,104.365,59.259,103.546,59.259,103.546z"/>
		<path display="inline" fill="#FFFFFF" d="M64.156,107.726c-0.459,0.583-1.017,0.881-1.848,0.881c-1.054,0-1.824-0.856-1.898-1.861
			h4.689v-0.31c0-1.923-1.117-3.039-2.754-3.039c-1.712,0-2.977,1.253-2.977,3.052c0,1.687,1.116,3.052,2.94,3.052
			c1.079,0,1.898-0.322,2.58-1.203L64.156,107.726z M60.409,105.928c0.124-0.98,0.831-1.637,1.898-1.637
			c1.067,0,1.712,0.657,1.749,1.637H60.409z"/>
		<path display="inline" fill="#FFFFFF" d="M65.941,109.351h0.968v-9.378h-0.968V109.351z"/>
		<path display="inline" fill="#FFFFFF" d="M72.54,107.726c-0.459,0.583-1.017,0.881-1.848,0.881c-1.054,0-1.824-0.856-1.898-1.861
			h4.689v-0.31c0-1.923-1.117-3.039-2.754-3.039c-1.712,0-2.977,1.253-2.977,3.052c0,1.687,1.116,3.052,2.94,3.052
			c1.079,0,1.898-0.322,2.58-1.203L72.54,107.726z M68.794,105.928c0.124-0.98,0.831-1.637,1.898-1.637s1.712,0.657,1.749,1.637
			H68.794z"/>
		<path display="inline" fill="#FFFFFF" d="M74.859,109.351h0.968v-4.987h1.414v-0.819h-1.414v-1.092
			c0-1.005,0.037-1.737,1.042-1.737c0.223,0,0.447,0.05,0.658,0.124l0.136-0.869c-0.186-0.099-0.496-0.149-0.744-0.149
			c-1.563,0-2.059,1.005-2.059,2.419v1.302h-1.265v0.819h1.265L74.859,109.351L74.859,109.351z"/>
		<path display="inline" fill="#FFFFFF" d="M77.985,109.351h0.968v-9.378h-0.968V109.351z"/>
		<path display="inline" fill="#FFFFFF" d="M79.671,106.449c0,1.811,1.315,3.052,3.101,3.052c1.786,0,3.101-1.24,3.101-3.052
			c0-1.811-1.315-3.052-3.101-3.052C80.986,103.397,79.671,104.637,79.671,106.449z M80.713,106.449
			c0-1.216,0.806-2.158,2.059-2.158s2.059,0.943,2.059,2.158c0,1.216-0.806,2.158-2.059,2.158S80.713,107.664,80.713,106.449z"/>
		<path display="inline" fill="#FFFFFF" d="M86.507,109.351h0.968v-2.828c0-1.327,0.521-2.158,1.699-2.158
			c0.174,0,0.36,0.025,0.521,0.074l0.062-0.98c-0.136-0.049-0.273-0.062-0.397-0.062c-0.955,0-1.675,0.533-1.935,1.104H87.4
			c0-0.323-0.025-0.645-0.025-0.955h-0.918c0,0.385,0.05,0.843,0.05,1.377V109.351z"/>
		<path display="inline" fill="#FFFFFF" d="M90.784,104.923c0.459-0.422,1.104-0.632,1.724-0.632c0.906,0,1.439,0.434,1.439,1.278
			v0.174h-0.372c-1.427,0-3.66,0.112-3.66,2.034c0,1.129,0.98,1.724,2.159,1.724c0.881,0,1.526-0.422,1.91-1.017h0.025
			c0,0.248,0,0.608,0.062,0.868h0.93c-0.05-0.297-0.087-0.67-0.087-1.005v-2.493c0-1.637-0.719-2.456-2.431-2.456
			c-0.844,0-1.712,0.285-2.307,0.893L90.784,104.923z M93.947,106.56v0.372c-0.025,0.943-0.595,1.749-1.712,1.749
			c-0.732,0-1.278-0.273-1.278-1.005c0-0.782,0.794-1.116,2.022-1.116C92.979,106.56,93.947,106.56,93.947,106.56z"/>
	</g>
	<g display="none">
		<path display="inline" fill="#FFFFFF" d="M98.168,103.242h1.932v1.004h0.026c0.412-0.76,0.953-1.159,1.803-1.159
			c0.219,0,0.464,0.013,0.644,0.064v1.764c-0.271-0.077-0.541-0.128-0.824-0.128c-1.468,0-1.648,0.85-1.648,2.099v2.614h-1.932
			L98.168,103.242L98.168,103.242z"/>
		<path display="inline" fill="#FFFFFF" d="M108.714,108.419c-0.618,0.786-1.635,1.236-2.64,1.236c-1.932,0-3.477-1.288-3.477-3.284
			s1.545-3.284,3.477-3.284c1.803,0,2.937,1.288,2.937,3.284v0.605h-4.481c0.154,0.734,0.708,1.211,1.455,1.211
			c0.631,0,1.056-0.322,1.378-0.76L108.714,108.419z M107.079,105.663c0.013-0.644-0.489-1.185-1.185-1.185
			c-0.85,0-1.313,0.58-1.365,1.185H107.079z"/>
		<path display="inline" fill="#FFFFFF" d="M114.031,105.264c-0.193-0.271-0.554-0.477-0.953-0.477
			c-0.966,0-1.545,0.644-1.545,1.584s0.579,1.584,1.545,1.584c0.425,0,0.734-0.219,0.953-0.477l1.275,1.339
			c-0.605,0.618-1.494,0.837-2.228,0.837c-1.932,0-3.477-1.288-3.477-3.284s1.545-3.284,3.477-3.284
			c0.734,0,1.623,0.219,2.228,0.837L114.031,105.264z"/>
		<path display="inline" fill="#FFFFFF" d="M118.859,103.088c1.932,0,3.478,1.288,3.478,3.284s-1.545,3.284-3.478,3.284
			c-1.932,0-3.477-1.288-3.477-3.284S116.927,103.088,118.859,103.088z M118.859,107.956c0.966,0,1.545-0.644,1.545-1.584
			s-0.579-1.584-1.545-1.584c-0.966,0-1.545,0.644-1.545,1.584S117.893,107.956,118.859,107.956z"/>
		<path display="inline" fill="#FFFFFF" d="M123.081,103.242h1.854v0.85h0.026c0.257-0.489,0.888-1.004,1.829-1.004
			c0.875,0,1.597,0.361,1.932,1.121c0.451-0.798,1.056-1.121,1.983-1.121c1.7,0,2.215,1.198,2.215,2.717v3.696h-1.932v-3.645
			c0-0.58-0.219-1.069-0.85-1.069c-0.888,0-1.172,0.631-1.172,1.404v3.31h-1.932v-3.31c0-0.464,0.026-1.404-0.863-1.404
			c-1.004,0-1.159,0.786-1.159,1.597v3.117h-1.932v-6.259H123.081z"/>
		<path display="inline" fill="#FFFFFF" d="M133.896,103.242h1.854v0.85h0.026c0.257-0.489,0.889-1.004,1.829-1.004
			c0.875,0,1.597,0.361,1.932,1.121c0.451-0.798,1.056-1.121,1.983-1.121c1.7,0,2.215,1.198,2.215,2.717v3.696h-1.932v-3.645
			c0-0.58-0.219-1.069-0.85-1.069c-0.889,0-1.172,0.631-1.172,1.404v3.31h-1.932v-3.31c0-0.464,0.026-1.404-0.863-1.404
			c-1.004,0-1.159,0.786-1.159,1.597v3.117h-1.932v-6.259H133.896z"/>
		<path display="inline" fill="#FFFFFF" d="M150.635,108.419c-0.618,0.786-1.635,1.236-2.64,1.236c-1.932,0-3.478-1.288-3.478-3.284
			s1.545-3.284,3.478-3.284c1.803,0,2.936,1.288,2.936,3.284v0.605h-4.482c0.155,0.734,0.708,1.211,1.456,1.211
			c0.631,0,1.056-0.322,1.378-0.76L150.635,108.419z M148.999,105.663c0.013-0.644-0.49-1.185-1.185-1.185
			c-0.85,0-1.313,0.58-1.365,1.185H148.999z"/>
		<path display="inline" fill="#FFFFFF" d="M151.715,103.242h1.854v0.85h0.026c0.257-0.489,0.888-1.004,1.829-1.004
			c1.958,0,2.318,1.288,2.318,2.962v3.451h-1.932v-3.065c0-0.721-0.013-1.648-1.004-1.648c-1.004,0-1.159,0.786-1.159,1.597v3.117
			h-1.932L151.715,103.242L151.715,103.242z"/>
		<path display="inline" fill="#FFFFFF" d="M165.286,109.501h-1.777v-0.824h-0.025c-0.296,0.451-1.043,0.979-1.919,0.979
			c-1.854,0-3.078-1.339-3.078-3.232c0-1.738,1.082-3.335,2.859-3.335c0.799,0,1.545,0.219,1.983,0.824h0.026v-4.147h1.932v9.735
			C165.287,109.501,165.286,109.501,165.286,109.501z M161.964,104.788c-0.966,0-1.545,0.644-1.545,1.584s0.58,1.584,1.545,1.584
			s1.545-0.644,1.545-1.584S162.93,104.788,161.964,104.788z"/>
		<path display="inline" fill="#FFFFFF" d="M169.985,105.084c-0.283-0.348-0.657-0.528-1.121-0.528
			c-0.322,0-0.708,0.142-0.708,0.515c0,0.927,3.258,0.142,3.258,2.524c0,1.597-1.545,2.061-2.885,2.061
			c-0.876,0-1.842-0.219-2.46-0.85l1.172-1.301c0.361,0.438,0.786,0.683,1.365,0.683c0.438,0,0.875-0.116,0.875-0.451
			c0-1.005-3.258-0.155-3.258-2.537c0-1.468,1.314-2.112,2.627-2.112c0.824,0,1.739,0.206,2.318,0.824L169.985,105.084z"/>
	</g>
	<g display="none">
		<path display="inline" fill="#FFFFFF" d="M54.851,104.965v-1.224h1.188v-1.668h1.44v1.668h1.584v1.224h-1.584v2.521
			c0,0.288,0.054,0.516,0.162,0.684s0.322,0.252,0.642,0.252c0.128,0,0.268-0.014,0.42-0.042c0.152-0.028,0.272-0.074,0.36-0.138
			v1.212c-0.152,0.072-0.338,0.122-0.558,0.149c-0.22,0.028-0.414,0.042-0.582,0.042c-0.384,0-0.698-0.042-0.942-0.126
			s-0.436-0.212-0.576-0.384c-0.14-0.172-0.236-0.386-0.288-0.642s-0.078-0.552-0.078-0.889v-2.64h-1.188
			C54.851,104.964,54.851,104.965,54.851,104.965z"/>
		<path display="inline" fill="#FFFFFF" d="M60.533,107.125c0.048,0.432,0.216,0.768,0.504,1.008c0.288,0.24,0.636,0.36,1.044,0.36
			c0.36,0,0.662-0.074,0.906-0.223c0.244-0.147,0.458-0.333,0.642-0.558l1.032,0.78c-0.336,0.416-0.712,0.712-1.128,0.888
			s-0.852,0.264-1.308,0.264c-0.432,0-0.84-0.071-1.224-0.216c-0.384-0.144-0.716-0.348-0.996-0.611
			c-0.28-0.265-0.502-0.582-0.666-0.954s-0.246-0.786-0.246-1.242s0.082-0.87,0.246-1.242s0.386-0.689,0.666-0.954
			c0.28-0.264,0.612-0.468,0.996-0.612s0.792-0.216,1.224-0.216c0.4,0,0.766,0.07,1.098,0.21c0.332,0.141,0.616,0.343,0.852,0.606
			c0.236,0.263,0.42,0.59,0.552,0.978c0.132,0.389,0.198,0.834,0.198,1.338v0.396H60.533z M63.485,106.045
			c-0.008-0.424-0.14-0.758-0.396-1.002s-0.612-0.366-1.068-0.366c-0.432,0-0.774,0.124-1.026,0.372s-0.406,0.58-0.462,0.996
			C60.533,106.045,63.485,106.045,63.485,106.045z"/>
		<path display="inline" fill="#FFFFFF" d="M65.6,100.429h1.44v9.072H65.6V100.429z"/>
		<path display="inline" fill="#FFFFFF" d="M69.154,107.125c0.048,0.432,0.216,0.768,0.504,1.008c0.288,0.24,0.636,0.36,1.044,0.36
			c0.36,0,0.662-0.074,0.906-0.223c0.244-0.147,0.458-0.333,0.642-0.558l1.032,0.78c-0.336,0.416-0.712,0.712-1.128,0.888
			s-0.852,0.264-1.308,0.264c-0.432,0-0.84-0.071-1.224-0.216c-0.384-0.144-0.716-0.348-0.996-0.611
			c-0.28-0.265-0.502-0.582-0.666-0.954s-0.246-0.786-0.246-1.242s0.082-0.87,0.246-1.242s0.386-0.689,0.666-0.954
			c0.28-0.264,0.612-0.468,0.996-0.612s0.792-0.216,1.224-0.216c0.4,0,0.766,0.07,1.098,0.21c0.332,0.141,0.616,0.343,0.852,0.606
			s0.42,0.59,0.552,0.978c0.132,0.389,0.198,0.834,0.198,1.338v0.396H69.154z M72.106,106.045c-0.008-0.424-0.14-0.758-0.396-1.002
			s-0.612-0.366-1.068-0.366c-0.432,0-0.774,0.124-1.026,0.372s-0.406,0.58-0.462,0.996
			C69.154,106.045,72.106,106.045,72.106,106.045z"/>
		<path display="inline" fill="#FFFFFF" d="M74.712,104.965h-1.188v-1.224h1.188v-0.816c0-0.399,0.028-0.762,0.084-1.086
			s0.162-0.602,0.318-0.834c0.156-0.231,0.374-0.41,0.654-0.534c0.28-0.124,0.644-0.186,1.092-0.186
			c0.328,0,0.632,0.028,0.912,0.084l-0.096,1.224c-0.104-0.023-0.204-0.044-0.3-0.06c-0.096-0.017-0.196-0.024-0.3-0.024
			c-0.2,0-0.36,0.032-0.48,0.096s-0.214,0.15-0.282,0.259c-0.068,0.107-0.112,0.233-0.132,0.378c-0.02,0.144-0.03,0.296-0.03,0.456
			v1.044h1.332v1.224h-1.332v4.536h-1.44C74.712,109.502,74.712,104.965,74.712,104.965z"/>
		<path display="inline" fill="#FFFFFF" d="M77.888,100.429h1.44v9.072h-1.44V100.429z"/>
		<path display="inline" fill="#FFFFFF" d="M80.002,106.621c0-0.456,0.082-0.87,0.246-1.242s0.386-0.689,0.666-0.954
			c0.28-0.264,0.612-0.468,0.996-0.612s0.792-0.216,1.224-0.216s0.84,0.072,1.224,0.216c0.384,0.145,0.716,0.349,0.996,0.612
			c0.28,0.265,0.502,0.582,0.666,0.954s0.246,0.786,0.246,1.242s-0.082,0.87-0.246,1.242s-0.386,0.689-0.666,0.954
			c-0.28,0.264-0.612,0.468-0.996,0.611c-0.384,0.145-0.792,0.216-1.224,0.216s-0.84-0.071-1.224-0.216
			c-0.384-0.144-0.716-0.348-0.996-0.611c-0.28-0.265-0.502-0.582-0.666-0.954S80.002,107.077,80.002,106.621z M81.442,106.621
			c0,0.224,0.038,0.44,0.114,0.647c0.076,0.209,0.188,0.393,0.336,0.553s0.326,0.288,0.534,0.384s0.444,0.144,0.708,0.144
			s0.5-0.048,0.708-0.144s0.386-0.224,0.534-0.384s0.26-0.344,0.336-0.553c0.076-0.207,0.114-0.424,0.114-0.647
			s-0.038-0.44-0.114-0.648s-0.188-0.392-0.336-0.552s-0.326-0.288-0.534-0.384s-0.444-0.145-0.708-0.145s-0.5,0.049-0.708,0.145
			c-0.208,0.096-0.386,0.224-0.534,0.384s-0.26,0.344-0.336,0.552S81.442,106.397,81.442,106.621z"/>
		<path display="inline" fill="#FFFFFF" d="M86.896,103.741h1.44v0.912h0.024c0.16-0.336,0.388-0.597,0.684-0.78
			s0.636-0.276,1.02-0.276c0.088,0,0.174,0.009,0.258,0.024c0.084,0.016,0.17,0.036,0.258,0.06v1.393
			c-0.121-0.032-0.239-0.059-0.354-0.078c-0.116-0.02-0.23-0.03-0.342-0.03c-0.336,0-0.606,0.062-0.81,0.187
			s-0.36,0.266-0.468,0.426s-0.18,0.32-0.216,0.479c-0.036,0.16-0.054,0.28-0.054,0.36v3.084h-1.44V103.741z"/>
		<path display="inline" fill="#FFFFFF" d="M94.463,108.709h-0.036c-0.208,0.328-0.472,0.566-0.792,0.714
			c-0.32,0.148-0.672,0.222-1.056,0.222c-0.265,0-0.522-0.035-0.774-0.107s-0.476-0.18-0.672-0.324s-0.354-0.324-0.475-0.54
			c-0.119-0.216-0.18-0.468-0.18-0.756c0-0.312,0.057-0.578,0.168-0.798c0.112-0.22,0.262-0.404,0.45-0.552
			c0.188-0.148,0.406-0.267,0.654-0.354s0.506-0.154,0.773-0.198c0.269-0.044,0.538-0.071,0.811-0.084
			c0.271-0.012,0.528-0.018,0.768-0.018h0.36v-0.156c0-0.359-0.124-0.63-0.372-0.81c-0.248-0.181-0.563-0.271-0.948-0.271
			c-0.304,0-0.588,0.055-0.852,0.162c-0.264,0.108-0.492,0.254-0.685,0.438l-0.755-0.757c0.319-0.327,0.693-0.563,1.121-0.708
			c0.428-0.144,0.87-0.216,1.326-0.216c0.408,0,0.752,0.047,1.032,0.139c0.279,0.092,0.512,0.21,0.696,0.354
			c0.184,0.145,0.325,0.311,0.426,0.498c0.1,0.188,0.172,0.378,0.216,0.57c0.044,0.191,0.07,0.378,0.078,0.558
			s0.012,0.338,0.012,0.475v3.312h-1.296v-0.793H94.463z M94.379,106.921h-0.3c-0.2,0-0.425,0.008-0.672,0.024
			c-0.248,0.016-0.482,0.054-0.702,0.113c-0.221,0.061-0.406,0.148-0.559,0.265c-0.151,0.116-0.228,0.277-0.228,0.485
			c0,0.137,0.03,0.251,0.09,0.343c0.061,0.092,0.138,0.17,0.234,0.233c0.096,0.064,0.204,0.11,0.323,0.139
			c0.12,0.027,0.24,0.042,0.36,0.042c0.496,0,0.862-0.118,1.098-0.354c0.236-0.235,0.354-0.558,0.354-0.966v-0.324
			C94.377,106.921,94.379,106.921,94.379,106.921z"/>
	</g>
	<g>
		<path fill="#FFFFFF" d="M63.224,104.091h-1.563v1.918c0,0.158,0.008,0.302,0.024,0.433c0.016,0.13,0.051,0.242,0.107,0.337
			c0.055,0.095,0.14,0.168,0.255,0.219c0.114,0.051,0.266,0.077,0.456,0.077c0.095,0,0.219-0.01,0.373-0.029
			c0.154-0.02,0.27-0.066,0.349-0.137v1.48c-0.197,0.071-0.403,0.118-0.616,0.142s-0.422,0.036-0.628,0.036
			c-0.3,0-0.576-0.032-0.829-0.095c-0.252-0.063-0.473-0.164-0.663-0.301c-0.189-0.138-0.337-0.318-0.444-0.539
			c-0.107-0.22-0.16-0.489-0.16-0.805v-2.735h-1.137v-1.42h1.137v-1.705h1.776v1.705h1.563
			C63.224,102.672,63.224,104.091,63.224,104.091z"/>
		<path fill="#FFFFFF" d="M68.851,107.43c-0.284,0.363-0.643,0.644-1.077,0.841c-0.434,0.198-0.884,0.296-1.35,0.296
			c-0.442,0-0.858-0.071-1.249-0.213s-0.73-0.345-1.018-0.609c-0.288-0.265-0.515-0.582-0.681-0.954
			c-0.166-0.371-0.249-0.785-0.249-1.243c0-0.457,0.083-0.872,0.249-1.243c0.166-0.371,0.393-0.689,0.681-0.953
			c0.288-0.264,0.628-0.467,1.018-0.609s0.806-0.213,1.249-0.213c0.41,0,0.783,0.071,1.119,0.213
			c0.335,0.142,0.619,0.345,0.852,0.609c0.233,0.264,0.412,0.582,0.539,0.953c0.126,0.372,0.189,0.786,0.189,1.243v0.556h-4.12
			c0.071,0.34,0.225,0.61,0.461,0.811c0.237,0.201,0.529,0.301,0.876,0.301c0.292,0,0.539-0.065,0.74-0.195s0.377-0.298,0.527-0.504
			L68.851,107.43z M67.347,104.896c0.008-0.3-0.091-0.556-0.296-0.77c-0.205-0.213-0.469-0.32-0.793-0.32
			c-0.197,0-0.371,0.032-0.521,0.095c-0.15,0.064-0.278,0.145-0.385,0.243s-0.189,0.213-0.248,0.343
			c-0.059,0.13-0.093,0.266-0.101,0.408L67.347,104.896L67.347,104.896z"/>
		<path fill="#FFFFFF" d="M69.565,99.475h1.776v8.95h-1.776V99.475z"/>
		<path fill="#FFFFFF" d="M77.376,107.43c-0.284,0.363-0.643,0.644-1.077,0.841c-0.434,0.198-0.884,0.296-1.35,0.296
			c-0.442,0-0.858-0.071-1.249-0.213s-0.73-0.345-1.018-0.609c-0.288-0.265-0.515-0.582-0.681-0.954
			c-0.166-0.371-0.249-0.785-0.249-1.243c0-0.457,0.083-0.872,0.249-1.243c0.166-0.371,0.393-0.689,0.681-0.953
			s0.628-0.467,1.018-0.609s0.806-0.213,1.249-0.213c0.41,0,0.783,0.071,1.119,0.213c0.335,0.142,0.619,0.345,0.852,0.609
			c0.233,0.264,0.412,0.582,0.539,0.953c0.126,0.372,0.189,0.786,0.189,1.243v0.556h-4.12c0.071,0.34,0.225,0.61,0.461,0.811
			c0.237,0.201,0.529,0.301,0.876,0.301c0.292,0,0.539-0.065,0.74-0.195s0.377-0.298,0.527-0.504L77.376,107.43z M75.872,104.896
			c0.008-0.3-0.091-0.556-0.296-0.77c-0.205-0.213-0.469-0.32-0.793-0.32c-0.197,0-0.371,0.032-0.521,0.095
			c-0.15,0.064-0.278,0.145-0.385,0.243s-0.189,0.213-0.248,0.343c-0.059,0.13-0.093,0.266-0.101,0.408L75.872,104.896
			L75.872,104.896z"/>
		<path fill="#FFFFFF" d="M78.652,104.091H77.48v-1.42h1.172v-1.018c0-0.316,0.027-0.614,0.083-0.894
			c0.055-0.28,0.162-0.526,0.32-0.74c0.158-0.213,0.385-0.381,0.681-0.504c0.296-0.122,0.684-0.183,1.166-0.183
			c0.182,0,0.359,0.008,0.533,0.024c0.174,0.015,0.343,0.044,0.509,0.083l-0.083,1.504c-0.102-0.04-0.197-0.069-0.284-0.089
			c-0.087-0.019-0.185-0.029-0.296-0.029c-0.284,0-0.497,0.061-0.639,0.183c-0.142,0.123-0.213,0.373-0.213,0.752v0.912h1.314v1.42
			h-1.314v4.333h-1.776v-4.334L78.652,104.091L78.652,104.091z M82.44,99.475h1.776v8.95H82.44V99.475z"/>
		<path fill="#FFFFFF" d="M84.592,105.548c0-0.457,0.083-0.872,0.249-1.243s0.393-0.689,0.681-0.953s0.628-0.467,1.018-0.609
			s0.806-0.213,1.249-0.213s0.858,0.071,1.249,0.213s0.73,0.345,1.018,0.609c0.288,0.264,0.515,0.582,0.681,0.953
			c0.166,0.372,0.249,0.786,0.249,1.243c0,0.458-0.083,0.872-0.249,1.243c-0.166,0.372-0.393,0.689-0.681,0.954
			c-0.288,0.264-0.628,0.467-1.018,0.609c-0.391,0.142-0.807,0.213-1.249,0.213s-0.858-0.071-1.249-0.213s-0.73-0.345-1.018-0.609
			c-0.288-0.265-0.515-0.582-0.681-0.954C84.675,106.42,84.592,106.006,84.592,105.548z M86.368,105.548
			c0,0.434,0.124,0.786,0.372,1.054c0.249,0.269,0.598,0.403,1.048,0.403s0.799-0.134,1.048-0.403
			c0.249-0.268,0.373-0.619,0.373-1.054c0-0.434-0.124-0.785-0.373-1.054c-0.249-0.268-0.598-0.403-1.048-0.403
			s-0.799,0.135-1.048,0.403C86.493,104.762,86.368,105.114,86.368,105.548z"/>
		<path fill="#FFFFFF" d="M91.354,102.671h1.776v0.923h0.024c0.189-0.354,0.414-0.621,0.674-0.799s0.588-0.266,0.983-0.266
			c0.102,0,0.205,0.004,0.308,0.012c0.102,0.007,0.197,0.024,0.284,0.047v1.621c-0.126-0.039-0.25-0.068-0.373-0.088
			c-0.122-0.02-0.25-0.03-0.385-0.03c-0.339,0-0.608,0.047-0.805,0.142s-0.349,0.228-0.456,0.397
			c-0.107,0.169-0.175,0.372-0.207,0.609s-0.047,0.497-0.047,0.781v2.403h-1.776V102.671z"/>
		<path fill="#FFFFFF" d="M99.029,107.702h-0.024c-0.197,0.308-0.46,0.529-0.787,0.663s-0.673,0.201-1.036,0.201
			c-0.269,0-0.527-0.037-0.775-0.113c-0.249-0.075-0.468-0.187-0.657-0.337c-0.189-0.149-0.34-0.335-0.45-0.556
			c-0.111-0.22-0.166-0.477-0.166-0.77c0-0.332,0.061-0.611,0.184-0.841c0.122-0.229,0.288-0.418,0.497-0.568
			c0.209-0.149,0.448-0.266,0.716-0.349c0.268-0.083,0.546-0.144,0.834-0.184c0.288-0.039,0.576-0.063,0.864-0.071
			c0.288-0.007,0.555-0.012,0.799-0.012c0-0.315-0.112-0.566-0.337-0.751c-0.225-0.186-0.491-0.279-0.799-0.279
			c-0.292,0-0.558,0.062-0.799,0.184c-0.241,0.122-0.456,0.29-0.645,0.503l-0.947-0.97c0.332-0.308,0.718-0.539,1.16-0.693
			s0.899-0.23,1.373-0.23c0.521,0,0.949,0.065,1.285,0.195s0.604,0.321,0.805,0.575c0.201,0.252,0.341,0.562,0.42,0.929
			c0.079,0.367,0.118,0.791,0.118,1.272v2.924h-1.634L99.029,107.702L99.029,107.702z M98.591,105.903
			c-0.134,0-0.302,0.006-0.503,0.018s-0.395,0.046-0.58,0.1c-0.185,0.056-0.343,0.138-0.473,0.249s-0.195,0.265-0.195,0.462
			c0,0.213,0.091,0.372,0.272,0.474c0.181,0.103,0.371,0.154,0.568,0.154c0.174,0,0.342-0.024,0.503-0.071
			c0.162-0.047,0.306-0.114,0.432-0.201s0.227-0.197,0.302-0.332c0.075-0.134,0.112-0.291,0.112-0.474v-0.379H98.591z"/>
		<path fill="#FFFFFF" d="M103.812,102.671h1.776v0.923h0.024c0.189-0.354,0.414-0.621,0.674-0.799s0.588-0.266,0.983-0.266
			c0.102,0,0.205,0.004,0.308,0.012c0.102,0.007,0.197,0.024,0.284,0.047v1.621c-0.126-0.039-0.25-0.068-0.373-0.088
			c-0.122-0.02-0.25-0.03-0.385-0.03c-0.339,0-0.608,0.047-0.805,0.142s-0.349,0.228-0.456,0.397
			c-0.107,0.169-0.175,0.372-0.207,0.609s-0.047,0.497-0.047,0.781v2.403h-1.776V102.671z"/>
		<path fill="#FFFFFF" d="M113.352,107.43c-0.284,0.363-0.643,0.644-1.077,0.841c-0.434,0.198-0.884,0.296-1.35,0.296
			c-0.442,0-0.858-0.071-1.249-0.213s-0.73-0.345-1.018-0.609c-0.288-0.265-0.515-0.582-0.681-0.954
			c-0.166-0.371-0.249-0.785-0.249-1.243c0-0.457,0.083-0.872,0.249-1.243c0.166-0.371,0.393-0.689,0.681-0.953
			s0.628-0.467,1.018-0.609s0.806-0.213,1.249-0.213c0.41,0,0.783,0.071,1.119,0.213c0.335,0.142,0.619,0.345,0.852,0.609
			c0.233,0.264,0.412,0.582,0.539,0.953c0.126,0.372,0.189,0.786,0.189,1.243v0.556h-4.12c0.071,0.34,0.225,0.61,0.461,0.811
			c0.237,0.201,0.529,0.301,0.876,0.301c0.292,0,0.539-0.065,0.74-0.195s0.377-0.298,0.527-0.504L113.352,107.43z M111.848,104.896
			c0.008-0.3-0.091-0.556-0.296-0.77c-0.205-0.213-0.469-0.32-0.793-0.32c-0.197,0-0.371,0.032-0.521,0.095
			c-0.15,0.064-0.278,0.145-0.385,0.243s-0.189,0.213-0.248,0.343c-0.059,0.13-0.093,0.266-0.101,0.408L111.848,104.896
			L111.848,104.896z"/>
		<path fill="#FFFFFF" d="M117.846,104.529c-0.087-0.126-0.209-0.23-0.367-0.313s-0.327-0.125-0.509-0.125
			c-0.45,0-0.799,0.135-1.048,0.403c-0.248,0.269-0.372,0.62-0.372,1.054s0.124,0.786,0.372,1.054
			c0.249,0.269,0.598,0.403,1.048,0.403c0.197,0,0.367-0.043,0.509-0.13c0.142-0.087,0.265-0.189,0.367-0.308l1.172,1.231
			c-0.276,0.284-0.602,0.484-0.977,0.598s-0.732,0.171-1.071,0.171c-0.442,0-0.858-0.071-1.249-0.213s-0.73-0.345-1.018-0.609
			c-0.288-0.265-0.515-0.582-0.681-0.954c-0.166-0.371-0.249-0.785-0.249-1.243c0-0.457,0.083-0.872,0.249-1.243
			c0.166-0.371,0.393-0.689,0.681-0.953s0.628-0.467,1.018-0.609s0.806-0.213,1.249-0.213c0.339,0,0.697,0.057,1.071,0.171
			c0.375,0.115,0.7,0.314,0.977,0.598L117.846,104.529z"/>
		<path fill="#FFFFFF" d="M118.605,105.548c0-0.457,0.083-0.872,0.249-1.243s0.393-0.689,0.681-0.953s0.628-0.467,1.018-0.609
			s0.806-0.213,1.249-0.213s0.858,0.071,1.249,0.213s0.73,0.345,1.018,0.609c0.288,0.264,0.515,0.582,0.681,0.953
			c0.166,0.372,0.249,0.786,0.249,1.243c0,0.458-0.083,0.872-0.249,1.243c-0.166,0.372-0.393,0.689-0.681,0.954
			c-0.288,0.264-0.628,0.467-1.018,0.609c-0.391,0.142-0.807,0.213-1.249,0.213s-0.858-0.071-1.249-0.213s-0.73-0.345-1.018-0.609
			c-0.288-0.265-0.515-0.582-0.681-0.954C118.688,106.42,118.605,106.006,118.605,105.548z M120.381,105.548
			c0,0.434,0.124,0.786,0.372,1.054c0.249,0.269,0.598,0.403,1.048,0.403s0.799-0.134,1.048-0.403
			c0.249-0.268,0.373-0.619,0.373-1.054c0-0.434-0.124-0.785-0.373-1.054c-0.249-0.268-0.598-0.403-1.048-0.403
			s-0.799,0.135-1.048,0.403C120.505,104.762,120.381,105.114,120.381,105.548z"/>
		<path fill="#FFFFFF" d="M125.367,102.671h1.705v0.781h0.024c0.055-0.111,0.134-0.221,0.236-0.332
			c0.103-0.111,0.225-0.209,0.367-0.296s0.304-0.158,0.485-0.213c0.182-0.056,0.379-0.083,0.592-0.083
			c0.403,0,0.76,0.083,1.072,0.249c0.311,0.166,0.546,0.426,0.704,0.781c0.205-0.371,0.454-0.635,0.746-0.792
			c0.292-0.158,0.651-0.237,1.077-0.237c0.387,0,0.712,0.065,0.977,0.195s0.474,0.308,0.628,0.533s0.265,0.489,0.332,0.793
			s0.101,0.629,0.101,0.976v3.398h-1.776v-3.351c0-0.268-0.057-0.499-0.172-0.692s-0.317-0.291-0.609-0.291
			c-0.205,0-0.377,0.034-0.515,0.101s-0.249,0.159-0.332,0.278c-0.083,0.118-0.142,0.257-0.178,0.414
			c-0.036,0.158-0.053,0.324-0.053,0.497v3.043h-1.776v-3.043c0-0.102-0.004-0.229-0.012-0.379
			c-0.008-0.149-0.036-0.291-0.083-0.426c-0.047-0.134-0.124-0.249-0.231-0.343c-0.107-0.095-0.262-0.142-0.468-0.142
			c-0.229,0-0.414,0.042-0.556,0.125s-0.25,0.193-0.326,0.332c-0.075,0.138-0.124,0.294-0.148,0.467
			c-0.024,0.174-0.036,0.355-0.036,0.545v2.865h-1.776L125.367,102.671L125.367,102.671z"/>
		<path fill="#FFFFFF" d="M135.044,102.671h1.705v0.781h0.024c0.055-0.111,0.134-0.221,0.236-0.332
			c0.103-0.111,0.225-0.209,0.367-0.296s0.304-0.158,0.485-0.213c0.182-0.056,0.379-0.083,0.592-0.083
			c0.403,0,0.76,0.083,1.072,0.249c0.311,0.166,0.546,0.426,0.704,0.781c0.205-0.371,0.454-0.635,0.746-0.792
			c0.292-0.158,0.651-0.237,1.077-0.237c0.387,0,0.712,0.065,0.977,0.195s0.474,0.308,0.628,0.533s0.265,0.489,0.332,0.793
			s0.101,0.629,0.101,0.976v3.398h-1.776v-3.351c0-0.268-0.057-0.499-0.172-0.692c-0.114-0.193-0.317-0.291-0.609-0.291
			c-0.205,0-0.377,0.034-0.515,0.101s-0.249,0.159-0.332,0.278c-0.083,0.118-0.142,0.257-0.178,0.414
			c-0.036,0.158-0.053,0.324-0.053,0.497v3.043h-1.776v-3.043c0-0.102-0.004-0.229-0.012-0.379
			c-0.008-0.149-0.036-0.291-0.083-0.426c-0.047-0.134-0.124-0.249-0.231-0.343s-0.262-0.142-0.468-0.142
			c-0.229,0-0.414,0.042-0.556,0.125s-0.25,0.193-0.326,0.332c-0.075,0.138-0.124,0.294-0.148,0.467
			c-0.024,0.174-0.036,0.355-0.036,0.545v2.865h-1.776L135.044,102.671L135.044,102.671z"/>
		<path fill="#FFFFFF" d="M150.077,107.43c-0.284,0.363-0.643,0.644-1.077,0.841c-0.434,0.198-0.883,0.296-1.35,0.296
			c-0.443,0-0.859-0.071-1.249-0.213c-0.391-0.142-0.73-0.345-1.018-0.609c-0.288-0.265-0.515-0.582-0.681-0.954
			c-0.166-0.371-0.249-0.785-0.249-1.243c0-0.457,0.083-0.872,0.249-1.243c0.166-0.371,0.393-0.689,0.681-0.953
			s0.628-0.467,1.018-0.609s0.806-0.213,1.249-0.213c0.41,0,0.783,0.071,1.118,0.213c0.335,0.142,0.619,0.345,0.852,0.609
			s0.413,0.582,0.539,0.953c0.126,0.372,0.189,0.786,0.189,1.243v0.556h-4.12c0.071,0.34,0.225,0.61,0.461,0.811
			c0.237,0.201,0.529,0.301,0.876,0.301c0.293,0,0.539-0.065,0.741-0.195c0.2-0.13,0.377-0.298,0.526-0.504L150.077,107.43z
			 M148.575,104.896c0.007-0.3-0.091-0.556-0.295-0.77c-0.206-0.213-0.47-0.32-0.795-0.32c-0.197,0-0.371,0.032-0.521,0.095
			c-0.15,0.064-0.278,0.145-0.385,0.243s-0.189,0.213-0.248,0.343c-0.059,0.13-0.093,0.266-0.101,0.408L148.575,104.896
			L148.575,104.896z"/>
		<path fill="#FFFFFF" d="M150.77,102.671h1.705v0.781h0.024c0.055-0.111,0.134-0.221,0.237-0.332
			c0.102-0.111,0.225-0.209,0.367-0.296s0.303-0.158,0.485-0.213c0.181-0.056,0.379-0.083,0.592-0.083
			c0.45,0,0.812,0.069,1.088,0.207c0.277,0.138,0.492,0.33,0.646,0.575c0.154,0.244,0.259,0.532,0.313,0.863
			c0.056,0.332,0.083,0.691,0.083,1.077v3.173h-1.775v-2.818c0-0.166-0.006-0.337-0.018-0.515c-0.012-0.178-0.047-0.342-0.107-0.492
			c-0.059-0.149-0.15-0.272-0.272-0.367s-0.298-0.142-0.526-0.142c-0.23,0-0.414,0.042-0.556,0.125s-0.251,0.193-0.326,0.332
			c-0.075,0.138-0.124,0.294-0.148,0.467c-0.024,0.174-0.036,0.355-0.036,0.545v2.865h-1.776V102.671z"/>
		<path fill="#FFFFFF" d="M162.924,108.425h-1.634v-0.758h-0.024c-0.071,0.103-0.163,0.208-0.278,0.314
			c-0.115,0.107-0.249,0.203-0.403,0.29s-0.323,0.158-0.509,0.213s-0.377,0.083-0.574,0.083c-0.426,0-0.813-0.073-1.16-0.219
			c-0.348-0.147-0.646-0.352-0.894-0.616c-0.249-0.265-0.44-0.578-0.574-0.942c-0.135-0.362-0.201-0.761-0.201-1.196
			c0-0.403,0.061-0.787,0.183-1.154c0.123-0.367,0.296-0.693,0.521-0.976c0.225-0.284,0.499-0.511,0.823-0.681
			c0.323-0.169,0.69-0.254,1.101-0.254c0.371,0,0.716,0.057,1.036,0.171c0.32,0.115,0.582,0.31,0.788,0.587h0.024v-3.812h1.775
			L162.924,108.425L162.924,108.425z M161.29,105.548c0-0.434-0.124-0.785-0.372-1.054c-0.249-0.268-0.597-0.403-1.047-0.403
			s-0.8,0.135-1.048,0.403c-0.249,0.269-0.372,0.62-0.372,1.054s0.124,0.786,0.372,1.054c0.249,0.269,0.598,0.403,1.048,0.403
			s0.799-0.134,1.047-0.403C161.166,106.334,161.29,105.982,161.29,105.548z"/>
		<path fill="#FFFFFF" d="M166.883,104.364c-0.26-0.323-0.604-0.485-1.03-0.485c-0.15,0-0.296,0.036-0.438,0.107
			s-0.213,0.194-0.213,0.367c0,0.142,0.073,0.247,0.219,0.314c0.147,0.067,0.332,0.127,0.556,0.178
			c0.225,0.051,0.465,0.107,0.722,0.166s0.497,0.152,0.722,0.278c0.225,0.127,0.411,0.299,0.556,0.515
			c0.146,0.217,0.219,0.507,0.219,0.87c0,0.372-0.08,0.677-0.242,0.918c-0.162,0.24-0.369,0.434-0.621,0.58
			c-0.253,0.146-0.537,0.249-0.852,0.307c-0.316,0.059-0.628,0.089-0.935,0.089c-0.403,0-0.81-0.057-1.219-0.171
			c-0.411-0.115-0.758-0.318-1.042-0.61l1.077-1.196c0.166,0.206,0.349,0.362,0.55,0.468c0.201,0.107,0.436,0.159,0.705,0.159
			c0.205,0,0.391-0.029,0.556-0.088s0.249-0.168,0.249-0.326c0-0.149-0.074-0.262-0.219-0.337c-0.146-0.076-0.332-0.138-0.556-0.189
			c-0.225-0.052-0.465-0.107-0.722-0.166c-0.256-0.059-0.497-0.148-0.722-0.267c-0.225-0.118-0.41-0.286-0.556-0.503
			c-0.146-0.217-0.219-0.507-0.219-0.871c0-0.339,0.069-0.631,0.207-0.876c0.138-0.244,0.32-0.445,0.545-0.603
			c0.225-0.158,0.484-0.274,0.776-0.35c0.291-0.075,0.587-0.112,0.888-0.112c0.379,0,0.761,0.055,1.148,0.166
			c0.386,0.11,0.714,0.308,0.982,0.592L166.883,104.364z"/>
	</g>
	<path fill="#787878" d="M218.803,114.573h-2.5c-2.241,0-6-1.169-6-9s3.759-9,6-9h2.5c0.552,0,1,0.448,1,1v5.5c0,0.552-0.448,1-1,1
		h-2.5c-0.303,0.028-0.667,0.438-0.667,1.5s0.363,1.472,0.703,1.501l2.464-0.001c0.552,0,1,0.448,1,1v5.5
		C219.803,114.125,219.355,114.573,218.803,114.573z M216.303,98.573c-1.825,0-4,1.214-4,7c0,3.193,0.694,7,4,7h1.5v-3.5h-1.5
		c-0.922,0-2.667-0.731-2.667-3.5s1.744-3.5,2.667-3.5h1.5v-3.5H216.303z"/>
	<g>
		<path fill="#787878" d="M238.303,114.567h-11c-1.378,0-2.5-1.122-2.5-2.5v-7c0-0.733,0.325-1.427,0.893-1.906
			c0.35-0.295,0.856-0.315,1.228-0.048l5.879,4.223l5.879-4.223c0.372-0.267,0.878-0.247,1.228,0.048
			c0.567,0.479,0.893,1.173,0.893,1.906v7C240.803,113.445,239.681,114.567,238.303,114.567z M226.803,105.488v6.578
			c0,0.276,0.224,0.5,0.5,0.5h11c0.276,0,0.5-0.224,0.5-0.5v-6.578l-5.417,3.891c-0.348,0.25-0.818,0.25-1.167,0L226.803,105.488z"
			/>
		<path fill="#787878" d="M232.803,109.567c-0.205,0-0.409-0.062-0.583-0.188l-6.462-4.642c-0.25-0.18-0.404-0.465-0.416-0.773
			c-0.012-0.308,0.118-0.604,0.354-0.803c0.454-0.383,1.025-0.594,1.608-0.594h11c0.583,0,1.154,0.211,1.608,0.594
			c0.236,0.199,0.366,0.495,0.354,0.803s-0.166,0.593-0.416,0.773l-6.462,4.642C233.212,109.504,233.008,109.567,232.803,109.567z
			 M228.948,104.567l3.855,2.769l3.855-2.769H228.948z"/>
	</g>
	<path fill="#787878" d="M198.816,105.573c-1.608,0-2.916-1.301-2.916-2.9s1.308-2.9,2.916-2.9s2.916,1.301,2.916,2.9
		C201.732,104.272,200.424,105.573,198.816,105.573z M198.816,101.773c-0.505,0-0.916,0.404-0.916,0.9s0.411,0.9,0.916,0.9
		s0.916-0.404,0.916-0.9C199.732,102.176,199.321,101.773,198.816,101.773z"/>
	<path fill="#787878" d="M198.816,114.217c-0.349,0-0.673-0.182-0.854-0.48l-4.665-7.659c-0.01-0.016-0.019-0.031-0.027-0.047
		c-0.624-1.015-0.954-2.174-0.954-3.357c0-3.56,2.916-6.456,6.5-6.456s6.5,2.896,6.5,6.456c0,1.183-0.33,2.342-0.954,3.357
		c-0.009,0.016-0.018,0.032-0.027,0.047l-4.665,7.659C199.489,114.035,199.165,114.217,198.816,114.217z M195.04,105.094
		l3.776,6.201l3.776-6.201c0.012-0.023,0.025-0.046,0.04-0.069c0.447-0.71,0.684-1.523,0.684-2.351c0-2.457-2.019-4.456-4.5-4.456
		s-4.5,1.999-4.5,4.456c0,0.828,0.237,1.642,0.684,2.351C195.014,105.047,195.027,105.07,195.04,105.094z"/>
	
		<text transform="matrix(1 0 0 1 7.1079 13.5215)" opacity="0" enable-background="new    " font-family="'MyriadPro-Regular'" font-size="12">a</text>
</g>
<g id="Layer_2">
</g>
<circle fill="#45CA58" cx="136" cy="42" r="10.5"/>
<polyline fill="none" stroke="#FFFFFF" stroke-width="2" stroke-linecap="round" stroke-linejoin="round" stroke-miterlimit="10" points="
	141.25,38.325 134.425,45.675 131.275,41.737 "/>
<circle fill="#CCCBCB" cx="161" cy="42" r="10.5"/>
<polyline fill="none" stroke="#FFFFFF" stroke-width="2" stroke-linecap="round" stroke-linejoin="round" stroke-miterlimit="10" points="
	166.25,38.325 159.425,45.675 156.275,41.737 "/>
</svg>
