<?xml version="1.0" encoding="utf-8"?>
<!-- Generator: Adobe Illustrator 15.1.0, SVG Export Plug-In . SVG Version: 6.00 Build 0)  -->
<!DOCTYPE svg PUBLIC "-//W3C//DTD SVG 1.1//EN" "http://www.w3.org/Graphics/SVG/1.1/DTD/svg11.dtd">
<svg version="1.1" id="Layer_1" xmlns="http://www.w3.org/2000/svg" xmlns:xlink="http://www.w3.org/1999/xlink" x="0px" y="0px"
	 width="300px" height="132px" viewBox="0 0 300 132" enable-background="new 0 0 300 132" xml:space="preserve">
<g>
	<g id="Layer_1_1_">
		<path fill="#231F20" d="M32.515,8.688c0,1.569-1.272,2.841-2.841,2.841H2.841C1.273,11.529,0,10.257,0,8.688l0,0
			c0-1.569,1.272-2.841,2.841-2.841h26.833C31.243,5.846,32.515,7.118,32.515,8.688L32.515,8.688z"/>
		<path fill="#231F20" d="M32.515,18.632c0,1.569-1.272,2.841-2.841,2.841H2.841C1.273,21.473,0,20.201,0,18.632l0,0
			c0-1.568,1.272-2.841,2.841-2.841h26.833C31.243,15.791,32.515,17.064,32.515,18.632L32.515,18.632z"/>
		<path fill="#231F20" d="M32.515,28.576c0,1.568-1.272,2.841-2.841,2.841H2.841C1.273,31.417,0,30.145,0,28.576l0,0
			c0-1.569,1.272-2.841,2.841-2.841h26.833C31.243,25.736,32.515,27.007,32.515,28.576L32.515,28.576z"/>
		
			<circle fill="none" stroke="#787878" stroke-width="1.75" stroke-linecap="round" stroke-linejoin="round" stroke-miterlimit="10" cx="77.028" cy="8.644" r="2.644"/>
		
			<path fill="none" stroke="#787878" stroke-width="1.75" stroke-linecap="round" stroke-linejoin="round" stroke-miterlimit="10" d="
			M71.454,18.632v-2.34c0-1.722,1.396-3.117,3.118-3.117h4.913c1.722,0,3.119,1.396,3.119,3.117v2.34"/>
		
			<circle fill="none" stroke="#231F20" stroke-width="1.75" stroke-linecap="round" stroke-linejoin="round" stroke-miterlimit="10" cx="77.028" cy="24.708" r="2.644"/>
		
			<path fill="none" stroke="#231F20" stroke-width="1.75" stroke-linecap="round" stroke-linejoin="round" stroke-miterlimit="10" d="
			M71.454,34.696v-2.34c0-1.722,1.396-3.117,3.118-3.117h4.913c1.722,0,3.119,1.396,3.119,3.117v2.34"/>
		
			<polyline fill="none" stroke="#787878" stroke-width="1.8" stroke-linecap="round" stroke-linejoin="round" stroke-miterlimit="10" points="
			87,6 89.24,6 91.737,13.818 102.735,13.818 105,7.022 		"/>
		<ellipse fill="#787878" cx="101.806" cy="16.666" rx="1.392" ry="1.334"/>
		<ellipse fill="#787878" cx="92.255" cy="16.666" rx="1.392" ry="1.334"/>
		
			<polyline fill="none" stroke="#231F20" stroke-width="1.8" stroke-linecap="round" stroke-linejoin="round" stroke-miterlimit="10" points="
			153.007,6 155.247,6 157.744,13.817 168.741,13.817 171.007,7.022 		"/>
		<ellipse fill="#231F20" cx="167.813" cy="16.666" rx="1.392" ry="1.334"/>
		<ellipse fill="#231F20" cx="158.262" cy="16.666" rx="1.391" ry="1.334"/>
		<path fill="#231F20" d="M62.132,8.346c1.016,1.016,1.016,2.664,0,3.679L42.816,31.34c-1.016,1.016-2.664,1.016-3.68,0l0,0
			c-1.016-1.016-1.016-2.663,0-3.679L58.452,8.346C59.468,7.33,61.115,7.33,62.132,8.346L62.132,8.346z"/>
		<path fill="#231F20" d="M39.137,8.346c-1.016,1.016-1.016,2.664,0,3.679L58.452,31.34c1.016,1.016,2.663,1.016,3.68,0l0,0
			c1.016-1.016,1.016-2.663,0-3.679L42.816,8.346C41.8,7.33,40.153,7.33,39.137,8.346L39.137,8.346z"/>
		
			<polyline fill="none" stroke="#231F20" stroke-width="2" stroke-linecap="round" stroke-linejoin="round" stroke-miterlimit="10" points="
			111.75,6.75 116.25,11.284 111.75,15.25 		"/>
		
			<polyline fill="none" stroke="#231F20" stroke-width="1.5" stroke-linecap="round" stroke-linejoin="round" stroke-miterlimit="10" points="
			189.816,10.005 193.82,6 197.326,10.005 		"/>
		
			<polyline fill="none" stroke="#231F20" stroke-width="1.5" stroke-linecap="round" stroke-linejoin="round" stroke-miterlimit="10" points="
			197.326,14.464 193.32,18.469 189.816,14.464 		"/>
		
			<polyline fill="none" stroke="#197DFD" stroke-width="1.5" stroke-linecap="round" stroke-linejoin="round" stroke-miterlimit="10" points="
			3.72,62.984 7.724,58.98 11.23,62.984 		"/>
		
			<polyline fill="none" stroke="#197DFD" stroke-width="1.5" stroke-linecap="round" stroke-linejoin="round" stroke-miterlimit="10" points="
			11.23,67.443 7.224,71.449 3.72,67.443 		"/>
		
			<path fill="none" stroke="#787878" stroke-width="1.8" stroke-linecap="round" stroke-linejoin="round" stroke-miterlimit="10" d="
			M212.323,7c3.704,0,6.708,2.373,6.708,5.3c0,1.454-0.742,2.771-1.943,3.729l0.907,4.739l-4.183-3.307
			c-0.479,0.086-0.979,0.136-1.485,0.136c-3.708,0-6.711-2.374-6.711-5.298C205.611,9.373,208.616,7,212.323,7z"/>
		
			<path fill="none" stroke="#231F20" stroke-width="1.8" stroke-linecap="round" stroke-linejoin="round" stroke-miterlimit="10" d="
			M212.323,24.616c3.704,0,6.708,2.373,6.708,5.3c0,1.454-0.742,2.771-1.943,3.729l0.907,4.739l-4.183-3.307
			c-0.479,0.086-0.979,0.136-1.485,0.136c-3.708,0-6.711-2.374-6.711-5.298C205.611,26.989,208.616,24.616,212.323,24.616z"/>
		<rect id="facebook-guide" x="180" y="5" display="none" fill="#00FFFF" width="40" height="40"/>
		<path id="facebook" fill="#FFFFFF" d="M243.999,40.847v-15h-4v-5h4c0,0,0-2.637,0-5.039c0-3.628,2.539-6.961,7.942-6.961
			c2.188,0,4.058,0.21,4.058,0.21v5.048c0,0-2.028-0.015-3.829-0.015c-1.947,0-2.261,0.898-2.261,2.389c0,1.178,0-2.09,0,4.369h6.09
			l-1,5h-5v15L243.999,40.847L243.999,40.847z"/>
		<g>
			<circle fill="#DC243A" cx="277" cy="18" r="12.5"/>
			
				<line fill="none" stroke="#FFFFFF" stroke-width="2" stroke-linecap="round" stroke-linejoin="round" stroke-miterlimit="10" x1="281.762" y1="13.238" x2="272.238" y2="22.762"/>
			
				<line fill="none" stroke="#FFFFFF" stroke-width="2" stroke-linecap="round" stroke-linejoin="round" stroke-miterlimit="10" x1="272.238" y1="13.238" x2="281.762" y2="22.762"/>
		</g>
		<g>
			<circle fill="#C6243F" cx="277" cy="46.602" r="12.5"/>
			
				<line fill="none" stroke="#FFFFFF" stroke-width="2" stroke-linecap="round" stroke-linejoin="round" stroke-miterlimit="10" x1="281.762" y1="41.84" x2="272.238" y2="51.364"/>
			
				<line fill="none" stroke="#FFFFFF" stroke-width="2" stroke-linecap="round" stroke-linejoin="round" stroke-miterlimit="10" x1="272.238" y1="41.84" x2="281.762" y2="51.364"/>
		</g>
		<g>
			<path fill="#231F20" d="M8,50c-4.135,0-7.5-3.364-7.5-7.499C0.5,38.365,3.865,35,8,35s7.5,3.365,7.5,7.501
				C15.5,46.636,12.135,50,8,50z M8,36.567c-3.272,0-5.933,2.661-5.933,5.933c0,3.271,2.661,5.932,5.933,5.932
				c3.271,0,5.932-2.66,5.932-5.932C13.933,39.229,11.271,36.567,8,36.567z"/>
			<g>
				<path d="M9.583,45.473c-0.862,0.968-1.739,1.203-2.065,1.203c-0.327,0-0.915-0.131-0.915-0.929c0-0.379,0.17-1.085,0.235-1.386
					l0.34-1.478c0.04-0.156,0.091-0.404,0.091-0.496c0-0.144-0.091-0.196-0.144-0.196c-0.091,0-0.157,0.065-0.68,0.614l-0.287-0.261
					c1.202-1.307,1.687-1.517,2.118-1.517c0.51,0,0.746,0.379,0.746,0.85c0,0.366-0.065,0.641-0.157,1.046l-0.51,2.222
					c-0.026,0.145-0.091,0.38-0.091,0.498c0,0.092,0.065,0.188,0.17,0.188c0.117,0,0.444-0.157,0.889-0.614L9.583,45.473z
					 M8.942,38.177c0.484,0,0.85,0.432,0.85,0.994c0,0.536-0.379,1.229-1.046,1.229c-0.522,0-0.863-0.418-0.863-0.967
					C7.883,38.739,8.341,38.177,8.942,38.177z"/>
			</g>
		</g>
		
			<polyline fill="none" stroke="#FFFFFF" stroke-width="1.5" stroke-linecap="round" stroke-linejoin="round" stroke-miterlimit="10" points="
			189.816,28.778 193.82,24.773 197.326,28.778 		"/>
		
			<polyline fill="none" stroke="#FFFFFF" stroke-width="1.5" stroke-linecap="round" stroke-linejoin="round" stroke-miterlimit="10" points="
			197.326,33.237 193.32,37.242 189.816,33.237 		"/>
		<g>
			<path fill="#EFEFEF" d="M20.45,57.151c-1.516,0-2.75-1.235-2.75-2.75v-14c0-1.516,1.234-2.75,2.75-2.75h14
				c1.516,0,2.75,1.234,2.75,2.75v14c0,1.515-1.234,2.75-2.75,2.75H20.45z"/>
			<path fill="#CCCCCC" d="M34.45,37.901c1.379,0,2.5,1.121,2.5,2.5v14c0,1.379-1.121,2.5-2.5,2.5h-14c-1.379,0-2.5-1.121-2.5-2.5
				v-14c0-1.379,1.121-2.5,2.5-2.5H34.45 M34.45,37.401h-14c-1.657,0-3,1.343-3,3v14c0,1.657,1.343,3,3,3h14c1.656,0,3-1.343,3-3
				v-14C37.45,38.744,36.106,37.401,34.45,37.401L34.45,37.401z"/>
		</g>
		<g>
			<path fill="#EFEFEF" d="M46.554,57.25c-1.517,0-2.75-1.235-2.75-2.75v-14c0-1.516,1.234-2.75,2.75-2.75h14
				c1.517,0,2.75,1.234,2.75,2.75v14c0,1.515-1.234,2.75-2.75,2.75H46.554z"/>
			<path fill="#CCCCCC" d="M60.553,38c1.379,0,2.5,1.121,2.5,2.5v14c0,1.379-1.121,2.5-2.5,2.5h-14c-1.379,0-2.5-1.121-2.5-2.5v-14
				c0-1.379,1.121-2.5,2.5-2.5H60.553 M60.553,37.5h-14c-1.657,0-3,1.343-3,3v14c0,1.657,1.343,3,3,3h14c1.656,0,3-1.343,3-3v-14
				C63.553,38.843,62.209,37.5,60.553,37.5L60.553,37.5z"/>
		</g>
		<path fill="#197DFD" d="M52.883,53.654c-0.016,0-0.031,0-0.048,0c-0.481-0.014-0.933-0.235-1.234-0.603l-5.252-6.429
			c-0.567-0.693-0.452-1.705,0.256-2.259c0.706-0.554,1.74-0.443,2.307,0.251l4.045,4.951L63.48,38.113
			c0.606-0.659,1.643-0.714,2.318-0.12c0.673,0.594,0.728,1.61,0.122,2.27L54.102,53.122C53.791,53.461,53.347,53.654,52.883,53.654
			z"/>
		<g>
			<path fill="#EFEFEF" d="M85.633,57.187c-5.341,0-9.687-4.346-9.687-9.688s4.345-9.688,9.687-9.688
				c5.342,0,9.687,4.346,9.687,9.688S90.976,57.187,85.633,57.187z"/>
			<path fill="#CCCCCC" d="M85.633,38.125c5.169,0,9.375,4.206,9.375,9.375s-4.205,9.375-9.375,9.375
				c-5.169,0-9.375-4.206-9.375-9.375S80.464,38.125,85.633,38.125 M85.633,37.5c-5.522,0-10,4.477-10,10s4.477,10,10,10
				c5.523,0,10-4.477,10-10S91.157,37.5,85.633,37.5L85.633,37.5z"/>
		</g>
		<g>
			<path fill="#EFEFEF" d="M111.755,57.187c-5.342,0-9.688-4.346-9.688-9.688s4.346-9.688,9.688-9.688
				c5.342,0,9.688,4.346,9.688,9.688S117.097,57.187,111.755,57.187z"/>
			<path fill="#CCCCCC" d="M111.755,38.125c5.169,0,9.375,4.206,9.375,9.375s-4.206,9.375-9.375,9.375s-9.375-4.206-9.375-9.375
				S106.585,38.125,111.755,38.125 M111.755,37.5c-5.524,0-10,4.477-10,10s4.476,10,10,10c5.522,0,10-4.477,10-10
				S117.277,37.5,111.755,37.5L111.755,37.5z"/>
		</g>
		<g>
			<circle fill="#197DFD" cx="111.755" cy="47.5" r="5.625"/>
		</g>
		
			<polyline fill="none" stroke="#197DFD" stroke-width="2" stroke-linecap="round" stroke-linejoin="round" stroke-miterlimit="10" points="
			129.75,6.75 134.25,11.283 129.75,15.25 		"/>
		
			<polyline fill="none" stroke="#197DFD" stroke-width="2" stroke-linecap="round" stroke-linejoin="round" stroke-miterlimit="10" points="
			142.25,15.25 137.75,10.717 142.25,6.75 		"/>
		<path fill="none" stroke="#787878" stroke-width="2" stroke-linecap="round" stroke-linejoin="round" stroke-miterlimit="10" d="
			M201.001,42c4.274,0,7.741,2.614,7.741,5.838c0,1.602-0.857,3.053-2.243,4.108L206.956,56l-4.233-2.475
			c-0.556,0.095-1.129,0.15-1.722,0.15c-4.276,0-7.743-2.615-7.743-5.838S196.725,42,201.001,42z"/>
		<ellipse fill="#787878" cx="204.258" cy="47.833" rx="1.184" ry="1.168"/>
		<ellipse fill="#787878" cx="200.832" cy="47.833" rx="1.184" ry="1.168"/>
		<ellipse fill="#787878" cx="197.408" cy="47.833" rx="1.183" ry="1.168"/>
		<g>
			
				<path fill="none" stroke="#787878" stroke-width="1.8" stroke-linecap="round" stroke-linejoin="round" stroke-miterlimit="10" d="
				M233.309,42.966L225,49l-8.309-6.034c-0.42,0.358-0.691,0.886-0.691,1.484v9.1c0,1.077,0.863,1.95,1.93,1.95h14.143
				c1.064,0,1.929-0.874,1.929-1.95v-9.101C234.001,43.851,233.73,43.324,233.309,42.966z"/>
			
				<path fill="none" stroke="#787878" stroke-width="1.8" stroke-linecap="round" stroke-linejoin="round" stroke-miterlimit="10" d="
				M233.309,42.966c-0.336-0.287-0.764-0.466-1.238-0.466h-14.143c-0.473,0-0.9,0.179-1.238,0.466L225,49L233.309,42.966z"/>
		</g>
		<circle fill="#197DFD" cx="13" cy="95" r="12.5"/>
		
			<polyline fill="none" stroke="#FFFFFF" stroke-width="2" stroke-linecap="round" stroke-linejoin="round" stroke-miterlimit="10" points="
			19.25,90.625 11.125,99.375 7.375,94.688 		"/>
		<path fill="#FFFFFF" d="M31.689,64.311c0.414,0.415,0.414,1.087,0,1.501l-7.877,7.877c-0.414,0.414-1.086,0.414-1.501,0l0,0
			c-0.414-0.414-0.414-1.086,0-1.502l7.877-7.877C30.603,63.896,31.274,63.896,31.689,64.311L31.689,64.311z"/>
		<path fill="#FFFFFF" d="M22.311,64.311c-0.414,0.415-0.414,1.087,0,1.501l7.877,7.877c0.415,0.414,1.087,0.414,1.501,0l0,0
			c0.414-0.414,0.414-1.086,0-1.502l-7.878-7.877C23.397,63.896,22.725,63.896,22.311,64.311L22.311,64.311z"/>
		
			<polyline fill="none" stroke="#231F20" stroke-width="2" stroke-linecap="round" stroke-linejoin="round" stroke-miterlimit="10" points="
			124.25,15.25 119.75,10.716 124.25,6.75 		"/>
		<g>
			<path fill="#EFEEEE" d="M62.5,80.35c0,1.74-1.411,3.15-3.15,3.15h-14.7c-1.74,0-3.15-1.41-3.15-3.15v-14.7
				c0-1.74,1.41-3.15,3.15-3.15h14.7c1.739,0,3.15,1.41,3.15,3.15V80.35z"/>
			<path fill="#CCCCCC" d="M59.35,63.025c1.447,0,2.625,1.178,2.625,2.625v14.7c0,1.447-1.178,2.625-2.625,2.625h-14.7
				c-1.447,0-2.625-1.178-2.625-2.625v-14.7c0-1.447,1.178-2.625,2.625-2.625H59.35 M59.35,62.5h-14.7c-1.74,0-3.15,1.41-3.15,3.15
				v14.7c0,1.74,1.41,3.15,3.15,3.15h14.7c1.739,0,3.15-1.41,3.15-3.15v-14.7C62.5,63.91,61.089,62.5,59.35,62.5L59.35,62.5z"/>
		</g>
		
			<line fill="none" stroke="#242424" stroke-width="2" stroke-linecap="round" stroke-miterlimit="10" x1="48.325" y1="69.325" x2="55.675" y2="76.675"/>
		
			<line fill="none" stroke="#242424" stroke-width="2" stroke-linecap="round" stroke-miterlimit="10" x1="55.675" y1="69.325" x2="48.325" y2="76.675"/>
		<g>
			<path fill="#E5E5E4" d="M89.5,80.35c0,1.74-1.411,3.15-3.15,3.15h-14.7c-1.74,0-3.15-1.41-3.15-3.15v-14.7
				c0-1.74,1.41-3.15,3.15-3.15h14.7c1.739,0,3.15,1.41,3.15,3.15V80.35z"/>
			<path fill="#CCCCCC" d="M86.35,63.025c1.447,0,2.625,1.178,2.625,2.625v14.7c0,1.447-1.178,2.625-2.625,2.625h-14.7
				c-1.447,0-2.625-1.178-2.625-2.625v-14.7c0-1.447,1.178-2.625,2.625-2.625H86.35 M86.35,62.5h-14.7c-1.74,0-3.15,1.41-3.15,3.15
				v14.7c0,1.74,1.41,3.15,3.15,3.15h14.7c1.739,0,3.15-1.41,3.15-3.15v-14.7C89.5,63.91,88.089,62.5,86.35,62.5L86.35,62.5z"/>
		</g>
		
			<line fill="none" stroke="#242424" stroke-width="2" stroke-linecap="round" stroke-miterlimit="10" x1="75.325" y1="69.325" x2="82.675" y2="76.675"/>
		
			<line fill="none" stroke="#242424" stroke-width="2" stroke-linecap="round" stroke-miterlimit="10" x1="82.675" y1="69.325" x2="75.325" y2="76.675"/>
		<g>
			<path fill="#FF475D" d="M102.65,83.236c-1.592,0-2.887-1.295-2.887-2.887V65.649c0-1.592,1.295-2.888,2.887-2.888h14.7
				c1.592,0,2.887,1.296,2.887,2.888V80.35c0,1.592-1.296,2.887-2.887,2.887H102.65z"/>
			<path fill="#E73449" d="M117.35,63.025c1.447,0,2.625,1.178,2.625,2.625v14.7c0,1.447-1.178,2.625-2.625,2.625h-14.7
				c-1.447,0-2.625-1.178-2.625-2.625v-14.7c0-1.447,1.178-2.625,2.625-2.625H117.35 M117.35,62.5h-14.7
				c-1.74,0-3.15,1.41-3.15,3.15v14.7c0,1.74,1.41,3.15,3.15,3.15h14.7c1.739,0,3.15-1.41,3.15-3.15v-14.7
				C120.5,63.91,119.089,62.5,117.35,62.5L117.35,62.5z"/>
		</g>
		
			<line fill="none" stroke="#FFFFFF" stroke-width="2" stroke-linecap="round" stroke-miterlimit="10" x1="106.325" y1="69.325" x2="113.675" y2="76.675"/>
		
			<line fill="none" stroke="#FFFFFF" stroke-width="2" stroke-linecap="round" stroke-miterlimit="10" x1="113.675" y1="69.325" x2="106.325" y2="76.675"/>
		<g>
			<path fill="#E73449" d="M147.5,80.35c0,1.74-1.411,3.15-3.15,3.15h-14.7c-1.74,0-3.15-1.41-3.15-3.15v-14.7
				c0-1.74,1.41-3.15,3.15-3.15h14.7c1.739,0,3.15,1.41,3.15,3.15V80.35z"/>
		</g>
		
			<line fill="none" stroke="#FFFFFF" stroke-width="2" stroke-linecap="round" stroke-miterlimit="10" x1="133.325" y1="69.325" x2="140.675" y2="76.675"/>
		
			<line fill="none" stroke="#FFFFFF" stroke-width="2" stroke-linecap="round" stroke-miterlimit="10" x1="140.675" y1="69.325" x2="133.325" y2="76.675"/>
		<circle fill="#CCCCCC" cx="259.5" cy="97" r="12.5"/>
		<circle fill="#FF7E00" cx="286" cy="97" r="12.5"/>
		<path fill="#FFFFFF" d="M259.5,101.5c-0.256,0-0.512-0.098-0.707-0.293l-5.5-5.5c-0.391-0.391-0.391-1.023,0-1.414
			s1.023-0.391,1.414,0l4.793,4.793l4.793-4.793c0.391-0.391,1.023-0.391,1.414,0s0.391,1.023,0,1.414l-5.5,5.5
			C260.012,101.402,259.756,101.5,259.5,101.5z"/>
		<path fill="#FFFFFF" d="M286,101.5c-0.256,0-0.512-0.098-0.707-0.293l-5.5-5.5c-0.391-0.391-0.391-1.023,0-1.414
			s1.023-0.391,1.414,0L286,99.086l4.793-4.793c0.391-0.391,1.023-0.391,1.414,0s0.391,1.023,0,1.414l-5.5,5.5
			C286.512,101.402,286.256,101.5,286,101.5z"/>
		<polygon fill="#FF7E00" points="44,111 53,119 44,127 184,127 175,119 184,111 		"/>
		<g display="none">
			<path display="inline" fill="#FFFFFF" d="M59.259,108.546h-1.712v-1.649h-0.968v1.649h-1.265v0.819h1.265v3.188
				c0,1.203,0.223,1.948,1.6,1.948c0.36,0,0.794-0.062,1.129-0.211l-0.037-0.881c-0.261,0.136-0.571,0.198-0.856,0.198
				c-0.856,0-0.868-0.594-0.868-1.34v-2.902h1.712V108.546z"/>
			<path display="inline" fill="#FFFFFF" d="M64.156,112.727c-0.459,0.582-1.017,0.881-1.848,0.881
				c-1.054,0-1.824-0.856-1.898-1.861h4.689v-0.311c0-1.922-1.117-3.039-2.754-3.039c-1.712,0-2.977,1.254-2.977,3.053
				c0,1.687,1.116,3.052,2.94,3.052c1.079,0,1.898-0.321,2.58-1.203L64.156,112.727z M60.409,110.928
				c0.124-0.979,0.831-1.637,1.898-1.637s1.712,0.657,1.749,1.637H60.409z"/>
			<path display="inline" fill="#FFFFFF" d="M65.941,114.352h0.968v-9.379h-0.968V114.352z"/>
			<path display="inline" fill="#FFFFFF" d="M72.54,112.727c-0.459,0.582-1.017,0.881-1.848,0.881c-1.054,0-1.824-0.856-1.898-1.861
				h4.689v-0.311c0-1.922-1.117-3.039-2.754-3.039c-1.712,0-2.977,1.254-2.977,3.053c0,1.687,1.116,3.052,2.94,3.052
				c1.079,0,1.898-0.321,2.58-1.203L72.54,112.727z M68.794,110.928c0.124-0.979,0.831-1.637,1.898-1.637s1.712,0.657,1.749,1.637
				H68.794z"/>
			<path display="inline" fill="#FFFFFF" d="M74.859,114.352h0.968v-4.988h1.414v-0.818h-1.414v-1.092
				c0-1.005,0.037-1.737,1.042-1.737c0.223,0,0.447,0.05,0.658,0.124l0.136-0.869c-0.186-0.099-0.496-0.148-0.744-0.148
				c-1.563,0-2.059,1.005-2.059,2.419v1.302h-1.265v0.818h1.265L74.859,114.352L74.859,114.352z"/>
			<path display="inline" fill="#FFFFFF" d="M77.985,114.352h0.968v-9.379h-0.968V114.352z"/>
			<path display="inline" fill="#FFFFFF" d="M79.671,111.449c0,1.811,1.315,3.052,3.101,3.052s3.101-1.239,3.101-3.052
				c0-1.811-1.315-3.053-3.101-3.053S79.671,109.637,79.671,111.449z M80.713,111.449c0-1.217,0.806-2.158,2.059-2.158
				s2.059,0.943,2.059,2.158c0,1.216-0.806,2.158-2.059,2.158S80.713,112.664,80.713,111.449z"/>
			<path display="inline" fill="#FFFFFF" d="M86.507,114.352h0.968v-2.828c0-1.328,0.521-2.158,1.699-2.158
				c0.174,0,0.36,0.025,0.521,0.074l0.062-0.98c-0.136-0.049-0.273-0.063-0.397-0.063c-0.955,0-1.675,0.533-1.935,1.104H87.4
				c0-0.323-0.025-0.646-0.025-0.955h-0.918c0,0.386,0.05,0.843,0.05,1.377V114.352z"/>
			<path display="inline" fill="#FFFFFF" d="M90.784,109.923c0.459-0.422,1.104-0.632,1.724-0.632c0.906,0,1.439,0.434,1.439,1.277
				v0.175h-0.372c-1.427,0-3.66,0.112-3.66,2.034c0,1.129,0.98,1.724,2.159,1.724c0.881,0,1.526-0.422,1.91-1.017h0.025
				c0,0.248,0,0.607,0.062,0.867h0.93c-0.05-0.297-0.087-0.67-0.087-1.004v-2.494c0-1.637-0.719-2.455-2.431-2.455
				c-0.844,0-1.712,0.285-2.307,0.893L90.784,109.923z M93.947,111.561v0.371c-0.025,0.943-0.595,1.75-1.712,1.75
				c-0.732,0-1.278-0.273-1.278-1.006c0-0.781,0.794-1.115,2.022-1.115H93.947z"/>
		</g>
		<g display="none">
			<path display="inline" fill="#FFFFFF" d="M98.168,108.242h1.932v1.004h0.026c0.412-0.76,0.953-1.159,1.803-1.159
				c0.219,0,0.464,0.013,0.644,0.063v1.765c-0.271-0.077-0.541-0.128-0.824-0.128c-1.468,0-1.648,0.85-1.648,2.1v2.613h-1.932
				L98.168,108.242L98.168,108.242z"/>
			<path display="inline" fill="#FFFFFF" d="M108.714,113.419c-0.618,0.786-1.635,1.235-2.64,1.235
				c-1.932,0-3.477-1.287-3.477-3.283s1.545-3.284,3.477-3.284c1.803,0,2.937,1.288,2.937,3.284v0.605h-4.481
				c0.154,0.733,0.708,1.211,1.455,1.211c0.631,0,1.056-0.322,1.378-0.761L108.714,113.419z M107.079,110.663
				c0.013-0.644-0.489-1.185-1.185-1.185c-0.85,0-1.313,0.58-1.365,1.185H107.079z"/>
			<path display="inline" fill="#FFFFFF" d="M114.031,110.264c-0.193-0.271-0.554-0.477-0.953-0.477
				c-0.966,0-1.545,0.645-1.545,1.584s0.579,1.584,1.545,1.584c0.425,0,0.734-0.219,0.953-0.477l1.275,1.338
				c-0.605,0.619-1.494,0.838-2.228,0.838c-1.932,0-3.477-1.288-3.477-3.284s1.545-3.284,3.477-3.284
				c0.734,0,1.623,0.219,2.228,0.837L114.031,110.264z"/>
			<path display="inline" fill="#FFFFFF" d="M118.859,108.088c1.932,0,3.478,1.288,3.478,3.284s-1.545,3.284-3.478,3.284
				c-1.932,0-3.477-1.288-3.477-3.284S116.927,108.088,118.859,108.088z M118.859,112.956c0.966,0,1.545-0.644,1.545-1.584
				s-0.579-1.584-1.545-1.584c-0.966,0-1.545,0.644-1.545,1.584S117.893,112.956,118.859,112.956z"/>
			<path display="inline" fill="#FFFFFF" d="M123.081,108.242h1.854v0.85h0.026c0.257-0.488,0.888-1.004,1.829-1.004
				c0.875,0,1.597,0.361,1.932,1.121c0.451-0.798,1.056-1.121,1.983-1.121c1.7,0,2.215,1.198,2.215,2.717v3.696h-1.932v-3.646
				c0-0.58-0.219-1.068-0.85-1.068c-0.888,0-1.172,0.631-1.172,1.404v3.31h-1.932v-3.31c0-0.465,0.026-1.404-0.863-1.404
				c-1.004,0-1.159,0.786-1.159,1.597v3.117h-1.932L123.081,108.242L123.081,108.242z"/>
			<path display="inline" fill="#FFFFFF" d="M133.896,108.242h1.854v0.85h0.026c0.257-0.488,0.889-1.004,1.829-1.004
				c0.875,0,1.597,0.361,1.932,1.121c0.451-0.798,1.056-1.121,1.983-1.121c1.7,0,2.215,1.198,2.215,2.717v3.696h-1.932v-3.646
				c0-0.58-0.219-1.068-0.85-1.068c-0.889,0-1.172,0.631-1.172,1.404v3.31h-1.932v-3.31c0-0.465,0.026-1.404-0.863-1.404
				c-1.004,0-1.159,0.786-1.159,1.597v3.117h-1.932L133.896,108.242L133.896,108.242z"/>
			<path display="inline" fill="#FFFFFF" d="M150.635,113.419c-0.618,0.786-1.635,1.235-2.64,1.235
				c-1.932,0-3.478-1.287-3.478-3.283s1.545-3.284,3.478-3.284c1.803,0,2.936,1.288,2.936,3.284v0.605h-4.482
				c0.155,0.733,0.708,1.211,1.456,1.211c0.631,0,1.056-0.322,1.378-0.761L150.635,113.419z M148.999,110.663
				c0.013-0.644-0.49-1.185-1.185-1.185c-0.85,0-1.313,0.58-1.365,1.185H148.999z"/>
			<path display="inline" fill="#FFFFFF" d="M151.715,108.242h1.854v0.85h0.027c0.256-0.488,0.887-1.004,1.828-1.004
				c1.958,0,2.318,1.288,2.318,2.962v3.451h-1.932v-3.065c0-0.721-0.014-1.647-1.004-1.647c-1.005,0-1.16,0.786-1.16,1.597v3.117
				h-1.932V108.242L151.715,108.242z"/>
			<path display="inline" fill="#FFFFFF" d="M165.286,114.501h-1.777v-0.824h-0.024c-0.297,0.451-1.043,0.979-1.92,0.979
				c-1.854,0-3.078-1.34-3.078-3.232c0-1.738,1.082-3.335,2.859-3.335c0.799,0,1.545,0.22,1.983,0.824h0.026v-4.147h1.932
				L165.286,114.501L165.286,114.501z M161.964,109.788c-0.966,0-1.545,0.644-1.545,1.584s0.58,1.584,1.545,1.584
				c0.966,0,1.545-0.644,1.545-1.584S162.93,109.788,161.964,109.788z"/>
			<path display="inline" fill="#FFFFFF" d="M169.984,110.084c-0.282-0.348-0.656-0.527-1.121-0.527
				c-0.321,0-0.707,0.142-0.707,0.514c0,0.928,3.258,0.143,3.258,2.525c0,1.596-1.545,2.061-2.885,2.061
				c-0.877,0-1.842-0.219-2.461-0.85l1.173-1.302c0.36,0.438,0.786,0.683,1.364,0.683c0.438,0,0.875-0.115,0.875-0.451
				c0-1.004-3.258-0.154-3.258-2.536c0-1.468,1.314-2.112,2.627-2.112c0.824,0,1.739,0.206,2.318,0.824L169.984,110.084z"/>
		</g>
		<g display="none">
			<path display="inline" fill="#FFFFFF" d="M54.851,109.965v-1.224h1.188v-1.668h1.44v1.668h1.584v1.224h-1.584v2.521
				c0,0.287,0.054,0.516,0.162,0.684s0.322,0.252,0.642,0.252c0.128,0,0.268-0.014,0.42-0.042c0.152-0.028,0.272-0.073,0.36-0.138
				v1.212c-0.152,0.071-0.338,0.122-0.558,0.149c-0.22,0.027-0.414,0.041-0.582,0.041c-0.384,0-0.698-0.041-0.942-0.125
				s-0.436-0.213-0.576-0.385c-0.14-0.172-0.236-0.386-0.288-0.642c-0.052-0.257-0.078-0.552-0.078-0.89v-2.64L54.851,109.965
				L54.851,109.965z"/>
			<path display="inline" fill="#FFFFFF" d="M60.533,112.125c0.048,0.432,0.216,0.768,0.504,1.008s0.636,0.36,1.044,0.36
				c0.36,0,0.662-0.074,0.906-0.224c0.244-0.146,0.458-0.332,0.642-0.558l1.032,0.78c-0.336,0.416-0.712,0.712-1.128,0.888
				c-0.416,0.177-0.852,0.265-1.308,0.265c-0.432,0-0.84-0.071-1.224-0.217c-0.384-0.144-0.716-0.348-0.996-0.611
				c-0.28-0.265-0.502-0.582-0.666-0.953c-0.164-0.372-0.246-0.786-0.246-1.242s0.082-0.87,0.246-1.242s0.386-0.689,0.666-0.954
				c0.28-0.264,0.612-0.468,0.996-0.612c0.384-0.144,0.792-0.215,1.224-0.215c0.4,0,0.766,0.069,1.098,0.209
				c0.332,0.142,0.616,0.344,0.852,0.606c0.236,0.263,0.42,0.59,0.552,0.978c0.132,0.389,0.198,0.834,0.198,1.338v0.396H60.533z
				 M63.485,111.045c-0.008-0.424-0.14-0.758-0.396-1.002c-0.256-0.244-0.612-0.366-1.068-0.366c-0.432,0-0.774,0.124-1.026,0.372
				s-0.406,0.58-0.462,0.996H63.485z"/>
			<path display="inline" fill="#FFFFFF" d="M65.6,105.43h1.44v9.071H65.6V105.43z"/>
			<path display="inline" fill="#FFFFFF" d="M69.154,112.125c0.048,0.432,0.216,0.768,0.504,1.008c0.288,0.24,0.636,0.36,1.044,0.36
				c0.36,0,0.662-0.074,0.906-0.224c0.244-0.146,0.458-0.332,0.642-0.558l1.032,0.78c-0.336,0.416-0.712,0.712-1.128,0.888
				c-0.416,0.177-0.852,0.265-1.308,0.265c-0.432,0-0.84-0.071-1.224-0.217c-0.384-0.144-0.716-0.348-0.996-0.611
				c-0.28-0.265-0.502-0.582-0.666-0.953c-0.164-0.372-0.246-0.786-0.246-1.242s0.082-0.87,0.246-1.242s0.386-0.689,0.666-0.954
				c0.28-0.264,0.612-0.468,0.996-0.612c0.384-0.144,0.792-0.215,1.224-0.215c0.4,0,0.766,0.069,1.098,0.209
				c0.332,0.142,0.616,0.344,0.852,0.606c0.236,0.263,0.42,0.59,0.552,0.978c0.132,0.389,0.198,0.834,0.198,1.338v0.396H69.154z
				 M72.106,111.045c-0.008-0.424-0.14-0.758-0.396-1.002s-0.612-0.366-1.068-0.366c-0.432,0-0.774,0.124-1.026,0.372
				c-0.252,0.248-0.406,0.58-0.462,0.996H72.106z"/>
			<path display="inline" fill="#FFFFFF" d="M74.712,109.965h-1.188v-1.224h1.188v-0.816c0-0.399,0.028-0.762,0.084-1.086
				c0.056-0.323,0.162-0.603,0.318-0.834c0.156-0.231,0.374-0.409,0.654-0.534c0.28-0.123,0.644-0.186,1.092-0.186
				c0.328,0,0.632,0.027,0.912,0.084l-0.096,1.224c-0.104-0.022-0.204-0.044-0.3-0.06c-0.096-0.018-0.196-0.024-0.3-0.024
				c-0.2,0-0.36,0.032-0.48,0.097c-0.12,0.063-0.214,0.149-0.282,0.259c-0.068,0.106-0.112,0.233-0.132,0.378
				s-0.03,0.296-0.03,0.456v1.044h1.332v1.224h-1.332v4.536h-1.44V109.965z"/>
			<path display="inline" fill="#FFFFFF" d="M77.888,105.43h1.44v9.071h-1.44V105.43z"/>
			<path display="inline" fill="#FFFFFF" d="M80.002,111.621c0-0.456,0.082-0.87,0.246-1.242s0.386-0.689,0.666-0.954
				c0.28-0.264,0.612-0.468,0.996-0.612c0.384-0.144,0.792-0.215,1.224-0.215c0.432,0,0.84,0.071,1.224,0.215
				c0.384,0.146,0.716,0.35,0.996,0.612c0.28,0.265,0.502,0.582,0.666,0.954s0.246,0.786,0.246,1.242s-0.082,0.87-0.246,1.242
				c-0.164,0.371-0.386,0.688-0.666,0.953s-0.612,0.469-0.996,0.611c-0.384,0.146-0.792,0.217-1.224,0.217
				c-0.432,0-0.84-0.071-1.224-0.217c-0.384-0.144-0.716-0.348-0.996-0.611c-0.28-0.265-0.502-0.582-0.666-0.953
				C80.084,112.491,80.002,112.077,80.002,111.621z M81.442,111.621c0,0.225,0.038,0.439,0.114,0.646
				c0.076,0.209,0.188,0.394,0.336,0.553c0.148,0.16,0.326,0.289,0.534,0.385s0.444,0.145,0.708,0.145
				c0.264,0,0.5-0.049,0.708-0.145s0.386-0.225,0.534-0.385c0.148-0.159,0.26-0.344,0.336-0.553
				c0.076-0.207,0.114-0.424,0.114-0.646s-0.038-0.439-0.114-0.648c-0.076-0.207-0.188-0.392-0.336-0.552s-0.326-0.288-0.534-0.384
				s-0.444-0.145-0.708-0.145c-0.264,0-0.5,0.049-0.708,0.145s-0.386,0.224-0.534,0.384s-0.26,0.345-0.336,0.552
				C81.48,111.182,81.442,111.396,81.442,111.621z"/>
			<path display="inline" fill="#FFFFFF" d="M86.896,108.741h1.44v0.911h0.024c0.16-0.336,0.388-0.596,0.684-0.779
				s0.636-0.275,1.02-0.275c0.088,0,0.174,0.008,0.258,0.023c0.084,0.016,0.17,0.036,0.258,0.061v1.393
				c-0.121-0.032-0.239-0.059-0.354-0.078c-0.116-0.02-0.23-0.03-0.342-0.03c-0.336,0-0.606,0.062-0.81,0.187
				c-0.204,0.125-0.36,0.267-0.468,0.427c-0.108,0.159-0.18,0.319-0.216,0.479c-0.036,0.159-0.054,0.279-0.054,0.359v3.084h-1.44
				V108.741z"/>
			<path display="inline" fill="#FFFFFF" d="M94.463,113.709h-0.036c-0.208,0.328-0.472,0.566-0.792,0.714
				c-0.32,0.147-0.672,0.222-1.056,0.222c-0.265,0-0.522-0.035-0.774-0.106c-0.252-0.072-0.476-0.181-0.672-0.324
				c-0.196-0.144-0.354-0.323-0.475-0.54c-0.119-0.216-0.18-0.468-0.18-0.756c0-0.313,0.057-0.578,0.168-0.798
				c0.112-0.22,0.262-0.404,0.45-0.552c0.188-0.148,0.406-0.268,0.654-0.354s0.506-0.153,0.773-0.198
				c0.269-0.043,0.538-0.07,0.811-0.084c0.271-0.012,0.528-0.018,0.768-0.018h0.36v-0.156c0-0.359-0.124-0.63-0.372-0.81
				c-0.248-0.181-0.563-0.271-0.948-0.271c-0.304,0-0.588,0.056-0.852,0.162c-0.264,0.108-0.492,0.254-0.685,0.438l-0.755-0.758
				c0.319-0.326,0.693-0.563,1.121-0.707c0.428-0.145,0.87-0.217,1.326-0.217c0.408,0,0.752,0.047,1.032,0.139
				c0.279,0.093,0.512,0.211,0.696,0.354c0.184,0.146,0.325,0.312,0.426,0.498c0.1,0.188,0.172,0.378,0.216,0.57
				c0.044,0.19,0.07,0.378,0.078,0.558c0.008,0.18,0.012,0.338,0.012,0.475v3.313h-1.296v-0.793H94.463z M94.379,111.921h-0.3
				c-0.2,0-0.425,0.009-0.672,0.024c-0.248,0.016-0.482,0.054-0.702,0.113c-0.221,0.061-0.406,0.147-0.559,0.265
				c-0.151,0.116-0.228,0.276-0.228,0.485c0,0.137,0.03,0.25,0.09,0.342c0.061,0.093,0.138,0.17,0.234,0.233
				c0.096,0.064,0.204,0.11,0.323,0.14c0.12,0.026,0.24,0.041,0.36,0.041c0.496,0,0.862-0.117,1.098-0.354
				c0.236-0.234,0.354-0.559,0.354-0.966v-0.324H94.379z"/>
		</g>
		<g>
			<path fill="#FFFFFF" d="M63.605,117.874h-1.563v1.918c0,0.158,0.008,0.302,0.024,0.433s0.051,0.242,0.107,0.338
				c0.055,0.095,0.14,0.168,0.255,0.219c0.114,0.051,0.266,0.076,0.456,0.076c0.095,0,0.219-0.01,0.373-0.028
				c0.154-0.021,0.27-0.065,0.349-0.138v1.48c-0.197,0.071-0.403,0.118-0.616,0.143c-0.213,0.023-0.422,0.035-0.628,0.035
				c-0.3,0-0.576-0.031-0.829-0.095c-0.252-0.063-0.473-0.164-0.663-0.301c-0.189-0.138-0.337-0.317-0.444-0.539
				c-0.107-0.22-0.16-0.489-0.16-0.806v-2.734h-1.137v-1.42h1.137v-1.705h1.776v1.705h1.563V117.874z"/>
			<path fill="#FFFFFF" d="M69.232,121.213c-0.284,0.363-0.643,0.645-1.077,0.842c-0.434,0.197-0.884,0.295-1.35,0.295
				c-0.442,0-0.858-0.07-1.249-0.213c-0.391-0.142-0.73-0.345-1.018-0.609c-0.288-0.264-0.515-0.582-0.681-0.953
				s-0.249-0.785-0.249-1.243c0-0.457,0.083-0.872,0.249-1.243s0.393-0.689,0.681-0.953s0.628-0.467,1.018-0.609
				c0.39-0.142,0.806-0.213,1.249-0.213c0.41,0,0.783,0.071,1.119,0.213c0.335,0.143,0.619,0.346,0.852,0.609
				s0.412,0.582,0.539,0.953c0.126,0.372,0.189,0.786,0.189,1.243v0.556h-4.12c0.071,0.34,0.225,0.61,0.461,0.811
				c0.237,0.201,0.529,0.302,0.876,0.302c0.292,0,0.539-0.065,0.74-0.194c0.201-0.131,0.377-0.299,0.527-0.505L69.232,121.213z
				 M67.728,118.68c0.008-0.301-0.091-0.557-0.296-0.771s-0.469-0.32-0.793-0.32c-0.197,0-0.371,0.032-0.521,0.095
				c-0.15,0.064-0.278,0.146-0.385,0.243c-0.107,0.099-0.189,0.214-0.248,0.343c-0.059,0.131-0.093,0.267-0.101,0.408L67.728,118.68
				L67.728,118.68z"/>
			<path fill="#FFFFFF" d="M69.946,113.258h1.776v8.95h-1.776V113.258z"/>
			<path fill="#FFFFFF" d="M77.757,121.213c-0.284,0.363-0.643,0.645-1.077,0.842s-0.884,0.295-1.35,0.295
				c-0.442,0-0.858-0.07-1.249-0.213c-0.391-0.142-0.73-0.345-1.018-0.609c-0.288-0.264-0.515-0.582-0.681-0.953
				s-0.249-0.785-0.249-1.243c0-0.457,0.083-0.872,0.249-1.243s0.393-0.689,0.681-0.953s0.628-0.467,1.018-0.609
				c0.39-0.142,0.806-0.213,1.249-0.213c0.41,0,0.783,0.071,1.119,0.213c0.335,0.143,0.619,0.346,0.852,0.609
				c0.233,0.264,0.412,0.582,0.539,0.953c0.126,0.372,0.189,0.786,0.189,1.243v0.556h-4.12c0.071,0.34,0.225,0.61,0.461,0.811
				c0.237,0.201,0.529,0.302,0.876,0.302c0.292,0,0.539-0.065,0.74-0.194c0.201-0.131,0.377-0.299,0.527-0.505L77.757,121.213z
				 M76.253,118.68c0.008-0.301-0.091-0.557-0.296-0.771s-0.469-0.32-0.793-0.32c-0.197,0-0.371,0.032-0.521,0.095
				c-0.15,0.064-0.278,0.146-0.385,0.243c-0.107,0.099-0.189,0.214-0.248,0.343c-0.059,0.131-0.093,0.267-0.101,0.408L76.253,118.68
				L76.253,118.68z"/>
			<path fill="#FFFFFF" d="M79.033,117.874h-1.172v-1.42h1.172v-1.019c0-0.315,0.027-0.613,0.083-0.894
				c0.055-0.28,0.162-0.526,0.32-0.74c0.158-0.213,0.385-0.381,0.681-0.504c0.296-0.122,0.684-0.183,1.166-0.183
				c0.182,0,0.359,0.008,0.533,0.023c0.174,0.016,0.343,0.045,0.509,0.084l-0.083,1.504c-0.102-0.041-0.197-0.069-0.284-0.09
				c-0.087-0.019-0.185-0.029-0.296-0.029c-0.284,0-0.497,0.062-0.639,0.184c-0.142,0.123-0.213,0.373-0.213,0.752v0.912h1.314v1.42
				H80.81v4.333h-1.776L79.033,117.874L79.033,117.874L79.033,117.874z M82.821,113.258h1.776v8.95h-1.776V113.258z"/>
			<path fill="#FFFFFF" d="M84.973,119.331c0-0.457,0.083-0.872,0.249-1.243s0.393-0.689,0.681-0.953
				c0.288-0.264,0.628-0.467,1.018-0.609c0.39-0.142,0.806-0.213,1.249-0.213s0.858,0.071,1.249,0.213
				c0.391,0.143,0.73,0.346,1.018,0.609s0.515,0.582,0.681,0.953c0.166,0.372,0.249,0.786,0.249,1.243
				c0,0.458-0.083,0.872-0.249,1.243s-0.393,0.689-0.681,0.953c-0.288,0.265-0.628,0.468-1.018,0.609
				c-0.391,0.143-0.807,0.213-1.249,0.213s-0.858-0.07-1.249-0.213c-0.391-0.142-0.73-0.345-1.018-0.609
				c-0.288-0.264-0.515-0.582-0.681-0.953S84.973,119.789,84.973,119.331z M86.749,119.331c0,0.435,0.124,0.786,0.372,1.054
				c0.249,0.27,0.598,0.403,1.048,0.403s0.799-0.134,1.048-0.403c0.249-0.268,0.373-0.619,0.373-1.054s-0.124-0.785-0.373-1.054
				s-0.598-0.403-1.048-0.403s-0.799,0.135-1.048,0.403C86.874,118.545,86.749,118.896,86.749,119.331z"/>
			<path fill="#FFFFFF" d="M91.735,116.454h1.776v0.923h0.024c0.189-0.354,0.414-0.621,0.674-0.799
				c0.26-0.178,0.588-0.266,0.983-0.266c0.102,0,0.205,0.004,0.308,0.012c0.102,0.007,0.197,0.023,0.284,0.047v1.621
				c-0.126-0.039-0.25-0.068-0.373-0.088c-0.122-0.021-0.25-0.03-0.385-0.03c-0.339,0-0.608,0.047-0.805,0.142
				c-0.197,0.096-0.349,0.229-0.456,0.397s-0.175,0.372-0.207,0.608c-0.032,0.237-0.047,0.498-0.047,0.781v2.403h-1.776V116.454z"/>
			<path fill="#FFFFFF" d="M99.41,121.484h-0.024c-0.197,0.309-0.46,0.529-0.787,0.664c-0.327,0.134-0.673,0.201-1.036,0.201
				c-0.269,0-0.527-0.037-0.775-0.113c-0.249-0.075-0.468-0.188-0.657-0.338c-0.189-0.148-0.34-0.334-0.45-0.556
				c-0.111-0.22-0.166-0.477-0.166-0.77c0-0.332,0.061-0.611,0.184-0.841c0.122-0.229,0.288-0.418,0.497-0.568
				c0.209-0.148,0.448-0.266,0.716-0.35c0.268-0.082,0.546-0.144,0.834-0.184c0.288-0.039,0.576-0.063,0.864-0.07
				s0.555-0.013,0.799-0.013c0-0.315-0.112-0.565-0.337-0.751c-0.225-0.186-0.491-0.279-0.799-0.279
				c-0.292,0-0.558,0.063-0.799,0.185c-0.241,0.122-0.456,0.29-0.645,0.503l-0.947-0.971c0.332-0.308,0.718-0.539,1.16-0.692
				s0.899-0.229,1.373-0.229c0.521,0,0.949,0.064,1.285,0.194s0.604,0.321,0.805,0.575c0.201,0.252,0.341,0.563,0.42,0.93
				c0.079,0.366,0.118,0.79,0.118,1.271v2.924h-1.634L99.41,121.484L99.41,121.484z M98.972,119.686
				c-0.134,0-0.302,0.006-0.503,0.019c-0.201,0.012-0.395,0.046-0.58,0.101s-0.343,0.137-0.473,0.248s-0.195,0.266-0.195,0.463
				c0,0.213,0.091,0.371,0.272,0.473c0.181,0.104,0.371,0.154,0.568,0.154c0.174,0,0.342-0.023,0.503-0.07
				c0.162-0.047,0.306-0.114,0.432-0.201s0.227-0.197,0.302-0.332c0.075-0.135,0.112-0.291,0.112-0.475v-0.379H98.972z"/>
			<path fill="#FFFFFF" d="M104.193,116.454h1.776v0.923h0.024c0.189-0.354,0.414-0.621,0.674-0.799s0.588-0.266,0.983-0.266
				c0.102,0,0.205,0.004,0.308,0.012c0.102,0.007,0.197,0.023,0.284,0.047v1.621c-0.126-0.039-0.25-0.068-0.373-0.088
				c-0.122-0.021-0.25-0.03-0.385-0.03c-0.339,0-0.608,0.047-0.805,0.142c-0.197,0.096-0.349,0.229-0.456,0.397
				s-0.175,0.372-0.207,0.608c-0.032,0.237-0.047,0.498-0.047,0.781v2.403h-1.776V116.454z"/>
			<path fill="#FFFFFF" d="M113.733,121.213c-0.284,0.363-0.643,0.645-1.077,0.842c-0.434,0.197-0.884,0.295-1.35,0.295
				c-0.442,0-0.858-0.07-1.249-0.213c-0.391-0.142-0.73-0.345-1.018-0.609c-0.288-0.264-0.515-0.582-0.681-0.953
				s-0.249-0.785-0.249-1.243c0-0.457,0.083-0.872,0.249-1.243s0.393-0.689,0.681-0.953s0.628-0.467,1.018-0.609
				c0.39-0.142,0.806-0.213,1.249-0.213c0.41,0,0.783,0.071,1.119,0.213c0.335,0.143,0.619,0.346,0.852,0.609
				s0.412,0.582,0.539,0.953c0.126,0.372,0.189,0.786,0.189,1.243v0.556h-4.12c0.071,0.34,0.225,0.61,0.461,0.811
				c0.237,0.201,0.529,0.302,0.876,0.302c0.292,0,0.539-0.065,0.74-0.194c0.201-0.131,0.377-0.299,0.527-0.505L113.733,121.213z
				 M112.229,118.68c0.008-0.301-0.091-0.557-0.296-0.771s-0.469-0.32-0.793-0.32c-0.197,0-0.371,0.032-0.521,0.095
				c-0.15,0.064-0.278,0.146-0.385,0.243c-0.107,0.099-0.189,0.214-0.248,0.343c-0.059,0.131-0.093,0.267-0.101,0.408
				L112.229,118.68L112.229,118.68z"/>
			<path fill="#FFFFFF" d="M118.227,118.313c-0.087-0.127-0.209-0.23-0.367-0.313c-0.158-0.083-0.327-0.125-0.509-0.125
				c-0.45,0-0.799,0.135-1.048,0.403c-0.248,0.269-0.372,0.619-0.372,1.054s0.124,0.786,0.372,1.054
				c0.249,0.27,0.598,0.403,1.048,0.403c0.197,0,0.367-0.043,0.509-0.13c0.142-0.088,0.265-0.189,0.367-0.309l1.172,1.231
				c-0.276,0.284-0.602,0.483-0.977,0.599c-0.375,0.113-0.732,0.17-1.071,0.17c-0.442,0-0.858-0.07-1.249-0.213
				c-0.391-0.142-0.73-0.345-1.018-0.609c-0.288-0.264-0.515-0.582-0.681-0.953s-0.249-0.785-0.249-1.243
				c0-0.457,0.083-0.872,0.249-1.243s0.393-0.689,0.681-0.953s0.628-0.467,1.018-0.609c0.39-0.142,0.806-0.213,1.249-0.213
				c0.339,0,0.697,0.058,1.071,0.172c0.375,0.115,0.7,0.313,0.977,0.598L118.227,118.313z"/>
			<path fill="#FFFFFF" d="M118.986,119.331c0-0.457,0.083-0.872,0.249-1.243s0.393-0.689,0.681-0.953s0.628-0.467,1.018-0.609
				c0.39-0.142,0.806-0.213,1.249-0.213s0.858,0.071,1.249,0.213c0.391,0.143,0.73,0.346,1.018,0.609
				c0.288,0.264,0.515,0.582,0.681,0.953c0.166,0.372,0.249,0.786,0.249,1.243c0,0.458-0.083,0.872-0.249,1.243
				s-0.393,0.689-0.681,0.953c-0.288,0.265-0.628,0.468-1.018,0.609c-0.391,0.143-0.807,0.213-1.249,0.213s-0.858-0.07-1.249-0.213
				c-0.391-0.142-0.73-0.345-1.018-0.609c-0.288-0.264-0.515-0.582-0.681-0.953S118.986,119.789,118.986,119.331z M120.762,119.331
				c0,0.435,0.124,0.786,0.372,1.054c0.249,0.27,0.598,0.403,1.048,0.403c0.45,0,0.799-0.134,1.048-0.403
				c0.249-0.268,0.373-0.619,0.373-1.054s-0.124-0.785-0.373-1.054s-0.598-0.403-1.048-0.403c-0.45,0-0.799,0.135-1.048,0.403
				C120.886,118.545,120.762,118.896,120.762,119.331z"/>
			<path fill="#FFFFFF" d="M125.748,116.454h1.705v0.78h0.024c0.055-0.11,0.134-0.221,0.236-0.332
				c0.103-0.11,0.225-0.209,0.367-0.295c0.142-0.088,0.304-0.158,0.485-0.213c0.182-0.057,0.379-0.084,0.592-0.084
				c0.403,0,0.76,0.084,1.072,0.25c0.311,0.166,0.546,0.426,0.704,0.78c0.205-0.37,0.454-0.635,0.746-0.792
				c0.292-0.158,0.651-0.236,1.077-0.236c0.387,0,0.712,0.064,0.977,0.194s0.474,0.308,0.628,0.533
				c0.154,0.226,0.265,0.489,0.332,0.793s0.101,0.629,0.101,0.976v3.398h-1.776v-3.352c0-0.268-0.057-0.498-0.172-0.691
				c-0.115-0.193-0.317-0.291-0.609-0.291c-0.205,0-0.377,0.034-0.515,0.102c-0.138,0.066-0.249,0.158-0.332,0.277
				c-0.083,0.118-0.142,0.257-0.178,0.414c-0.036,0.158-0.053,0.324-0.053,0.497v3.043h-1.776v-3.043
				c0-0.103-0.004-0.229-0.012-0.379s-0.036-0.291-0.083-0.427c-0.047-0.133-0.124-0.248-0.231-0.342
				c-0.107-0.096-0.262-0.143-0.468-0.143c-0.229,0-0.414,0.042-0.556,0.125c-0.142,0.083-0.25,0.193-0.326,0.332
				c-0.075,0.138-0.124,0.294-0.148,0.467c-0.024,0.174-0.036,0.355-0.036,0.545v2.865h-1.776L125.748,116.454L125.748,116.454z"/>
			<path fill="#FFFFFF" d="M135.425,116.454h1.705v0.78h0.024c0.055-0.11,0.134-0.221,0.236-0.332
				c0.103-0.11,0.225-0.209,0.367-0.295c0.142-0.088,0.304-0.158,0.485-0.213c0.182-0.057,0.379-0.084,0.592-0.084
				c0.403,0,0.76,0.084,1.072,0.25c0.311,0.166,0.546,0.426,0.704,0.78c0.205-0.37,0.454-0.635,0.746-0.792
				c0.292-0.158,0.651-0.236,1.077-0.236c0.387,0,0.712,0.064,0.977,0.194c0.265,0.13,0.474,0.308,0.628,0.533
				c0.154,0.226,0.265,0.489,0.332,0.793s0.101,0.629,0.101,0.976v3.398h-1.776v-3.352c0-0.268-0.057-0.498-0.172-0.691
				c-0.114-0.193-0.317-0.291-0.609-0.291c-0.205,0-0.377,0.034-0.515,0.102c-0.138,0.066-0.249,0.158-0.332,0.277
				c-0.083,0.118-0.142,0.257-0.178,0.414c-0.036,0.158-0.053,0.324-0.053,0.497v3.043h-1.776v-3.043
				c0-0.103-0.004-0.229-0.012-0.379c-0.008-0.149-0.036-0.291-0.083-0.427c-0.047-0.133-0.124-0.248-0.231-0.342
				c-0.107-0.095-0.262-0.143-0.468-0.143c-0.229,0-0.414,0.042-0.556,0.125s-0.25,0.193-0.326,0.332
				c-0.075,0.138-0.124,0.294-0.148,0.467c-0.024,0.174-0.036,0.355-0.036,0.545v2.865h-1.776L135.425,116.454L135.425,116.454z"/>
			<path fill="#FFFFFF" d="M150.458,121.213c-0.284,0.363-0.643,0.645-1.077,0.842s-0.883,0.295-1.35,0.295
				c-0.443,0-0.859-0.07-1.249-0.213c-0.391-0.142-0.73-0.345-1.018-0.609c-0.288-0.264-0.515-0.582-0.681-0.953
				s-0.249-0.785-0.249-1.243c0-0.457,0.083-0.872,0.249-1.243s0.393-0.689,0.681-0.953c0.288-0.264,0.628-0.467,1.018-0.609
				c0.39-0.142,0.806-0.213,1.249-0.213c0.41,0,0.783,0.071,1.118,0.213c0.335,0.143,0.619,0.346,0.852,0.609
				s0.413,0.582,0.539,0.953c0.126,0.372,0.189,0.786,0.189,1.243v0.556h-4.12c0.071,0.34,0.225,0.61,0.461,0.811
				c0.237,0.201,0.529,0.302,0.876,0.302c0.293,0,0.539-0.065,0.741-0.194c0.2-0.131,0.377-0.299,0.526-0.505L150.458,121.213z
				 M148.956,118.68c0.007-0.301-0.091-0.557-0.295-0.771c-0.206-0.214-0.47-0.32-0.795-0.32c-0.197,0-0.371,0.032-0.521,0.095
				c-0.15,0.064-0.278,0.146-0.385,0.243c-0.107,0.099-0.189,0.214-0.248,0.343c-0.059,0.131-0.093,0.267-0.101,0.408
				L148.956,118.68L148.956,118.68z"/>
			<path fill="#FFFFFF" d="M151.15,116.454h1.705v0.78h0.024c0.056-0.11,0.134-0.221,0.237-0.332
				c0.102-0.11,0.225-0.209,0.367-0.295c0.142-0.088,0.303-0.158,0.484-0.213c0.182-0.057,0.379-0.084,0.592-0.084
				c0.451,0,0.813,0.069,1.088,0.207c0.277,0.139,0.492,0.33,0.646,0.575c0.154,0.244,0.26,0.532,0.313,0.863
				c0.057,0.332,0.084,0.69,0.084,1.077v3.173h-1.775v-2.817c0-0.166-0.006-0.338-0.018-0.516s-0.047-0.342-0.107-0.492
				c-0.059-0.148-0.15-0.271-0.271-0.367c-0.123-0.095-0.299-0.142-0.526-0.142c-0.229,0-0.414,0.042-0.556,0.125
				c-0.143,0.083-0.252,0.192-0.326,0.332c-0.075,0.138-0.125,0.294-0.148,0.467c-0.023,0.175-0.036,0.354-0.036,0.545v2.865h-1.776
				V116.454z"/>
			<path fill="#FFFFFF" d="M163.305,122.208h-1.634v-0.758h-0.024c-0.07,0.103-0.162,0.208-0.277,0.313
				c-0.115,0.107-0.249,0.203-0.403,0.291c-0.153,0.086-0.323,0.157-0.509,0.213c-0.186,0.055-0.377,0.082-0.574,0.082
				c-0.426,0-0.813-0.072-1.16-0.219s-0.646-0.352-0.894-0.615c-0.249-0.266-0.44-0.578-0.574-0.942
				c-0.135-0.362-0.2-0.761-0.2-1.196c0-0.402,0.061-0.787,0.182-1.154c0.123-0.367,0.297-0.693,0.521-0.976
				c0.225-0.284,0.499-0.511,0.823-0.681c0.323-0.17,0.69-0.254,1.101-0.254c0.371,0,0.717,0.057,1.036,0.17
				c0.32,0.115,0.582,0.311,0.788,0.588h0.023v-3.813h1.775V122.208L163.305,122.208z M161.671,119.331
				c0-0.435-0.124-0.785-0.372-1.054c-0.249-0.269-0.597-0.403-1.047-0.403c-0.449,0-0.8,0.135-1.048,0.403
				c-0.249,0.269-0.372,0.619-0.372,1.054s0.124,0.786,0.372,1.054c0.249,0.27,0.599,0.403,1.048,0.403
				c0.45,0,0.799-0.134,1.047-0.403C161.547,120.117,161.671,119.766,161.671,119.331z"/>
			<path fill="#FFFFFF" d="M167.264,118.146c-0.26-0.322-0.604-0.484-1.029-0.484c-0.15,0-0.297,0.036-0.438,0.107
				c-0.142,0.07-0.213,0.193-0.213,0.367c0,0.141,0.073,0.246,0.219,0.313c0.147,0.067,0.332,0.127,0.556,0.178
				c0.226,0.052,0.466,0.106,0.723,0.166s0.497,0.151,0.722,0.278c0.226,0.127,0.411,0.299,0.556,0.515
				c0.146,0.218,0.22,0.507,0.22,0.87c0,0.372-0.08,0.677-0.242,0.918c-0.162,0.24-0.369,0.434-0.621,0.58
				c-0.253,0.146-0.537,0.249-0.853,0.307c-0.315,0.059-0.627,0.09-0.935,0.09c-0.403,0-0.81-0.058-1.219-0.172
				c-0.411-0.115-0.758-0.318-1.042-0.609l1.077-1.196c0.166,0.206,0.349,0.362,0.55,0.468c0.201,0.107,0.436,0.159,0.705,0.159
				c0.205,0,0.391-0.028,0.557-0.088c0.164-0.06,0.248-0.168,0.248-0.326c0-0.149-0.074-0.262-0.219-0.337
				c-0.146-0.076-0.332-0.139-0.557-0.189c-0.225-0.052-0.465-0.106-0.721-0.166c-0.257-0.059-0.498-0.147-0.723-0.267
				c-0.225-0.118-0.41-0.286-0.557-0.503c-0.146-0.217-0.219-0.507-0.219-0.871c0-0.339,0.069-0.631,0.207-0.876
				c0.139-0.244,0.32-0.444,0.545-0.603c0.226-0.158,0.484-0.274,0.776-0.351c0.291-0.075,0.587-0.112,0.888-0.112
				c0.379,0,0.762,0.056,1.148,0.166c0.386,0.11,0.714,0.309,0.982,0.592L167.264,118.146z"/>
		</g>
		<path fill="#787878" d="M218.803,119.177h-2.5c-2.24,0-6-1.169-6-9s3.76-9,6-9h2.5c0.553,0,1,0.448,1,1v5.5c0,0.552-0.447,1-1,1
			h-2.5c-0.303,0.028-0.667,0.438-0.667,1.5s0.363,1.472,0.703,1.501l2.464-0.001c0.553,0,1,0.448,1,1v5.5
			C219.803,118.729,219.355,119.177,218.803,119.177z M216.303,103.177c-1.824,0-4,1.214-4,7c0,3.193,0.694,7,4,7h1.5v-3.5h-1.5
			c-0.922,0-2.667-0.731-2.667-3.5s1.744-3.5,2.667-3.5h1.5v-3.5H216.303z"/>
		<g>
			<path fill="#787878" d="M238.303,119.172h-11c-1.378,0-2.5-1.122-2.5-2.5v-7c0-0.732,0.325-1.427,0.893-1.906
				c0.351-0.295,0.856-0.314,1.229-0.048l5.879,4.224l5.879-4.224c0.373-0.267,0.879-0.247,1.229,0.048
				c0.566,0.479,0.893,1.174,0.893,1.906v7C240.803,118.049,239.682,119.172,238.303,119.172z M226.803,110.092v6.578
				c0,0.275,0.225,0.5,0.5,0.5h11c0.276,0,0.5-0.225,0.5-0.5v-6.578l-5.417,3.891c-0.348,0.25-0.817,0.25-1.167,0L226.803,110.092z"
				/>
			<path fill="#787878" d="M232.803,114.172c-0.205,0-0.408-0.063-0.582-0.188l-6.463-4.643c-0.25-0.18-0.404-0.465-0.416-0.773
				c-0.012-0.308,0.118-0.604,0.354-0.803c0.455-0.383,1.025-0.594,1.609-0.594h11c0.582,0,1.153,0.211,1.607,0.594
				c0.236,0.199,0.365,0.495,0.354,0.803c-0.012,0.309-0.166,0.594-0.416,0.773l-6.461,4.643
				C233.212,114.107,233.008,114.172,232.803,114.172z M228.948,109.172l3.854,2.77l3.855-2.77H228.948z"/>
		</g>
		<path fill="#787878" d="M198.816,110.177c-1.608,0-2.916-1.301-2.916-2.899c0-1.6,1.308-2.9,2.916-2.9
			c1.607,0,2.916,1.301,2.916,2.9S200.424,110.177,198.816,110.177z M198.816,106.378c-0.506,0-0.916,0.404-0.916,0.899
			c0,0.496,0.41,0.9,0.916,0.9c0.504,0,0.916-0.404,0.916-0.9S199.32,106.378,198.816,106.378z"/>
		<path fill="#787878" d="M198.816,118.822c-0.35,0-0.674-0.182-0.854-0.48l-4.665-7.658c-0.01-0.017-0.02-0.031-0.027-0.047
			c-0.623-1.016-0.953-2.175-0.953-3.357c0-3.561,2.916-6.456,6.5-6.456s6.5,2.896,6.5,6.456c0,1.183-0.33,2.342-0.955,3.357
			c-0.008,0.016-0.018,0.031-0.026,0.047l-4.665,7.658C199.488,118.641,199.165,118.822,198.816,118.822z M195.04,109.699
			l3.776,6.201l3.775-6.201c0.012-0.023,0.025-0.047,0.04-0.069c0.447-0.71,0.685-1.522,0.685-2.351c0-2.457-2.02-4.456-4.5-4.456
			c-2.481,0-4.5,1.999-4.5,4.456c0,0.828,0.236,1.642,0.684,2.351C195.014,109.65,195.027,109.674,195.04,109.699z"/>
		
			<text transform="matrix(1 0 0 1 7.1074 18.5215)" opacity="0" enable-background="new    " font-family="'MyriadPro-Regular'" font-size="12">a</text>
		<circle fill="#197DFD" cx="136" cy="47" r="10.5"/>
		
			<polyline fill="none" stroke="#FFFFFF" stroke-width="2" stroke-linecap="round" stroke-linejoin="round" stroke-miterlimit="10" points="
			141.25,43.325 134.425,50.675 131.275,46.737 		"/>
		<circle fill="#CCCBCB" cx="161" cy="47" r="10.5"/>
		
			<polyline fill="none" stroke="#FFFFFF" stroke-width="2" stroke-linecap="round" stroke-linejoin="round" stroke-miterlimit="10" points="
			166.25,43.325 159.425,50.675 156.275,46.737 		"/>
		<g>
			<path fill="#EFEEEE" d="M175.5,80.35c0,1.74-1.411,3.15-3.15,3.15H157.65c-1.74,0-3.15-1.41-3.15-3.15v-14.7
				c0-1.74,1.41-3.15,3.15-3.15h14.699c1.739,0,3.15,1.41,3.15,3.15V80.35z"/>
			<path fill="#CCCCCC" d="M172.35,63.025c1.447,0,2.625,1.178,2.625,2.625v14.7c0,1.447-1.178,2.625-2.625,2.625H157.65
				c-1.447,0-2.625-1.178-2.625-2.625v-14.7c0-1.447,1.178-2.625,2.625-2.625H172.35 M172.35,62.5H157.65
				c-1.74,0-3.15,1.41-3.15,3.15v14.7c0,1.74,1.41,3.15,3.15,3.15h14.699c1.739,0,3.15-1.41,3.15-3.15v-14.7
				C175.5,63.91,174.089,62.5,172.35,62.5L172.35,62.5z"/>
		</g>
		
			<line fill="none" stroke="#242424" stroke-width="2" stroke-linecap="round" stroke-miterlimit="10" x1="161.325" y1="69.325" x2="168.675" y2="76.675"/>
		
			<line fill="none" stroke="#242424" stroke-width="2" stroke-linecap="round" stroke-miterlimit="10" x1="168.675" y1="69.325" x2="161.325" y2="76.675"/>
		<g>
			<path fill="#E5E5E4" d="M201.5,80.35c0,1.74-1.411,3.15-3.15,3.15H183.65c-1.74,0-3.15-1.41-3.15-3.15v-14.7
				c0-1.74,1.41-3.15,3.15-3.15h14.699c1.739,0,3.15,1.41,3.15,3.15V80.35z"/>
			<path fill="#CCCCCC" d="M198.35,63.025c1.447,0,2.625,1.178,2.625,2.625v14.7c0,1.447-1.178,2.625-2.625,2.625H183.65
				c-1.447,0-2.625-1.178-2.625-2.625v-14.7c0-1.447,1.178-2.625,2.625-2.625H198.35 M198.35,62.5H183.65
				c-1.74,0-3.15,1.41-3.15,3.15v14.7c0,1.74,1.41,3.15,3.15,3.15h14.699c1.739,0,3.15-1.41,3.15-3.15v-14.7
				C201.5,63.91,200.089,62.5,198.35,62.5L198.35,62.5z"/>
		</g>
		
			<line fill="none" stroke="#242424" stroke-width="2" stroke-linecap="round" stroke-miterlimit="10" x1="187.325" y1="69.325" x2="194.675" y2="76.675"/>
		
			<line fill="none" stroke="#242424" stroke-width="2" stroke-linecap="round" stroke-miterlimit="10" x1="194.675" y1="69.325" x2="187.325" y2="76.675"/>
		<g>
			<path fill="#EFEEEE" d="M175.5,80.35c0,1.74-1.411,3.15-3.15,3.15H157.65c-1.74,0-3.15-1.41-3.15-3.15v-14.7
				c0-1.74,1.41-3.15,3.15-3.15h14.699c1.739,0,3.15,1.41,3.15,3.15V80.35z"/>
			<path fill="#CCCCCC" d="M172.35,63.025c1.447,0,2.625,1.178,2.625,2.625v14.7c0,1.447-1.178,2.625-2.625,2.625H157.65
				c-1.447,0-2.625-1.178-2.625-2.625v-14.7c0-1.447,1.178-2.625,2.625-2.625H172.35 M172.35,62.5H157.65
				c-1.74,0-3.15,1.41-3.15,3.15v14.7c0,1.74,1.41,3.15,3.15,3.15h14.699c1.739,0,3.15-1.41,3.15-3.15v-14.7
				C175.5,63.91,174.089,62.5,172.35,62.5L172.35,62.5z"/>
		</g>
		<g>
			<path fill="#E5E5E4" d="M201.5,80.35c0,1.74-1.411,3.15-3.15,3.15H183.65c-1.74,0-3.15-1.41-3.15-3.15v-14.7
				c0-1.74,1.41-3.15,3.15-3.15h14.699c1.739,0,3.15,1.41,3.15,3.15V80.35z"/>
			<path fill="#CCCCCC" d="M198.35,63.025c1.447,0,2.625,1.178,2.625,2.625v14.7c0,1.447-1.178,2.625-2.625,2.625H183.65
				c-1.447,0-2.625-1.178-2.625-2.625v-14.7c0-1.447,1.178-2.625,2.625-2.625H198.35 M198.35,62.5H183.65
				c-1.74,0-3.15,1.41-3.15,3.15v14.7c0,1.74,1.41,3.15,3.15,3.15h14.699c1.739,0,3.15-1.41,3.15-3.15v-14.7
				C201.5,63.91,200.089,62.5,198.35,62.5L198.35,62.5z"/>
		</g>
		
			<polyline fill="none" stroke="#231F20" stroke-width="2" stroke-linecap="round" stroke-linejoin="round" stroke-miterlimit="10" points="
			163.007,68.729 167.563,73.285 163.007,77.271 		"/>
		
			<polyline fill="none" stroke="#231F20" stroke-width="2" stroke-linecap="round" stroke-linejoin="round" stroke-miterlimit="10" points="
			188.723,68.729 193.277,73.285 188.723,77.271 		"/>
		<g>
			<path fill="#EFEEEE" d="M229.5,80.35c0,1.74-1.411,3.15-3.15,3.15H211.65c-1.74,0-3.15-1.41-3.15-3.15v-14.7
				c0-1.74,1.41-3.15,3.15-3.15h14.699c1.739,0,3.15,1.41,3.15,3.15V80.35z"/>
			<path fill="#CCCCCC" d="M226.35,63.025c1.447,0,2.625,1.178,2.625,2.625v14.7c0,1.447-1.178,2.625-2.625,2.625H211.65
				c-1.447,0-2.625-1.178-2.625-2.625v-14.7c0-1.447,1.178-2.625,2.625-2.625H226.35 M226.35,62.5H211.65
				c-1.74,0-3.15,1.41-3.15,3.15v14.7c0,1.74,1.41,3.15,3.15,3.15h14.699c1.739,0,3.15-1.41,3.15-3.15v-14.7
				C229.5,63.91,228.089,62.5,226.35,62.5L226.35,62.5z"/>
		</g>
		
			<line fill="none" stroke="#242424" stroke-width="2" stroke-linecap="round" stroke-miterlimit="10" x1="215.325" y1="69.325" x2="222.675" y2="76.675"/>
		
			<line fill="none" stroke="#242424" stroke-width="2" stroke-linecap="round" stroke-miterlimit="10" x1="222.675" y1="69.325" x2="215.325" y2="76.675"/>
		<g>
			<path fill="#E5E5E4" d="M255.5,80.35c0,1.74-1.411,3.15-3.15,3.15H237.65c-1.74,0-3.15-1.41-3.15-3.15v-14.7
				c0-1.74,1.41-3.15,3.15-3.15h14.699c1.739,0,3.15,1.41,3.15,3.15V80.35z"/>
			<path fill="#CCCCCC" d="M252.35,63.025c1.447,0,2.625,1.178,2.625,2.625v14.7c0,1.447-1.178,2.625-2.625,2.625H237.65
				c-1.447,0-2.625-1.178-2.625-2.625v-14.7c0-1.447,1.178-2.625,2.625-2.625H252.35 M252.35,62.5H237.65
				c-1.74,0-3.15,1.41-3.15,3.15v14.7c0,1.74,1.41,3.15,3.15,3.15h14.699c1.739,0,3.15-1.41,3.15-3.15v-14.7
				C255.5,63.91,254.089,62.5,252.35,62.5L252.35,62.5z"/>
		</g>
		
			<line fill="none" stroke="#242424" stroke-width="2" stroke-linecap="round" stroke-miterlimit="10" x1="241.325" y1="69.325" x2="248.675" y2="76.675"/>
		
			<line fill="none" stroke="#242424" stroke-width="2" stroke-linecap="round" stroke-miterlimit="10" x1="248.675" y1="69.325" x2="241.325" y2="76.675"/>
		<g>
			<path fill="#EFEEEE" d="M229.5,80.35c0,1.74-1.411,3.15-3.15,3.15H211.65c-1.74,0-3.15-1.41-3.15-3.15v-14.7
				c0-1.74,1.41-3.15,3.15-3.15h14.699c1.739,0,3.15,1.41,3.15,3.15V80.35z"/>
			<path fill="#CCCCCC" d="M226.35,63.025c1.447,0,2.625,1.178,2.625,2.625v14.7c0,1.447-1.178,2.625-2.625,2.625H211.65
				c-1.447,0-2.625-1.178-2.625-2.625v-14.7c0-1.447,1.178-2.625,2.625-2.625H226.35 M226.35,62.5H211.65
				c-1.74,0-3.15,1.41-3.15,3.15v14.7c0,1.74,1.41,3.15,3.15,3.15h14.699c1.739,0,3.15-1.41,3.15-3.15v-14.7
				C229.5,63.91,228.089,62.5,226.35,62.5L226.35,62.5z"/>
		</g>
		<g>
			<path fill="#E5E5E4" d="M255.5,80.35c0,1.74-1.411,3.15-3.15,3.15H237.65c-1.74,0-3.15-1.41-3.15-3.15v-14.7
				c0-1.74,1.41-3.15,3.15-3.15h14.699c1.739,0,3.15,1.41,3.15,3.15V80.35z"/>
			<path fill="#CCCCCC" d="M252.35,63.025c1.447,0,2.625,1.178,2.625,2.625v14.7c0,1.447-1.178,2.625-2.625,2.625H237.65
				c-1.447,0-2.625-1.178-2.625-2.625v-14.7c0-1.447,1.178-2.625,2.625-2.625H252.35 M252.35,62.5H237.65
				c-1.74,0-3.15,1.41-3.15,3.15v14.7c0,1.74,1.41,3.15,3.15,3.15h14.699c1.739,0,3.15-1.41,3.15-3.15v-14.7
				C255.5,63.91,254.089,62.5,252.35,62.5L252.35,62.5z"/>
		</g>
		
			<polyline fill="none" stroke="#231F20" stroke-width="2" stroke-linecap="round" stroke-linejoin="round" stroke-miterlimit="10" points="
			221.285,77.271 216.729,72.715 221.285,68.729 		"/>
		
			<polyline fill="none" stroke="#231F20" stroke-width="2" stroke-linecap="round" stroke-linejoin="round" stroke-miterlimit="10" points="
			247.001,77.271 242.443,72.715 247.001,68.729 		"/>
		<g>
			<path fill="#EFEEEE" d="M62.5,105.35c0,1.74-1.411,3.15-3.15,3.15h-14.7c-1.74,0-3.15-1.41-3.15-3.15V90.65
				c0-1.74,1.41-3.15,3.15-3.15h14.7c1.739,0,3.15,1.41,3.15,3.15V105.35z"/>
			<path fill="#CCCCCC" d="M59.35,88.025c1.447,0,2.625,1.178,2.625,2.625v14.699c0,1.447-1.178,2.625-2.625,2.625h-14.7
				c-1.447,0-2.625-1.178-2.625-2.625V90.65c0-1.447,1.178-2.625,2.625-2.625H59.35 M59.35,87.5h-14.7c-1.74,0-3.15,1.41-3.15,3.15
				v14.699c0,1.74,1.41,3.15,3.15,3.15h14.7c1.739,0,3.15-1.41,3.15-3.15V90.65C62.5,88.91,61.089,87.5,59.35,87.5L59.35,87.5z"/>
		</g>
		
			<line fill="none" stroke="#242424" stroke-width="2" stroke-linecap="round" stroke-miterlimit="10" x1="46.803" y1="98" x2="57.197" y2="98"/>
		
			<line fill="none" stroke="#242424" stroke-width="2" stroke-linecap="round" stroke-miterlimit="10" x1="52" y1="92.803" x2="52" y2="103.197"/>
		<g>
			<path fill="#E5E5E4" d="M89.5,105.35c0,1.74-1.411,3.15-3.15,3.15h-14.7c-1.74,0-3.15-1.41-3.15-3.15V90.65
				c0-1.74,1.41-3.15,3.15-3.15h14.7c1.739,0,3.15,1.41,3.15,3.15V105.35z"/>
			<path fill="#CCCCCC" d="M86.35,88.025c1.447,0,2.625,1.178,2.625,2.625v14.699c0,1.447-1.178,2.625-2.625,2.625h-14.7
				c-1.447,0-2.625-1.178-2.625-2.625V90.65c0-1.447,1.178-2.625,2.625-2.625H86.35 M86.35,87.5h-14.7c-1.74,0-3.15,1.41-3.15,3.15
				v14.699c0,1.74,1.41,3.15,3.15,3.15h14.7c1.739,0,3.15-1.41,3.15-3.15V90.65C89.5,88.91,88.089,87.5,86.35,87.5L86.35,87.5z"/>
		</g>
		
			<line fill="none" stroke="#242424" stroke-width="2" stroke-linecap="round" stroke-miterlimit="10" x1="73.803" y1="98" x2="84.197" y2="98"/>
		
			<line fill="none" stroke="#242424" stroke-width="2" stroke-linecap="round" stroke-miterlimit="10" x1="79" y1="92.803" x2="79" y2="103.197"/>
		<g>
			<path fill="#EFEEEE" d="M120.5,105.35c0,1.74-1.411,3.15-3.15,3.15h-14.7c-1.74,0-3.15-1.41-3.15-3.15V90.65
				c0-1.74,1.41-3.15,3.15-3.15h14.7c1.739,0,3.15,1.41,3.15,3.15V105.35z"/>
			<path fill="#CCCCCC" d="M117.35,88.025c1.447,0,2.625,1.178,2.625,2.625v14.699c0,1.447-1.178,2.625-2.625,2.625h-14.7
				c-1.447,0-2.625-1.178-2.625-2.625V90.65c0-1.447,1.178-2.625,2.625-2.625H117.35 M117.35,87.5h-14.7
				c-1.74,0-3.15,1.41-3.15,3.15v14.699c0,1.74,1.41,3.15,3.15,3.15h14.7c1.739,0,3.15-1.41,3.15-3.15V90.65
				C120.5,88.91,119.089,87.5,117.35,87.5L117.35,87.5z"/>
		</g>
		
			<line fill="none" stroke="#242424" stroke-width="2" stroke-linecap="round" stroke-miterlimit="10" x1="104.803" y1="98" x2="115.197" y2="98"/>
		<g>
			<path fill="#E5E5E4" d="M147.5,105.35c0,1.74-1.411,3.15-3.15,3.15h-14.7c-1.74,0-3.15-1.41-3.15-3.15V90.65
				c0-1.74,1.41-3.15,3.15-3.15h14.7c1.739,0,3.15,1.41,3.15,3.15V105.35z"/>
			<path fill="#CCCCCC" d="M144.35,88.025c1.447,0,2.625,1.178,2.625,2.625v14.699c0,1.447-1.178,2.625-2.625,2.625h-14.7
				c-1.447,0-2.625-1.178-2.625-2.625V90.65c0-1.447,1.178-2.625,2.625-2.625H144.35 M144.35,87.5h-14.7
				c-1.74,0-3.15,1.41-3.15,3.15v14.699c0,1.74,1.41,3.15,3.15,3.15h14.7c1.739,0,3.15-1.41,3.15-3.15V90.65
				C147.5,88.91,146.089,87.5,144.35,87.5L144.35,87.5z"/>
		</g>
		
			<line fill="none" stroke="#242424" stroke-width="2" stroke-linecap="round" stroke-miterlimit="10" x1="131.803" y1="98" x2="142.197" y2="98"/>
		<path fill="#221F1F" d="M119.801,27l3.826-3.826c0.497-0.497,0.497-1.303,0-1.8c-0.498-0.497-1.304-0.497-1.801,0L118,25.199
			l-3.826-3.826c-0.497-0.497-1.303-0.497-1.8,0s-0.497,1.304,0,1.8L116.199,27l-3.826,3.826c-0.497,0.497-0.497,1.303,0,1.8
			s1.304,0.497,1.801,0L118,28.801l3.826,3.826c0.497,0.497,1.303,0.497,1.801,0c0.497-0.497,0.497-1.303,0-1.8L119.801,27z"/>
	</g>
	<g id="Layer_2">
	</g>
</g>
</svg>
