<?xml  version="1.0" encoding="UTF-8"?>
<!DOCTYPE svg PUBLIC "-//W3C//DTD SVG 1.0//EN" "http://www.w3.org/TR/2001/REC-SVG-20010904/DTD/svg10.dtd" >
<svg xmlns="http://www.w3.org/2000/svg" >
<metadata>
<version>1.0</version>
<id><![CDATA[Bembo W01]]></id>
<vendor>Monotype Imaging Inc.</vendor>
<credits>
<name>Fonts.com WebFonts</name>
<URL>http://webfonts.fonts.com</URL>
<role>Home of the Web fonts</role>
</credits>
<license>
<URL>http://webfonts.fonts.com/Legal</URL>
</license>
<copyright><![CDATA[Copyright 1990, 2002 Adobe Systems Incorporated. All Rights Reserved.  Copyright 1990, 2002 The Monotype Corporation Plc. All Rights Reserved.]]></copyright>
<trademark><![CDATA[Bembo is a registered trademark of The Monotype Corporation in the United States and/or other countries.]]></trademark>
<licensee>
<name></name>
</licensee>
</metadata>
<defs >
<font horiz-adv-x="522" id="e8bd1ce0-6a1d-4c97-a49b-3e771cc9d5ec">
<font-face font-family="" panose-1="2 2 5 3 5 4 5 2 3 4" ascent="896" descent="-233" units-per-em="1000" alphabetic="0">
</font-face>
<missing-glyph horiz-adv-x="500" d="M0 700H500V0H0V700ZM420 650H80L250 395L420 650ZM450 95V605L280 350L450 95ZM420 50L250 305L80 50H420ZM50 95L220 350L50 605V95Z"  />

<glyph unicode="&#xA;" />
<glyph unicode="&#xD;" horiz-adv-x="0" />
<glyph unicode=" " horiz-adv-x="278" />
<glyph unicode="!" horiz-adv-x="260" d="M120 178L83 628Q82 642 86 646T108 650H153Q170 650 174 645T177 626L140 178H120ZM79 35Q79 56 93 69T130 82Q151 82 166 70T181 35Q181 12 166 0T130 -12Q108 -12 94 1T79 35Z"  />
<glyph unicode="&quot;" horiz-adv-x="406" d="M114 637Q136 637 149 622T163 584Q163 564 159 539T151 496L126 352H102L77 496Q74 514 70 539T65 584Q65 607 78 622T114 637ZM292 637Q314 637 327 622T341 584Q341 564 337 539T329 496L304 352H280L255 496Q252 514 248 539T243 584Q243 607 256 622T292 637Z"  />
<glyph unicode="#" horiz-adv-x="668" d="M210 464L252 667H295L253 464H474L517 667H560L517 464H621V421H508L467 223H621V180H459L416 -23H373L416 180H193L150 -23H107L150 180H46V223H159L200 421H46V464H210ZM202 223H424L465 421H243L202 223Z"  />
<glyph unicode="$" horiz-adv-x="458" d="M157 -6Q130 0 107 11T65 36T37 68T26 103Q26 117 36 127T59 137Q78 137 86 123T101 91T119 53T157 21V306Q102 340 73 374T44 456Q44 501 75 536T157 587V652H183V590Q216 595 250 590V652H276V587Q331 571 362 548T393 499Q393 486 385 477T364 468Q352 468 344 475T327 494T307 521T276 554V323Q319 296 346 275T390 234T412 194T418 148Q418 91 382 52T276 -6V-102H250V-13Q233 -15 215 -15T183 -12V-102H157V-6ZM183 382L250 335V563Q235 572 217 572T183 570V382ZM157 566Q131 557 115 537T99 491Q99 465 112 444T157 399V566ZM183 14Q206 4 250 7V247L183 293V14ZM276 14Q316 31 337 58T358 124Q358 140 354 153T341 178T316 204T276 234V14Z"  />
<glyph unicode="%" horiz-adv-x="719" d="M439 162Q439 198 449 228T476 282T516 318T567 331Q594 331 617 318T658 282T686 229T696 162Q696 126 686 96T659 42T618 6T567 -7Q540 -7 517 6T476 42T449 95T439 162ZM495 162Q495 8 567 8Q640 8 640 162Q640 316 567 316Q495 316 495 162ZM23 468Q23 504 33 534T60 588T100 624T151 637Q178 637 201 624T242 588T270 535T280 468Q280 432 270 402T243 348T202 312T151 299Q124 299 101 312T60 348T33 401T23 468ZM79 468Q79 314 151 314Q224 314 224 468Q224 622 151 622Q79 622 79 468ZM95 -27L581 654H622L137 -27H95Z"  />
<glyph unicode="&amp;" horiz-adv-x="729" d="M716 418V400Q674 400 658 396T631 381Q623 373 610 352T579 300T536 235T481 165Q502 133 516 107T543 61T569 31T601 20Q630 20 679 54L688 38Q622 -14 565 -14Q542 -14 526 -9T496 10T467 48T431 110Q375 50 316 18T203 -14Q169 -14 140 -2T88 33T54 86T41 151Q41 182 50 207T81 255T135 298T216 337Q184 365 165 400T145 467Q145 520 182 551T281 583Q337 583 372 556T408 486Q408 451 379 419T295 359Q344 326 388 281T469 182Q487 204 508 234T549 293T581 346T594 380Q594 391 583 395T539 400V418H716ZM123 163Q123 106 156 71T244 36Q266 36 290 43T337 62T382 90T420 127Q387 183 340 232T230 325Q173 285 148 248T123 163ZM347 479Q347 517 327 540T274 563Q243 563 226 544T208 491Q208 427 282 371Q317 391 332 416T347 479Z"  />
<glyph unicode="&apos;" horiz-adv-x="177" d="M89 637Q111 637 124 622T138 584Q138 564 134 539T126 496L101 352H77L52 496Q49 514 45 539T40 584Q40 607 53 622T89 637Z"  />
<glyph unicode="(" horiz-adv-x="302" d="M140 222Q140 157 149 103T177 1T224 -94T291 -191L263 -216Q222 -165 189 -115T133 -12T98 98T85 222Q85 288 97 345T133 456T189 559T263 660L291 635Q253 585 225 539T178 444T150 341T140 222Z"  />
<glyph unicode=")" horiz-adv-x="302" d="M162 222Q162 287 153 341T125 443T78 538T11 635L39 660Q80 609 113 559T169 456T204 346T217 222Q217 156 205 99T169 -12T113 -115T39 -216L11 -191Q49 -141 77 -95T124 0T152 103T162 222Z"  />
<glyph unicode="*" horiz-adv-x="510" d="M131 227L105 245L180 403L27 487L35 515L207 493L241 663H272L303 493L475 515L484 487L331 403L407 245L380 227L255 343L131 227Z"  />
<glyph unicode="+" horiz-adv-x="667" d="M596 342V298H355V57H311V298H71V342H311V582H355V342H596Z"  />
<glyph unicode="&#x2c;" horiz-adv-x="260" d="M74 -130Q151 -85 151 -30Q151 -21 148 -15T137 -9Q134 -9 131 -9T126 -10Q123 -11 121 -11T113 -12Q93 -12 81 0T68 33Q68 53 83 67T122 82Q152 82 172 59T192 -1Q192 -48 162 -88T81 -148L74 -130Z"  />
<glyph unicode="-" horiz-adv-x="396" d="M361 221V171H35V221H361Z"  />
<glyph unicode="." horiz-adv-x="260" d="M130 82Q151 82 166 70T181 35Q181 12 166 0T130 -12Q108 -12 94 1T79 35Q79 56 93 69T130 82Z"  />
<glyph unicode="/" horiz-adv-x="458" d="M412 637L89 -14H46L369 637H412Z"  />
<glyph unicode="0" horiz-adv-x="490" d="M453 311Q453 242 437 183T392 80T325 11T245 -14Q206 -14 169 9T102 75T55 177T37 311Q37 381 54 441T99 544T166 612T245 637Q289 637 327 611T393 539T437 435T453 311ZM378 311Q378 377 373 433T353 531T312 595T245 618Q206 618 181 596T140 533T118 436T112 311Q112 238 118 181T140 85T181 26T245 5Q285 5 311 26T352 88T372 184T378 311Z"  />
<glyph unicode="1" horiz-adv-x="490" d="M289 637V57Q289 34 296 27T326 19H382V0H130V19H184Q208 19 215 27T222 58V557Q210 546 194 535T161 512T128 491T97 475L89 489Q111 504 136 524T184 565T226 605T254 637H289Z"  />
<glyph unicode="2" horiz-adv-x="490" d="M30 16Q74 73 129 125T233 228T315 333T348 446Q348 474 338 498T310 541T268 569T216 580Q189 580 165 571T120 543T84 500T59 445H43Q47 488 64 523T108 583T169 623T245 637Q284 637 318 624T376 587T415 531T429 460Q429 372 357 300Q346 289 324 272T269 226T192 158T94 62H357Q377 62 389 65T410 77T423 101T433 140H449L430 0H30V16Z"  />
<glyph unicode="3" horiz-adv-x="490" d="M175 320Q237 372 274 412T311 494Q311 513 304 530T283 559T252 579T214 586Q176 586 139 560T81 488L63 495Q89 561 138 599T248 637Q276 637 299 629T340 605T368 570T378 526Q378 488 352 451T275 385L277 383Q311 386 340 374T392 340T426 286T438 220Q438 173 418 131T362 57T281 5T185 -14Q155 -14 128 -9T79 7T46 30T34 57Q34 71 43 81T65 91Q82 91 98 79T132 52T171 25T219 13Q248 13 274 27T320 66T351 124T363 194Q363 223 355 248T332 292T297 322T254 333Q218 333 184 306L175 320Z"  />
<glyph unicode="4" horiz-adv-x="490" d="M35 182V205L330 637H358V232H458V182H358V-14H291V182H35ZM291 542H289L82 232H291V542Z"  />
<glyph unicode="5" horiz-adv-x="490" d="M102 624H339Q353 624 358 627T368 637H387L376 559H123L115 379Q161 404 223 404Q265 404 302 388T367 344T411 279T428 199Q428 154 410 115T361 48T286 3T193 -14Q163 -14 137 -9T90 4T59 24T47 49Q47 62 56 71T80 80Q100 80 115 69T144 45T175 21T216 10Q244 10 268 23T312 60T342 113T353 178Q353 212 342 241T311 292T264 325T204 337Q176 337 149 327T98 300L88 307L102 624Z"  />
<glyph unicode="6" horiz-adv-x="490" d="M391 622Q273 574 210 499T130 314Q171 346 203 359T272 372Q309 372 341 358T397 318T435 260T449 188Q449 147 434 110T392 46T330 2T254 -14Q208 -14 170 5T104 58T61 141T45 246Q45 315 68 376T134 488T239 577T380 637L391 622ZM374 179Q374 260 341 304T257 348Q237 348 204 337T125 288Q123 277 122 265T120 226Q120 163 132 121T164 52T208 14T256 3Q309 3 341 48T374 179Z"  />
<glyph unicode="7" horiz-adv-x="490" d="M141 -14L383 557H108Q94 557 85 555T69 547T59 530T53 499H37L44 622H440V601L196 -14H141Z"  />
<glyph unicode="8" horiz-adv-x="490" d="M421 493Q421 399 291 347Q370 312 405 270T441 170Q441 131 426 98T385 39T322 0T244 -14Q203 -14 168 -1T107 34T65 86T50 150Q50 256 195 314Q124 346 91 385T58 475Q58 508 72 537T112 589T170 624T241 637Q278 637 311 626T368 595T407 549T421 493ZM377 142Q377 167 368 188T340 228T289 265T215 304Q113 248 113 152Q113 120 123 93T150 46T192 15T245 4Q273 4 297 14T339 43T367 87T377 142ZM361 494Q361 521 352 544T327 583T289 609T240 619Q214 619 192 610T153 586T127 551T117 506Q117 485 123 467T148 431T197 395T277 356Q361 408 361 494Z"  />
<glyph unicode="9" horiz-adv-x="490" d="M99 1Q217 49 280 124T360 309Q319 277 287 264T218 251Q181 251 149 265T93 305T55 363T41 435Q41 476 56 513T98 577T160 621T236 637Q282 637 320 618T386 565T429 482T445 377Q445 308 422 247T356 135T251 46T110 -14L99 1ZM116 445Q116 363 149 319T233 275Q257 275 294 291T365 336Q367 346 368 359T370 397Q370 459 358 501T327 570T283 608T234 620Q180 620 148 575T116 445Z"  />
<glyph unicode=":" horiz-adv-x="260" d="M130 406Q151 406 166 394T181 359Q181 336 166 324T130 312Q108 312 94 325T79 359Q79 380 93 393T130 406ZM130 82Q151 82 166 70T181 35Q181 12 166 0T130 -12Q108 -12 94 1T79 35Q79 56 93 69T130 82Z"  />
<glyph unicode=";" horiz-adv-x="260" d="M74 -130Q151 -85 151 -30Q151 -21 148 -15T137 -9Q134 -9 131 -9T126 -10Q123 -11 121 -11T113 -12Q93 -12 81 0T68 33Q68 53 83 67T122 82Q152 82 172 59T192 -1Q192 -48 162 -88T81 -148L74 -130ZM133 406Q154 406 169 394T184 359Q184 336 169 324T133 312Q111 312 97 325T82 359Q82 380 96 393T133 406Z"  />
<glyph unicode="&lt;" horiz-adv-x="667" d="M71 340L595 562V512L131 320L595 128V78L71 300V340Z"  />
<glyph unicode="=" horiz-adv-x="667" d="M596 457V413H71V457H596ZM596 276V232H71V276H596Z"  />
<glyph unicode="&gt;" horiz-adv-x="667" d="M596 300L72 78V128L536 320L72 512V562L596 340V300Z"  />
<glyph unicode="?" horiz-adv-x="354" d="M138 633Q174 633 205 621T260 585T297 529T311 456Q311 409 298 380T264 332T221 303T178 285T145 267T131 240Q131 221 141 203T169 168H147Q127 190 113 217T98 271Q98 300 112 317T147 344T192 363T238 384T273 415T287 468Q287 513 259 535T185 557Q161 557 142 554T108 550Q87 550 69 557T51 586Q51 606 70 619T138 633ZM155 82Q176 82 191 70T206 35Q206 12 191 0T155 -12Q133 -12 119 1T104 35Q104 56 118 69T155 82Z"  />
<glyph unicode="@" horiz-adv-x="917" d="M601 170Q584 113 585 82T623 51Q657 51 693 75T760 142T809 243T828 369Q828 435 805 490T739 586T639 648T512 671Q414 671 337 631T205 524T122 375T93 205Q93 119 121 47T200 -77T321 -157T476 -186Q610 -186 711 -117T868 84H896Q876 18 836 -37T739 -132T615 -194T473 -216Q381 -216 303 -184T168 -93T79 44T47 217Q47 317 83 404T181 556T328 658T509 695Q587 695 651 671T761 602T832 497T858 360Q858 306 842 245T792 133T708 49T589 15Q514 15 514 82Q514 98 515 112T522 152L520 154Q469 87 422 51T330 15Q311 15 295 24T267 48T248 83T241 128Q241 166 253 206T286 285T334 356T391 415T451 455T510 470Q523 470 537 467T562 455T582 434T594 403H596L611 457L688 467L601 170ZM516 446Q494 446 470 430T424 389T383 330T348 264T325 199T316 143Q316 114 333 94T373 74Q404 74 439 100T505 169T556 266T577 376Q577 407 560 426T516 446Z"  />
<glyph unicode="A" horiz-adv-x="677" d="M216 276L158 119Q153 105 146 86T138 56Q138 36 157 28T219 19H235V0H4V19Q28 19 43 22T70 36T91 66T112 118L294 615L285 637H372L581 82Q588 62 596 50T615 31T639 22T672 19V0H397V19H423Q466 19 483 25T501 53Q501 65 497 75T490 94L423 276H216ZM318 553L233 320H406L318 553Z"  />
<glyph unicode="B" horiz-adv-x="635" d="M121 516Q121 537 119 553T109 581T86 597T44 603H9V622Q19 622 36 623T71 625T107 627T135 628Q156 629 179 629T223 630T261 631T285 631Q351 631 405 622T486 592Q517 570 532 544T547 481Q547 460 539 440T515 404T479 375T433 359V357Q504 336 543 293T582 190Q582 160 571 127T535 66T468 19T366 0H0V19H23Q54 19 73 23T102 36T117 61T121 101V516ZM204 362H313Q457 362 457 478Q457 504 449 528T421 571T370 601T292 612Q275 612 249 611T204 609V362ZM204 130Q204 73 229 50T318 27Q367 27 400 41T452 77T480 129T488 187Q488 216 477 244T444 294T389 329T312 343H204V130Z"  />
<glyph unicode="C" horiz-adv-x="729" d="M645 458Q620 528 560 570T417 612Q354 612 304 591T219 531T165 439T146 323Q146 255 168 198T230 98T320 33T428 9Q458 9 490 15T554 37T616 83T672 157H691Q686 140 679 121T664 82T646 44T627 11Q603 14 582 11T535 1T477 -10T401 -16Q325 -16 261 8T151 74T78 175T52 303Q52 376 78 437T153 542T267 612T411 637Q458 637 492 631T552 617T593 603T622 597Q636 597 640 603H655L664 458H645Z"  />
<glyph unicode="D" horiz-adv-x="760" d="M111 522Q111 546 108 562T95 587T72 599T35 603H15V622Q43 624 78 625T156 628Q198 630 241 630T324 631Q423 631 495 608T613 544T682 449T705 332Q705 275 683 216T615 109T500 31T335 0H15V19H32Q73 19 92 33T111 92V522ZM194 74Q194 59 195 49T205 32T229 22T276 19Q326 19 363 23T429 36T481 61T528 100Q542 113 556 134T583 182T603 243T611 316Q611 372 594 429T531 531Q514 548 491 563T438 589T367 606T274 612Q243 612 223 611T194 608V74Z"  />
<glyph unicode="E" horiz-adv-x="594" d="M464 225H445Q442 252 437 267T424 291T404 301T377 304H208V91Q208 56 221 46T262 36H416Q442 36 460 41T491 60T513 95T532 149H550L534 0H3V19H31Q61 19 79 23T108 37T121 62T125 101V523Q125 565 110 584T45 603H23V622H503L511 483H493Q488 515 481 535T465 566T444 582T419 586H208V340H387Q414 340 427 355T445 415H464V225Z"  />
<glyph unicode="F" horiz-adv-x="531" d="M474 239H457Q455 283 439 299T386 315H201V96Q201 75 204 61T216 37T243 23T288 19V0H45V19Q68 20 82 24T105 39T115 68T118 117V509Q118 533 116 550T107 579T84 597T43 603V622H491V504H474Q473 548 456 567T391 586H201V351H399Q453 351 457 415H474V239Z"  />
<glyph unicode="G" horiz-adv-x="740" d="M646 47Q609 28 569 16T491 -4T424 -13T378 -16Q296 -16 236 12T136 86T77 188T57 299Q57 355 77 415T140 524T248 605T406 637Q446 637 479 632T537 620T580 609T605 603Q620 603 628 610H642V448H622Q612 495 592 526T544 577T485 604T417 612Q351 612 301 587T218 519T168 421T151 305Q151 228 175 172T237 80T321 27T410 9Q445 9 483 17T563 47V173Q563 216 546 232T483 249H446V267H716V249Q678 247 662 233T646 186V47Z"  />
<glyph unicode="H" horiz-adv-x="792" d="M198 297V107Q198 83 201 66T213 39T237 24T278 19H281V0H30V19H36Q81 19 98 34T115 92V532Q115 571 100 585T43 603V622H281V603Q254 603 238 599T213 584T201 555T198 507V333H590V530Q590 570 574 586T511 603H492V622H749V603Q726 602 712 598T689 585T677 560T673 521V106Q673 79 677 63T690 36T715 23T753 19H763V0H480V19H511Q560 19 575 37T590 94V297H198Z"  />
<glyph unicode="I" horiz-adv-x="333" d="M288 0H45V19Q68 20 82 24T105 38T117 64T120 105V531Q120 572 104 586T45 603V622H288V603Q241 603 222 588T203 522V98Q203 76 206 61T219 37T245 23T288 19V0Z"  />
<glyph unicode="J" horiz-adv-x="302" d="M195 103Q195 28 180 -34T138 -140T73 -209T-12 -233Q-54 -233 -81 -218T-109 -179Q-109 -163 -99 -151T-73 -139Q-60 -139 -49 -146T-25 -162T1 -178T30 -186Q48 -186 63 -179T89 -154T106 -109T112 -39V495Q112 528 110 549T99 582T74 598T31 603H20V622H273V603Q249 602 234 598T210 586T198 564T195 530V103Z"  />
<glyph unicode="K" horiz-adv-x="698" d="M406 0V19Q441 20 456 26T471 47Q471 53 466 63T448 91T410 135T348 199Q318 229 298 247T261 276T230 288T200 289V102Q200 78 204 63T217 37T241 23T280 19H293V0H19V19H37Q85 19 101 36T117 92V531Q117 576 97 589T37 603H19V622H289V603H280Q235 603 218 586T200 524V308Q229 311 254 325T312 372Q341 401 366 431T410 489T440 538T451 572Q451 589 437 596T382 603V622H645V603Q592 602 564 593T513 562Q501 550 484 523T442 463T385 393T314 326Q328 324 344 311T394 264Q473 185 518 129T588 48Q601 35 624 27T699 19V0H406Z"  />
<glyph unicode="L" horiz-adv-x="552" d="M467 0H20V19H53Q88 19 102 33T116 85V528Q116 568 100 585T37 603H23V622H318V603H281Q257 603 241 601T216 592T203 571T199 534V73Q199 53 208 45T239 36H386Q408 36 424 41T454 58T485 92T526 146H544L467 0Z"  />
<glyph unicode="M" horiz-adv-x="917" d="M425 0L170 533H168L141 83Q139 45 163 33T221 19V0H13V19Q40 19 56 23T82 38T94 71T100 126L124 515Q125 540 125 556T119 582T100 596T64 603V621H215L456 117L696 621H843V603Q806 600 791 595T777 564L809 111Q811 76 814 58T827 31T852 21T896 19V0H639V19Q657 19 673 22T702 32T722 52T728 85L699 533H697L448 0H425Z"  />
<glyph unicode="N" horiz-adv-x="813" d="M679 -7L161 535V106Q161 79 165 62T180 36T210 23T262 19V0H30V19H34Q81 19 98 35T116 86V578Q82 602 32 603V622H189L660 131V529Q660 552 656 566T641 588T611 599T562 603V622H796V603Q768 603 750 601T722 592T709 576T705 551V-7H679Z"  />
<glyph unicode="O" horiz-adv-x="823" d="M770 328Q770 252 742 189T665 81T552 10T414 -16Q340 -16 275 6T160 70T82 169T53 297Q53 372 80 434T156 542T272 612T419 637Q490 637 553 614T665 550T741 452T770 328ZM676 295Q676 365 655 423T597 523T507 588T393 612Q327 612 281 585T204 515T161 423T147 328Q147 258 169 200T231 99T322 33T435 9Q496 9 541 33T617 98T661 190T676 295Z"  />
<glyph unicode="P" horiz-adv-x="563" d="M200 96Q200 54 216 37T280 19H313V0H36V19H50Q89 19 103 30T117 77V550Q117 578 107 590T70 603H20V622Q41 623 75 624T146 628Q183 630 216 630T270 631Q348 631 398 614T476 571T516 514T527 454Q527 410 510 375T462 315T385 277T285 263Q262 263 243 264T200 271V96ZM200 290Q210 288 225 285T254 282Q295 282 328 295T384 331T420 387T433 457Q433 486 426 514T401 563T351 598T269 612Q252 612 235 612T200 608V290Z"  />
<glyph unicode="Q" horiz-adv-x="823" d="M785 -202Q773 -205 763 -206T739 -208Q680 -208 635 -185T551 -131T472 -67T384 -15Q313 -10 252 15T147 81T78 179T53 301Q53 373 80 434T157 541T272 611T415 637Q487 637 551 615T664 551T741 453T770 325Q770 267 752 214T698 117T614 41T503 -6V-8Q546 -24 581 -52T649 -109T718 -159T801 -181L785 -202ZM676 295Q676 365 655 423T597 523T507 588T393 612Q327 612 281 585T204 515T161 423T147 328Q147 258 169 200T231 99T322 34T435 10Q496 10 541 34T617 99T661 190T676 295Z"  />
<glyph unicode="R" horiz-adv-x="802" d="M199 94Q199 49 218 34T279 19H302V0H19V19H36Q80 19 98 35T116 102V523Q116 570 101 586T41 603H19V622Q28 622 43 622T75 624T111 626T145 628Q160 629 172 629T199 630T230 631T271 631Q340 631 390 618T474 580T523 524T539 453Q539 396 504 353T406 291Q434 269 459 246T520 187L599 108Q644 63 691 37T796 7V-11Q730 -14 686 -9T609 12T548 51T487 108L421 174Q388 207 362 229T318 263Q299 262 285 262T250 261Q233 261 222 261T199 263V94ZM199 282Q217 280 230 280T261 280Q303 280 337 289T395 318T432 370T445 447Q445 482 436 512T405 564T345 599T249 612Q235 612 224 612T199 610V282Z"  />
<glyph unicode="S" horiz-adv-x="490" d="M63 152Q79 85 126 48T232 11Q257 11 282 18T326 40T358 77T370 129Q370 165 346 193T287 248T210 299T133 352T73 414T49 492Q49 523 62 549T100 595T156 626T227 637Q258 637 278 633T313 625T339 616T363 612Q373 612 381 622H397L414 495H397Q376 549 332 581T236 613Q186 613 155 587T124 519Q124 483 148 456T207 403T284 353T361 300T421 236T445 155Q445 118 430 87T387 33T323 -3T241 -16Q220 -16 198 -12T157 -3T122 7T102 11Q89 11 82 0H65L44 152H63Z"  />
<glyph unicode="T" horiz-adv-x="677" d="M380 92Q380 51 396 35T459 19H496V0H181V19H218Q264 19 280 35T297 92V586H123Q108 586 97 581T78 564T63 530T50 475H32L48 637H67Q68 628 78 625Q87 622 98 622H579Q590 622 599 625T610 637H629L645 475H627Q621 508 615 529T600 563T580 581T554 586H380V92Z"  />
<glyph unicode="U" horiz-adv-x="792" d="M780 622V603Q729 602 709 581T689 511V241Q689 194 674 149T623 66T531 7T393 -16Q321 -16 267 3T177 56T123 136T104 236V528Q104 552 100 566T87 589T60 600T18 603V622H275V603H266Q224 603 206 589T187 530V252Q187 150 245 93T415 36Q457 36 498 46T571 80T623 147T643 253V486Q643 522 640 544T626 579T596 596T545 603V622H780Z"  />
<glyph unicode="V" horiz-adv-x="688" d="M319 -16L102 525Q93 549 85 564T67 587T42 599T4 603V622H279V603Q210 601 190 585T184 534L364 86L522 499Q539 542 539 561Q539 584 518 593T446 603V622H678V603Q639 603 616 584T575 517L369 -16H319Z"  />
<glyph unicode="W" horiz-adv-x="1000" d="M639 -16L508 293L382 -16H333L125 516Q114 544 103 561T79 588T48 600T7 603H1V622H260V603H243Q208 603 195 588T195 540L377 82L485 349L404 546Q389 583 365 593T301 603V622H711V603Q688 603 672 600T644 591T626 574T612 550L548 394L679 82L856 546Q868 577 855 589T786 603V622H993V603Q970 603 955 600T929 587T909 560T888 512L687 -16H639ZM570 560Q578 580 573 591T545 603H503Q483 603 475 595T475 566L525 450L570 560Z"  />
<glyph unicode="X" horiz-adv-x="750" d="M197 92Q168 57 172 38T227 19H247V0H9V19Q35 21 54 26T92 43T130 74T176 126L331 313L176 508Q153 537 135 555T99 584T60 598T9 603V622H307V603Q274 603 256 600T232 588T230 569T246 543L382 375L490 504Q535 558 535 580T494 603H465V622H705V603Q680 603 659 597T617 579T577 547T535 501L407 344L595 110Q617 83 632 66T664 40T699 26T747 19V0H471V19Q524 19 534 35T506 98L356 283L197 92Z"  />
<glyph unicode="Y" horiz-adv-x="708" d="M512 531Q536 573 523 588T461 603V622H687V603Q636 599 610 579T562 524L396 243V93Q396 53 413 36T476 19H489V0H214V19H233Q280 19 296 36T313 91V232L135 510Q117 539 102 557T72 585T40 598T-2 603V622H264V603Q235 603 219 600T197 588T196 568T211 538L371 291L512 531Z"  />
<glyph unicode="Z" horiz-adv-x="677" d="M40 23L489 586H192Q168 586 152 582T125 566T109 534T100 481H82L87 622H602V599L150 36H504Q532 36 549 43T577 68T595 113T611 181H629L617 0H40V23Z"  />
<glyph unicode="[" horiz-adv-x="302" d="M295 652V632H224Q190 632 180 623T169 593V-155Q169 -175 179 -184T224 -194H295V-214H102V652H295Z"  />
<glyph unicode="\" horiz-adv-x="458" d="M412 -14H369L46 637H89L412 -14Z"  />
<glyph unicode="]" horiz-adv-x="302" d="M200 -214H7V-194H78Q112 -194 122 -185T133 -155V593Q133 613 123 622T78 632H7V652H200V-214Z"  />
<glyph unicode="^" horiz-adv-x="469" d="M451 322H405L234 608L64 322H18L227 672H242L451 322Z"  />
<glyph unicode="_" horiz-adv-x="500" d="M-8 -125V-75H508V-125H-8Z"  />
<glyph unicode="`" horiz-adv-x="333" d="M138 559Q102 583 86 599T70 630Q70 643 78 651T101 659Q116 659 133 647T165 615L257 488H244L138 559Z"  />
<glyph unicode="a" horiz-adv-x="396" d="M45 277Q42 286 42 291Q42 304 56 324T91 362T139 394T190 407Q213 407 243 395T295 354Q301 346 304 339T308 323T310 300T310 268V134Q310 104 310 85T313 55T321 40T336 36Q344 36 355 39T385 58L390 43Q349 10 327 -1T291 -12Q276 -12 267 -5T253 12T247 32T245 49Q219 28 202 16T171 -3T149 -10T129 -12Q85 -12 61 10T36 70Q36 93 45 109T71 136T108 154T154 168Q170 172 193 181T243 206V285Q243 306 241 320T226 349Q216 361 202 369T170 378Q145 378 127 362T108 329Q108 321 113 310L45 277ZM243 186Q229 178 216 172T184 158Q161 149 145 142T119 126T105 108T100 82Q100 55 118 39T159 23Q165 23 171 24T186 30T208 43T243 67V186Z"  />
<glyph unicode="b" horiz-adv-x="500" d="M142 337Q196 375 230 391T293 407Q326 407 356 392T408 350T444 289T457 214Q457 166 439 125T390 53T316 6T223 -12Q189 -12 156 -7T75 7V549Q75 568 74 579T69 597T57 605T34 610L6 614V631L126 672H142V337ZM142 122Q142 103 148 85T168 51T201 27T251 17Q282 17 307 29T351 64T380 117T390 186Q390 223 380 255T351 311T308 347T254 361Q208 361 142 314V122Z"  />
<glyph unicode="c" horiz-adv-x="427" d="M391 92Q359 41 317 15T214 -12Q169 -12 137 7T85 55T56 117T46 181Q46 228 64 269T113 341T186 389T276 407Q324 407 356 391T388 350Q388 337 380 329T359 320Q341 320 328 329T303 350T277 371T242 381Q216 381 193 367T152 328T124 272T113 203Q113 165 123 134T153 79T198 42T254 29Q290 29 319 46T376 101L391 92Z"  />
<glyph unicode="d" horiz-adv-x="500" d="M358 582Q358 596 351 601T319 610L286 614V631L425 672V85Q425 59 439 53T474 52L498 59V38L370 -12H358V59Q260 -12 203 -12Q170 -12 141 3T90 44T56 106T43 181Q43 228 59 269T105 341T174 389T260 407Q283 407 310 402T358 388V582ZM358 305Q331 345 303 362T239 380Q210 380 186 368T145 333T119 281T110 215Q110 177 120 144T148 86T189 46T240 31Q263 31 294 44T358 81V305Z"  />
<glyph unicode="e" horiz-adv-x="438" d="M114 254Q112 243 111 233T110 212Q110 173 122 141T156 86T204 51T262 38Q300 38 330 53T389 103L400 91Q384 71 365 53T323 20T275 -3T222 -12Q185 -12 154 3T99 47T62 112T48 193Q48 233 61 271T98 340T159 388T241 407Q292 407 319 392T362 355T385 311T406 277V254H114ZM322 280Q314 329 287 358T223 388Q211 388 196 384T167 369T139 336T117 280H322Z"  />
<glyph unicode="f" horiz-adv-x="271" d="M265 352H157V78Q157 43 173 31T231 19H269V0H22V19Q44 19 57 22T77 32T87 53T90 88V352H16V369Q56 378 90 396Q90 458 106 507T167 601Q204 638 239 655T309 672Q330 672 348 667T381 655T404 639T412 625Q412 622 409 614T402 598T393 584T385 577Q380 577 370 584T346 601T313 618T268 626Q214 626 186 586T157 472V396H258L265 352Z"  />
<glyph unicode="g" horiz-adv-x="469" d="M472 314Q466 314 455 315T431 317T402 321T372 326Q377 318 383 302T389 262Q389 234 378 208T344 162T289 129T214 117Q200 117 191 118T168 125Q162 119 152 114T132 102T115 90T107 74Q107 55 141 47T250 38Q292 38 321 37T372 31T407 20T432 2Q450 -16 456 -34T462 -68Q462 -92 446 -121T395 -175T310 -216T189 -233Q111 -233 73 -204T35 -138Q35 -116 45 -102T71 -76T106 -50T142 -15Q122 -13 105 -6T74 10T54 32T47 56Q47 73 58 83T85 100T118 114T149 130Q103 148 78 179T53 254Q53 286 66 314T104 362T160 395T229 407Q299 407 341 367Q375 367 407 370T472 377V314ZM322 253Q322 318 293 353T217 388Q203 388 186 384T155 366T130 331T120 274Q120 252 126 228T144 183T177 150T226 136Q270 136 296 168T322 253ZM97 -105Q97 -123 108 -140T140 -172T187 -196T245 -205Q277 -205 306 -196T359 -170T396 -132T410 -86Q410 -58 390 -44T343 -27Q333 -26 308 -25T254 -24T199 -22T162 -19Q151 -31 140 -40T119 -59T103 -79T97 -105Z"  />
<glyph unicode="h" horiz-adv-x="521" d="M160 79Q160 44 173 32T225 19V0H25V19Q66 21 79 38T93 96V575Q93 592 89 599T68 608L25 614V631L144 672H160V344Q210 373 248 390T325 407Q383 407 409 371T436 258Q436 190 435 144T431 57Q432 37 447 28T507 19V0H291V19Q331 19 347 35Q354 42 358 54T364 91T368 152T369 245Q369 285 360 309T336 345T306 362T278 366Q253 366 225 354T160 319V79Z"  />
<glyph unicode="i" horiz-adv-x="260" d="M168 76Q168 50 184 35T240 19V0H18V19Q64 19 82 35T101 92V293Q101 322 95 330T70 342L23 351V367L153 412H168V76ZM84 599Q84 615 96 626T127 637Q145 637 158 626T171 599Q171 583 158 572T127 561Q109 561 97 572T84 599Z"  />
<glyph unicode="j" horiz-adv-x="250" d="M168 -18Q168 -69 155 -109T120 -176T67 -218T2 -233Q-43 -233 -74 -218T-105 -181Q-105 -162 -96 -149T-75 -135Q-64 -135 -52 -144T-27 -165T2 -185T34 -195Q64 -195 82 -171T101 -86V302Q101 325 95 332T68 343L23 351V367L154 412H168V-18ZM82 599Q82 615 94 626T125 637Q143 637 156 626T169 599Q169 583 156 572T125 561Q107 561 95 572T82 599Z"  />
<glyph unicode="k" horiz-adv-x="500" d="M463 396V377Q436 376 416 371T379 358T345 339T309 314L217 248L377 85Q396 66 410 54T438 34T465 23T496 19V0H281V19Q352 19 311 63L159 221V68Q159 42 170 31T217 19H227V0H22V19Q62 19 77 36T92 86V569Q92 590 87 598T63 608L22 614V631L144 672H159V238L303 341Q323 355 317 366T282 377H265V396H463Z"  />
<glyph unicode="l" horiz-adv-x="240" d="M156 79Q156 19 214 19H231V0H6V19Q54 19 71 34T89 86V569Q89 590 84 598T58 609L13 614V631L141 672H156V79Z"  />
<glyph unicode="m" horiz-adv-x="792" d="M159 81Q159 42 173 31T229 19V0H21V19Q65 19 78 38T92 96V292Q92 321 86 331T63 343L24 348V365L144 407H159V327Q213 365 260 386T337 407Q374 407 399 386T432 327Q483 359 527 383T609 407Q663 407 686 368T709 256Q709 208 709 159T706 64Q706 48 717 34T759 19H791V0H566V19H575Q597 19 608 22T626 33Q637 44 639 83T642 175V253Q642 367 567 367Q544 367 513 355T434 311V81Q434 43 446 31T496 19V0H291V19Q333 19 350 36T367 96V281Q367 305 361 321T344 347T320 362T293 367Q272 367 241 355T159 309V81Z"  />
<glyph unicode="n" horiz-adv-x="521" d="M160 87Q160 66 163 53T173 33T194 22T227 19V0H26V19Q59 19 76 36T93 82V292Q93 320 88 328T63 341L29 348V364L144 406H160V328Q211 360 253 383T332 407Q383 407 411 370T439 257Q439 207 438 176T436 123T433 88T431 59Q430 39 443 29T487 19H509V0H294V19Q316 20 329 25T351 38Q365 52 368 107T372 263Q372 293 366 313T348 345T322 363T293 368Q269 368 234 350T160 304V87Z"  />
<glyph unicode="o" horiz-adv-x="521" d="M45 195Q45 247 64 286T114 353T183 393T261 407Q307 407 346 391T414 347T459 280T476 197Q476 153 460 115T415 48T348 4T264 -12Q217 -12 177 4T108 47T62 113T45 195ZM120 229Q120 184 132 144T165 75T214 29T275 12Q297 12 319 23T360 54T389 104T401 172Q401 215 389 253T355 320T306 366T247 383Q222 383 199 371T159 338T131 289T120 229Z"  />
<glyph unicode="p" horiz-adv-x="500" d="M150 -149Q150 -187 167 -200T217 -214H242V-233H6V-214H16Q54 -214 68 -199T83 -140V301Q83 315 78 322T55 334L23 342V361L130 427H150V331Q197 366 236 385T305 404Q334 404 361 389T408 348T441 289T453 218Q453 173 436 132T390 60T323 11T241 -7Q221 -7 200 -3T150 13V-149ZM150 78Q177 54 208 39T268 24Q293 24 315 35T352 67T377 115T386 173Q386 222 373 257T341 313T298 345T255 355Q232 355 205 342T150 306V78Z"  />
<glyph unicode="q" horiz-adv-x="500" d="M427 -153Q427 -185 444 -199T485 -214H496V-233H254V-214H293Q332 -214 346 -197T360 -137V62Q318 26 282 9T209 -8Q174 -8 144 6T92 47T58 110T46 188Q46 234 62 274T107 343T174 390T257 407Q289 407 319 399T383 373Q389 381 398 390T416 405H433Q430 391 429 380T427 354V-153ZM360 263Q360 290 352 311T328 349T292 373T247 382Q186 382 150 337T113 214Q113 176 123 143T152 86T196 48T251 34Q276 34 306 47T360 85V263Z"  />
<glyph unicode="r" horiz-adv-x="333" d="M160 73Q160 42 173 31T225 19H263V0H26V19Q64 20 78 37T93 94V325L26 349V366L140 406H160V300H162Q181 331 193 350T216 381T235 396T257 401Q266 401 271 400T291 392Q299 389 312 386T343 377L319 317Q308 319 294 322T266 333Q258 337 249 340T231 343Q217 343 209 336T192 317Q172 289 160 267V73Z"  />
<glyph unicode="s" horiz-adv-x="302" d="M48 101Q57 56 83 32T143 7Q173 7 193 26T214 73Q214 89 208 101T182 134Q155 161 129 177T81 210T46 245T32 295Q32 345 67 376T160 407Q200 407 240 391L242 300H225Q220 338 198 360T145 383Q120 383 102 368T84 327Q84 305 98 289T132 257T177 228T221 195T256 155T270 102Q270 78 261 57T235 21T195 -3T146 -12Q132 -12 121 -10T102 -5Q94 -3 88 -1T75 1Q65 1 58 -11H43L32 101H48Z"  />
<glyph unicode="t" horiz-adv-x="292" d="M285 396L269 352H142V119Q142 95 149 79T167 54T189 40T208 35Q240 35 269 85L285 70Q267 31 239 10T176 -12Q131 -12 103 20T75 104V352H29V368Q58 382 83 415T125 495H142V396H285Z"  />
<glyph unicode="u" horiz-adv-x="521" d="M497 29L363 -12V68Q252 -12 193 -12Q174 -12 155 -6T121 13T97 45T87 90V312Q87 330 82 339T60 353L25 363V378L154 406V126Q154 103 161 86T182 58T211 42T244 36Q270 36 301 50T363 91V306Q363 321 362 330T357 345T346 354T326 359L276 368V382L430 406V69Q430 48 439 43T476 43L497 47V29Z"  />
<glyph unicode="v" horiz-adv-x="479" d="M227 -9L82 323Q71 349 61 360T38 373L7 378V396H211V378Q188 377 173 375T151 366T145 350T155 321L261 72L363 303Q370 318 371 331T365 354T342 370T299 378V396H473V378Q444 373 426 356T394 305L256 -9H227Z"  />
<glyph unicode="w" horiz-adv-x="740" d="M498 -9L379 273L259 -9H231L82 327Q71 350 57 362T8 378V396H202V378Q158 376 151 361T160 311L268 70L366 302Q349 340 334 356T292 375L268 378V396H475V378Q438 377 427 364T432 312L530 74L626 308Q643 348 630 363T568 378V396H736V378Q707 375 688 359T654 306L525 -9H498Z"  />
<glyph unicode="x" horiz-adv-x="490" d="M15 396H217V378Q182 378 176 368T184 337L259 238L324 311Q350 340 340 359T291 378V396H484V378L455 375Q422 371 401 356T357 316L272 222L392 72Q412 48 430 34T484 20V0H284V20Q321 20 330 29T320 62L231 176L143 77Q121 52 135 36T194 20V0H8V20Q26 20 39 22T64 31T86 47T110 72L217 192L120 319Q102 343 79 359T15 378V396Z"  />
<glyph unicode="y" horiz-adv-x="469" d="M346 285Q357 313 359 331T356 359T335 373T298 378V396H464V378Q433 374 414 354T381 298L211 -126Q188 -182 169 -207T123 -233Q105 -233 94 -223T82 -198Q82 -183 91 -176T114 -164T141 -156T165 -142Q173 -134 183 -117T199 -85L229 -10L74 319Q60 350 44 363T-5 378V396H196V378Q150 377 142 363T148 317L261 73L346 285Z"  />
<glyph unicode="z" horiz-adv-x="406" d="M31 19L284 360H147H115Q105 360 99 355T87 339T76 309T62 264H43L74 423H91Q91 406 100 401T138 396H376V378L124 36H307Q333 36 347 54T376 109H394L353 0H31V19Z"  />
<glyph unicode="{" horiz-adv-x="479" d="M103 228Q152 237 183 265T214 328Q214 345 211 363T202 400Q197 420 194 440T191 484Q191 517 204 549T242 607T300 650T375 672V654Q348 651 327 640T291 613T270 577T262 538Q262 515 264 496T271 459Q275 441 278 423T281 381Q281 358 272 334T245 288T201 249T142 221V219Q175 209 201 191T244 152T271 106T281 58Q281 35 278 17T271 -19Q267 -37 265 -56T262 -99Q262 -118 269 -137T291 -173T326 -201T375 -215V-233Q334 -229 301 -212T243 -168T205 -110T191 -45Q191 -22 194 -1T202 39Q207 59 210 76T214 111Q214 146 183 174T103 211V228Z"  />
<glyph unicode="|" horiz-adv-x="510" d="M277 637V-233H234V637H277Z"  />
<glyph unicode="}" horiz-adv-x="479" d="M376 211Q327 202 296 174T265 111Q265 94 268 77T276 39Q281 20 284 -1T288 -45Q288 -78 275 -110T237 -168T178 -211T104 -233V-215Q131 -212 152 -201T188 -174T209 -138T217 -99Q217 -76 214 -57T207 -19Q203 -1 201 17T198 58Q198 81 207 105T234 151T278 191T337 219V221Q304 231 278 248T235 288T208 334T198 381Q198 404 200 422T207 459Q211 477 214 496T217 538Q217 557 210 576T188 612T153 640T104 654V672Q144 668 178 651T236 607T274 549T288 484Q288 461 285 441T276 400Q271 381 268 363T265 328Q265 293 296 265T376 228V211Z"  />
<glyph unicode="~" horiz-adv-x="542" d="M535 387Q532 313 498 276T406 238Q372 238 333 251T256 282Q217 299 182 312T119 326Q51 326 35 238H7Q9 314 44 350T136 387Q166 387 202 374T281 343Q322 326 360 312T425 297Q460 297 481 321T507 387H535Z"  />
<glyph unicode="&#xA0;" horiz-adv-x="278" />
<glyph unicode="&#xA1;" horiz-adv-x="260" d="M138 239L175 -211Q176 -225 172 -229T150 -233H105Q88 -233 84 -228T81 -209L118 239H138ZM179 382Q179 361 165 348T128 335Q107 335 92 347T77 382Q77 405 92 417T128 429Q150 429 164 416T179 382Z"  />
<glyph unicode="&#xA2;" horiz-adv-x="427" d="M142 4Q94 31 70 80T46 181Q46 227 65 270T118 345T199 394T302 406L354 533H386L332 399Q388 382 388 350Q388 337 380 329T359 320Q334 320 309 344L190 45Q210 36 224 33T255 29Q291 29 319 46T377 101L391 92Q356 35 301 6T170 -6L104 -168H72L142 4ZM286 364Q271 374 262 377T242 381Q216 381 193 367T152 328T124 272T113 203Q113 123 165 65L286 364Z"  />
<glyph unicode="&#xA3;" horiz-adv-x="760" d="M286 290Q321 380 359 453T457 586Q497 626 535 643T618 660Q642 660 663 654T701 639T726 616T736 589Q736 575 727 567T704 558Q688 558 676 568T652 592T622 615T580 626Q566 626 546 618T507 590Q491 574 474 542T437 469T398 378T357 279T315 179T271 88H443L438 64H260Q240 22 221 -8T175 -71L177 -73Q226 -46 286 -46Q335 -46 371 -65T440 -108T503 -151T570 -171Q608 -171 634 -150T660 -97Q660 -85 656 -76T646 -57T637 -40T632 -24Q632 -8 642 2T667 13Q687 13 699 -5T711 -53Q711 -85 696 -115T654 -169T595 -206T525 -220Q491 -220 464 -210T414 -184T370 -150T329 -116T286 -90T236 -79Q217 -79 198 -85T155 -102Q129 -154 98 -186T41 -218Q30 -218 22 -211T14 -195Q14 -183 24 -168T50 -137T88 -109T132 -86Q154 -48 169 -11T198 64H51L56 88H208L286 290Z"  />
<glyph unicode="&#xA4;" horiz-adv-x="667" d="M533 549L563 518L502 458Q529 421 540 391T551 320Q551 282 540 252T502 183L563 122L533 92L472 153Q453 139 437 130T404 114T370 106T334 103Q295 103 264 114T196 152L135 92L105 122L166 182Q139 220 128 250T117 320Q117 359 128 390T166 458L105 518L135 549L196 489Q234 516 264 526T334 537Q373 537 403 527T472 488L533 549ZM160 320Q160 284 173 253T211 198T266 160T334 146Q370 146 401 160T456 197T494 252T508 320Q508 356 494 387T457 443T402 480T334 494Q298 494 267 481T211 443T174 388T160 320Z"  />
<glyph unicode="&#xA5;" horiz-adv-x="500" d="M365 457L408 531Q431 572 418 587T357 603V622H583V603Q532 599 506 580T458 524L419 457H530V424H399L306 267H530V234H292V93Q292 53 309 36T372 19H385V0H110V19H129Q176 19 192 36T209 91V234H-59V267H187L86 424H-59V457H65L31 510Q13 539 -2 557T-32 585T-64 598T-106 603V622H160V603Q131 603 115 600T93 588T92 568T107 538L160 457H365ZM181 424L267 291L345 424H181Z"  />
<glyph unicode="&#xA6;" horiz-adv-x="510" d="M277 136V-233H234V136H277ZM277 637V268H234V637H277Z"  />
<glyph unicode="&#xA7;" horiz-adv-x="469" d="M313 -114Q313 -89 294 -54T245 22T183 110T120 206T72 305T52 406Q52 457 69 503T117 584T189 639T277 660Q301 660 324 655T365 640T394 619T405 595Q405 581 395 572T369 563Q353 563 341 573T317 596T288 619T247 630Q210 630 183 607T156 549Q156 518 189 468T282 335Q312 293 337 255T379 179T406 102T416 18Q416 -39 394 -83T338 -158T264 -205T188 -221Q164 -221 142 -216T103 -202T76 -182T65 -158Q65 -145 74 -136T97 -126Q113 -126 124 -136T148 -159T178 -181T222 -192Q240 -192 256 -186T285 -169T305 -144T313 -114ZM175 192Q198 155 225 117T277 42T320 -32T345 -103Q378 -54 378 8Q378 51 370 85T348 152T312 216T264 288Q240 322 216 357T172 426T138 489T124 541H122Q107 518 98 484T89 416Q89 382 98 350T120 289T148 236T175 192Z"  />
<glyph unicode="&#xA8;" horiz-adv-x="333" d="M264 603Q282 603 295 590T308 559Q308 541 295 528T264 515Q246 515 233 528T220 559Q220 577 233 590T264 603ZM70 603Q88 603 101 590T114 559Q114 541 101 528T70 515Q52 515 39 528T26 559Q26 577 39 590T70 603Z"  />
<glyph unicode="&#xA9;" horiz-adv-x="760" d="M560 417H541Q506 533 393 533Q321 533 279 482T236 343Q236 288 249 250T284 187T335 152T398 141Q493 141 550 220L569 211Q501 112 381 112Q333 112 292 128T220 174T173 242T155 328Q155 376 173 417T224 489T301 536T398 554Q421 554 438 551T468 543T490 536T508 532Q518 532 523 538T531 554H550L560 417ZM380 677Q452 677 515 650T625 576T699 466T726 331Q726 259 699 196T625 86T515 12T380 -15Q308 -15 245 12T135 86T61 196T34 331Q34 403 61 466T135 576T245 650T380 677ZM380 647Q314 647 257 622T157 555T89 455T64 331Q64 265 89 208T156 108T256 40T380 15Q446 15 503 40T603 107T671 207T696 331Q696 397 671 454T604 554T504 622T380 647Z"  />
<glyph unicode="&#xAA;" horiz-adv-x="260" d="M29 552Q21 562 28 576T51 604T87 627T125 637Q140 637 155 633T181 620T200 600T208 574V446Q208 433 209 426T219 419Q227 419 236 424T253 436L259 419Q217 384 189 384Q161 384 155 415Q130 396 117 390T84 384Q56 384 39 398T21 436Q21 457 34 468T68 486T111 500T153 517V572Q153 592 139 603T112 614Q106 614 99 611T86 603T80 591T83 576L29 552ZM153 497Q135 489 121 484T96 474T80 462T74 443Q74 429 82 420T105 411Q111 411 126 419T153 434V497Z"  />
<glyph unicode="&#xAB;" horiz-adv-x="354" d="M310 50H292L175 219L292 388H310L245 219L310 50ZM199 35H181L34 219L181 403H199L104 219L199 35Z"  />
<glyph unicode="&#xAC;" horiz-adv-x="667" d="M596 462V180H551V418H71V462H596Z"  />
<glyph unicode="&#xAD;" horiz-adv-x="396" d="M361 221V171H35V221H361Z"  />
<glyph unicode="&#xAE;" horiz-adv-x="760" d="M376 544Q442 544 482 514T522 434Q522 353 413 326L515 180Q532 156 544 148T574 137V121H484L340 319H304V175Q304 155 316 146T361 137V121H182V137Q210 137 221 148T233 180V484Q233 504 225 515T188 526V544H376ZM323 340Q346 340 367 345T406 360T433 388T443 429Q443 469 415 495T344 522Q333 522 325 521T304 515V340H323ZM380 677Q452 677 515 650T625 576T699 466T726 331Q726 259 699 196T625 86T515 12T380 -15Q308 -15 245 12T135 86T61 196T34 331Q34 403 61 466T135 576T245 650T380 677ZM380 647Q314 647 257 622T157 555T89 455T64 331Q64 265 89 208T156 108T256 40T380 15Q446 15 503 40T603 107T671 207T696 331Q696 397 671 454T604 554T504 622T380 647Z"  />
<glyph unicode="&#xAF;" horiz-adv-x="333" d="M304 589V531H29V589H304Z"  />
<glyph unicode="&#xB0;" horiz-adv-x="396" d="M198 598Q175 598 156 590T121 566T98 531T89 489Q89 466 97 447T121 412T155 389T198 380Q220 380 240 388T275 412T298 446T307 489Q307 511 299 531T275 566T240 589T198 598ZM198 639Q229 639 256 627T304 595T336 548T348 489Q348 458 336 431T304 383T257 351T198 339Q167 339 140 351T92 383T60 430T48 489Q48 520 60 547T92 595T139 627T198 639Z"  />
<glyph unicode="&#xB1;" horiz-adv-x="667" d="M596 26V-18H71V26H596ZM596 421V377H355V136H311V377H71V421H311V661H355V421H596Z"  />
<glyph unicode="&#xB2;" horiz-adv-x="302" d="M8 422Q23 438 47 460T120 524Q196 589 196 641Q196 656 190 668T173 689T150 701T124 706Q115 706 103 703T77 693T53 672T35 637H15Q18 664 30 684T59 717T98 736T140 742Q163 742 184 736T220 717T245 687T255 649Q255 629 249 614T230 584T200 557T159 527Q129 505 104 484T61 448H189Q205 448 215 448T231 453T240 465T246 488H267L255 410H8V422Z"  />
<glyph unicode="&#xB3;" horiz-adv-x="302" d="M89 577Q100 584 114 594T141 615T162 640T171 665Q171 688 154 698T120 709Q118 709 110 708T91 703T68 687T44 657L23 664Q33 686 47 700T77 724T109 737T139 741Q173 741 197 725T222 681Q222 644 168 612Q213 608 235 583T257 525Q257 502 245 480T211 441T162 414T101 403Q86 403 69 405T39 413T16 426T7 442Q7 452 15 457T32 463Q41 463 49 459T77 440Q86 434 96 429T122 423Q136 423 150 429T175 448T194 476T201 512Q201 530 195 543T181 564T162 576T143 580Q129 580 119 575T100 563L89 577Z"  />
<glyph unicode="&#xB4;" horiz-adv-x="333" d="M70 488L162 615Q177 635 194 647T226 659Q240 659 248 651T257 630Q257 616 241 600T189 559L83 488H70Z"  />
<glyph unicode="&#xB5;" horiz-adv-x="500" d="M124 396V180Q124 142 128 116T141 73T165 49T205 41Q243 41 273 57T335 111V396H402V95Q402 68 412 54T436 39Q466 39 475 99H496Q494 48 471 17T410 -14Q380 -14 358 10T335 79Q291 35 252 11T169 -14Q143 -14 127 -5T93 28Q90 0 93 -25T101 -73T110 -119T115 -163Q115 -185 102 -200T70 -216Q51 -216 39 -202T27 -163Q27 -144 31 -125T42 -82T52 -30T57 36V396H124Z"  />
<glyph unicode="&#xB6;" horiz-adv-x="448" d="M390 -233H354V595H263V-233H227V253Q165 253 121 266T49 304T7 363T-7 438Q-7 525 51 573T213 622H454V595H390V-233Z"  />
<glyph unicode="&#xB7;" horiz-adv-x="260" d="M130 370Q151 370 166 358T181 323Q181 300 166 288T130 276Q108 276 94 289T79 323Q79 344 93 357T130 370Z"  />
<glyph unicode="&#xB8;" horiz-adv-x="333" d="M119 -187Q132 -191 145 -191Q167 -191 182 -176T198 -140Q198 -123 190 -114T166 -104Q144 -104 102 -124L180 5H195L163 -49Q179 -46 193 -51T217 -67T234 -93T240 -123Q240 -159 215 -184T155 -209Q144 -209 134 -207T112 -201L119 -187Z"  />
<glyph unicode="&#xB9;" horiz-adv-x="302" d="M183 741V446Q183 434 187 430T201 426H238V410H78V426H111Q126 426 129 430T132 446V688Q114 677 98 668T61 650L53 663Q63 669 76 678T104 697T131 719T153 741H183Z"  />
<glyph unicode="&#xBA;" horiz-adv-x="344" d="M314 511Q314 488 304 466T275 425T230 396T170 384Q128 384 100 399T56 434T33 476T26 511Q26 531 35 553T63 594T108 625T170 637Q212 637 240 623T284 588T307 546T314 511ZM87 530Q87 504 94 482T114 442T143 415T180 405Q212 405 233 431T255 496Q255 520 248 542T227 580T198 606T162 616Q130 616 109 592T87 530Z"  />
<glyph unicode="&#xBB;" horiz-adv-x="354" d="M44 388H62L179 219L62 50H44L109 219L44 388ZM155 403H173L320 219L173 35H155L250 219L155 403Z"  />
<glyph unicode="&#xBC;" horiz-adv-x="719" d="M567 -7H516V93H365V108L541 331H567V124H626V93H567V-7ZM516 264H514L407 124H516V264ZM132 584Q109 569 94 561T62 546L53 559Q68 567 83 578T111 599T136 620T153 637H183V339Q183 329 187 326T202 322H238V306H78V322H119Q125 322 128 325T132 338V584ZM76 -27L562 654H603L117 -27H76Z"  />
<glyph unicode="&#xBD;" horiz-adv-x="719" d="M76 -27L562 654H603L117 -27H76ZM663 78L651 0H404V12Q441 49 475 78T535 132T576 180T592 231Q592 259 572 277T520 296Q489 296 466 278T432 227H411Q416 274 450 302T536 331Q585 331 618 305T651 238Q651 205 636 185T594 145T533 101T460 36H597Q621 36 629 43T642 78H663ZM132 584Q109 569 94 561T62 546L53 559Q68 567 83 578T111 599T136 620T153 637H183V339Q183 329 187 326T202 322H238V306H78V322H119Q125 322 128 325T132 338V584Z"  />
<glyph unicode="&#xBE;" horiz-adv-x="719" d="M533 -7V93H382V108L558 331H584V124H643V93H584V-7H533ZM533 264H531L424 124H533V264ZM93 -27L579 654H620L134 -27H93ZM108 473Q146 498 168 518T191 561Q191 580 176 592T139 605Q117 605 97 592T63 553L43 560Q60 596 90 616T159 637Q194 637 218 620T242 577Q242 540 188 509V507Q229 504 253 481T277 421Q277 397 265 375T231 336T181 309T121 299Q83 299 55 310T27 338Q27 346 34 352T51 359Q62 359 72 353T93 339T115 325T142 319Q158 319 172 326T197 345T214 374T221 408Q221 437 204 456T162 476Q151 476 142 473T120 459L108 473Z"  />
<glyph unicode="&#xBF;" horiz-adv-x="354" d="M216 -233Q180 -233 149 -221T94 -185T57 -130T43 -56Q43 -9 56 20T90 68T133 97T176 115T209 132T223 160Q223 179 213 197T185 232H207Q227 210 241 183T256 129Q256 100 242 83T207 56T162 37T116 16T81 -15T67 -68Q67 -113 95 -135T169 -157Q193 -157 212 -154T246 -150Q267 -150 285 -157T303 -186Q303 -206 284 -219T216 -233ZM199 318Q178 318 163 330T148 365Q148 388 163 400T199 412Q221 412 235 399T250 365Q250 344 236 331T199 318Z"  />
<glyph unicode="&#xC0;" horiz-adv-x="677" d="M216 276L158 119Q153 105 146 86T138 56Q138 36 157 28T219 19H235V0H4V19Q28 19 43 22T70 36T91 66T112 118L294 615L285 637H372L581 82Q588 62 596 50T615 31T639 22T672 19V0H397V19H423Q466 19 483 25T501 53Q501 65 497 75T490 94L423 276H216ZM318 553L233 320H406L318 553ZM310 772Q274 796 258 812T242 843Q242 856 250 864T273 872Q288 872 305 860T337 828L429 701H416L310 772Z"  />
<glyph unicode="&#xC1;" horiz-adv-x="677" d="M216 276L158 119Q153 105 146 86T138 56Q138 36 157 28T219 19H235V0H4V19Q28 19 43 22T70 36T91 66T112 118L294 615L285 637H372L581 82Q588 62 596 50T615 31T639 22T672 19V0H397V19H423Q466 19 483 25T501 53Q501 65 497 75T490 94L423 276H216ZM318 553L233 320H406L318 553ZM242 701L334 828Q349 848 366 860T398 872Q412 872 420 864T429 843Q429 829 413 813T361 772L255 701H242Z"  />
<glyph unicode="&#xC2;" horiz-adv-x="677" d="M216 276L158 119Q153 105 146 86T138 56Q138 36 157 28T219 19H235V0H4V19Q28 19 43 22T70 36T91 66T112 118L294 615L285 637H372L581 82Q588 62 596 50T615 31T639 22T672 19V0H397V19H423Q466 19 483 25T501 53Q501 65 497 75T490 94L423 276H216ZM318 553L233 320H406L318 553ZM218 699V716L326 896H354L460 716V699L336 824L218 699Z"  />
<glyph unicode="&#xC3;" horiz-adv-x="677" d="M216 276L158 119Q153 105 146 86T138 56Q138 36 157 28T219 19H235V0H4V19Q28 19 43 22T70 36T91 66T112 118L294 615L285 637H372L581 82Q588 62 596 50T615 31T639 22T672 19V0H397V19H423Q466 19 483 25T501 53Q501 65 497 75T490 94L423 276H216ZM318 553L233 320H406L318 553ZM204 721Q204 777 225 805T285 833Q305 833 322 824T356 803Q373 792 387 782T416 772Q458 772 462 833H473Q476 808 470 788T453 753T427 730T396 722Q376 722 359 732T325 753Q309 764 294 773T264 783Q223 783 215 721H204Z"  />
<glyph unicode="&#xC4;" horiz-adv-x="677" d="M216 276L158 119Q153 105 146 86T138 56Q138 36 157 28T219 19H235V0H4V19Q28 19 43 22T70 36T91 66T112 118L294 615L285 637H372L581 82Q588 62 596 50T615 31T639 22T672 19V0H397V19H423Q466 19 483 25T501 53Q501 65 497 75T490 94L423 276H216ZM318 553L233 320H406L318 553ZM436 816Q454 816 467 803T480 772Q480 754 467 741T436 728Q418 728 405 741T392 772Q392 790 405 803T436 816ZM242 816Q260 816 273 803T286 772Q286 754 273 741T242 728Q224 728 211 741T198 772Q198 790 211 803T242 816Z"  />
<glyph unicode="&#xC5;" horiz-adv-x="677" d="M216 276L158 119Q153 105 146 86T138 56Q138 36 157 28T219 19H235V0H4V19Q28 19 43 22T70 36T91 66T112 118L294 615L285 637H372L581 82Q588 62 596 50T615 31T639 22T672 19V0H397V19H423Q466 19 483 25T501 53Q501 65 497 75T490 94L423 276H216ZM318 553L233 320H406L318 553ZM339 857Q377 857 403 831T430 766Q430 728 404 702T339 675Q301 675 275 701T248 766Q248 804 274 830T339 857ZM339 833Q311 833 292 814T272 766Q272 738 291 719T339 699Q367 699 386 718T406 766Q406 794 387 813T339 833Z"  />
<glyph unicode="&#xC6;" horiz-adv-x="875" d="M409 597L219 283H418V597H409ZM745 225H726Q723 252 718 267T705 291T685 301T658 304H501V91Q501 56 514 46T555 36H697Q723 36 741 41T772 60T794 95T813 149H831L815 0H296V19H324Q354 19 372 23T401 37T414 62T418 101V247H198L99 86Q90 71 87 59T90 38T113 24T162 19V0H-52V19Q-34 19 -20 23T7 38T33 64T60 104L323 539Q361 603 296 603H274V622H784L792 483H774Q769 517 761 537T744 569T723 583T700 586H501V340H668Q695 340 708 355T726 415H745V225Z"  />
<glyph unicode="&#xC7;" horiz-adv-x="729" d="M369 -14Q299 -10 241 15T140 83T75 181T52 303Q52 376 78 437T153 542T267 612T411 637Q458 637 492 631T552 617T593 603T622 597Q636 597 640 603H655L664 458H645Q633 493 611 521T558 570T492 602T417 613Q357 613 307 589T222 525T166 433T146 324Q146 260 168 203T229 103T319 35T428 10Q458 10 491 18T557 44T620 90T672 157H691Q686 140 679 121T664 82T646 44T627 11Q603 14 582 11T534 1T471 -10T383 -16L363 -49Q379 -46 393 -51T417 -67T434 -93T440 -123Q440 -159 415 -184T355 -209Q344 -209 334 -207T312 -201L319 -187Q332 -191 345 -191Q367 -191 382 -176T398 -140Q398 -123 390 -114T366 -104Q344 -104 302 -124L369 -14Z"  />
<glyph unicode="&#xC8;" horiz-adv-x="594" d="M464 225H445Q442 252 437 267T424 291T404 301T377 304H208V91Q208 56 221 46T262 36H416Q442 36 460 41T491 60T513 95T532 149H550L534 0H3V19H31Q61 19 79 23T108 37T121 62T125 101V523Q125 565 110 584T45 603H23V622H503L511 483H493Q488 515 481 535T465 566T444 582T419 586H208V340H387Q414 340 427 355T445 415H464V225ZM269 772Q233 796 217 812T201 843Q201 856 209 864T232 872Q247 872 264 860T296 828L388 701H375L269 772Z"  />
<glyph unicode="&#xC9;" horiz-adv-x="594" d="M464 225H445Q442 252 437 267T424 291T404 301T377 304H208V91Q208 56 221 46T262 36H416Q442 36 460 41T491 60T513 95T532 149H550L534 0H3V19H31Q61 19 79 23T108 37T121 62T125 101V523Q125 565 110 584T45 603H23V622H503L511 483H493Q488 515 481 535T465 566T444 582T419 586H208V340H387Q414 340 427 355T445 415H464V225ZM201 701L293 828Q308 848 325 860T357 872Q371 872 379 864T388 843Q388 829 372 813T320 772L214 701H201Z"  />
<glyph unicode="&#xCA;" horiz-adv-x="594" d="M464 225H445Q442 252 437 267T424 291T404 301T377 304H208V91Q208 56 221 46T262 36H416Q442 36 460 41T491 60T513 95T532 149H550L534 0H3V19H31Q61 19 79 23T108 37T121 62T125 101V523Q125 565 110 584T45 603H23V622H503L511 483H493Q488 515 481 535T465 566T444 582T419 586H208V340H387Q414 340 427 355T445 415H464V225ZM177 699V716L285 896H313L419 716V699L295 824L177 699Z"  />
<glyph unicode="&#xCB;" horiz-adv-x="594" d="M464 225H445Q442 252 437 267T424 291T404 301T377 304H208V91Q208 56 221 46T262 36H416Q442 36 460 41T491 60T513 95T532 149H550L534 0H3V19H31Q61 19 79 23T108 37T121 62T125 101V523Q125 565 110 584T45 603H23V622H503L511 483H493Q488 515 481 535T465 566T444 582T419 586H208V340H387Q414 340 427 355T445 415H464V225ZM395 816Q413 816 426 803T439 772Q439 754 426 741T395 728Q377 728 364 741T351 772Q351 790 364 803T395 816ZM201 816Q219 816 232 803T245 772Q245 754 232 741T201 728Q183 728 170 741T157 772Q157 790 170 803T201 816Z"  />
<glyph unicode="&#xCC;" horiz-adv-x="333" d="M288 0H45V19Q68 20 82 24T105 38T117 64T120 105V531Q120 572 104 586T45 603V622H288V603Q241 603 222 588T203 522V98Q203 76 206 61T219 37T245 23T288 19V0ZM138 772Q102 796 86 812T70 843Q70 856 78 864T101 872Q116 872 133 860T165 828L257 701H244L138 772Z"  />
<glyph unicode="&#xCD;" horiz-adv-x="333" d="M288 0H45V19Q68 20 82 24T105 38T117 64T120 105V531Q120 572 104 586T45 603V622H288V603Q241 603 222 588T203 522V98Q203 76 206 61T219 37T245 23T288 19V0ZM70 701L162 828Q177 848 194 860T226 872Q240 872 248 864T257 843Q257 829 241 813T189 772L83 701H70Z"  />
<glyph unicode="&#xCE;" horiz-adv-x="333" d="M288 0H45V19Q68 20 82 24T105 38T117 64T120 105V531Q120 572 104 586T45 603V622H288V603Q241 603 222 588T203 522V98Q203 76 206 61T219 37T245 23T288 19V0ZM46 699V716L154 896H182L288 716V699L164 824L46 699Z"  />
<glyph unicode="&#xCF;" horiz-adv-x="333" d="M288 0H45V19Q68 20 82 24T105 38T117 64T120 105V531Q120 572 104 586T45 603V622H288V603Q241 603 222 588T203 522V98Q203 76 206 61T219 37T245 23T288 19V0ZM264 816Q282 816 295 803T308 772Q308 754 295 741T264 728Q246 728 233 741T220 772Q220 790 233 803T264 816ZM70 816Q88 816 101 803T114 772Q114 754 101 741T70 728Q52 728 39 741T26 772Q26 790 39 803T70 816Z"  />
<glyph unicode="&#xD0;" horiz-adv-x="760" d="M111 522Q111 546 108 562T95 587T72 599T35 603H15V622Q43 624 78 625T156 628Q198 630 241 630T324 631Q423 631 495 608T613 544T682 449T705 332Q705 275 683 216T615 109T500 31T335 0H15V19H32Q73 19 92 33T111 92V291H15V331H111V522ZM372 291H194V74Q194 59 195 49T205 32T229 22T276 19Q326 19 363 23T429 36T481 61T528 100Q542 113 556 134T583 182T603 243T611 316Q611 372 594 429T531 531Q514 548 491 563T438 589T367 606T274 612Q243 612 223 611T194 608V331H372V291Z"  />
<glyph unicode="&#xD1;" horiz-adv-x="813" d="M679 -7L161 535V106Q161 79 165 62T180 36T210 23T262 19V0H30V19H34Q81 19 98 35T116 86V578Q82 602 32 603V622H189L660 131V529Q660 552 656 566T641 588T611 599T562 603V622H796V603Q768 603 750 601T722 592T709 576T705 551V-7H679ZM272 721Q272 777 293 805T353 833Q373 833 390 824T424 803Q441 792 455 782T484 772Q526 772 530 833H541Q544 808 538 788T521 753T495 730T464 722Q444 722 427 732T393 753Q377 764 362 773T332 783Q291 783 283 721H272Z"  />
<glyph unicode="&#xD2;" horiz-adv-x="823" d="M770 328Q770 252 742 189T665 81T552 10T414 -16Q340 -16 275 6T160 70T82 169T53 297Q53 372 80 434T156 542T272 612T419 637Q490 637 553 614T665 550T741 452T770 328ZM676 295Q676 365 655 423T597 523T507 588T393 612Q327 612 281 585T204 515T161 423T147 328Q147 258 169 200T231 99T322 33T435 9Q496 9 541 33T617 98T661 190T676 295ZM383 772Q347 796 331 812T315 843Q315 856 323 864T346 872Q361 872 378 860T410 828L502 701H489L383 772Z"  />
<glyph unicode="&#xD3;" horiz-adv-x="823" d="M770 328Q770 252 742 189T665 81T552 10T414 -16Q340 -16 275 6T160 70T82 169T53 297Q53 372 80 434T156 542T272 612T419 637Q490 637 553 614T665 550T741 452T770 328ZM676 295Q676 365 655 423T597 523T507 588T393 612Q327 612 281 585T204 515T161 423T147 328Q147 258 169 200T231 99T322 33T435 9Q496 9 541 33T617 98T661 190T676 295ZM315 701L407 828Q422 848 439 860T471 872Q485 872 493 864T502 843Q502 829 486 813T434 772L328 701H315Z"  />
<glyph unicode="&#xD4;" horiz-adv-x="823" d="M770 328Q770 252 742 189T665 81T552 10T414 -16Q340 -16 275 6T160 70T82 169T53 297Q53 372 80 434T156 542T272 612T419 637Q490 637 553 614T665 550T741 452T770 328ZM676 295Q676 365 655 423T597 523T507 588T393 612Q327 612 281 585T204 515T161 423T147 328Q147 258 169 200T231 99T322 33T435 9Q496 9 541 33T617 98T661 190T676 295ZM291 699V716L399 896H427L533 716V699L409 824L291 699Z"  />
<glyph unicode="&#xD5;" horiz-adv-x="823" d="M770 328Q770 252 742 189T665 81T552 10T414 -16Q340 -16 275 6T160 70T82 169T53 297Q53 372 80 434T156 542T272 612T419 637Q490 637 553 614T665 550T741 452T770 328ZM676 295Q676 365 655 423T597 523T507 588T393 612Q327 612 281 585T204 515T161 423T147 328Q147 258 169 200T231 99T322 33T435 9Q496 9 541 33T617 98T661 190T676 295ZM277 721Q277 777 298 805T358 833Q378 833 395 824T429 803Q446 792 460 782T489 772Q531 772 535 833H546Q549 808 543 788T526 753T500 730T469 722Q449 722 432 732T398 753Q382 764 367 773T337 783Q296 783 288 721H277Z"  />
<glyph unicode="&#xD6;" horiz-adv-x="823" d="M770 328Q770 252 742 189T665 81T552 10T414 -16Q340 -16 275 6T160 70T82 169T53 297Q53 372 80 434T156 542T272 612T419 637Q490 637 553 614T665 550T741 452T770 328ZM676 295Q676 365 655 423T597 523T507 588T393 612Q327 612 281 585T204 515T161 423T147 328Q147 258 169 200T231 99T322 33T435 9Q496 9 541 33T617 98T661 190T676 295ZM509 816Q527 816 540 803T553 772Q553 754 540 741T509 728Q491 728 478 741T465 772Q465 790 478 803T509 816ZM315 816Q333 816 346 803T359 772Q359 754 346 741T315 728Q297 728 284 741T271 772Q271 790 284 803T315 816Z"  />
<glyph unicode="&#xD7;" horiz-adv-x="667" d="M127 83L95 115L301 321L95 527L127 559L333 353L540 560L573 527L366 320L572 114L540 82L333 289L127 83Z"  />
<glyph unicode="&#xD8;" horiz-adv-x="823" d="M712 665L726 651L650 562Q672 546 693 524T732 473T760 408T771 325Q771 251 743 189T666 81T552 10T414 -16Q400 -16 377 -15T325 -7T264 11T197 45L101 -63L87 -51L180 56Q144 81 120 111T82 174T61 238T54 302Q54 367 79 427T150 534T264 609T416 637Q458 637 491 631T552 616T599 595T633 575L712 665ZM592 528Q552 571 500 591T389 612Q330 612 286 587T210 522T164 430T148 325Q148 265 167 209T224 107L592 528ZM237 93Q245 84 261 70T302 43T359 19T430 9Q499 9 546 36T623 105T664 197T677 295Q677 355 661 410T605 513L237 93Z"  />
<glyph unicode="&#xD9;" horiz-adv-x="792" d="M780 622V603Q729 602 709 581T689 511V241Q689 194 674 149T623 66T531 7T393 -16Q321 -16 267 3T177 56T123 136T104 236V528Q104 552 100 566T87 589T60 600T18 603V622H275V603H266Q224 603 206 589T187 530V252Q187 150 245 93T415 36Q457 36 498 46T571 80T623 147T643 253V486Q643 522 640 544T626 579T596 596T545 603V622H780ZM368 772Q332 796 316 812T300 843Q300 856 308 864T331 872Q346 872 363 860T395 828L487 701H474L368 772Z"  />
<glyph unicode="&#xDA;" horiz-adv-x="792" d="M780 622V603Q729 602 709 581T689 511V241Q689 194 674 149T623 66T531 7T393 -16Q321 -16 267 3T177 56T123 136T104 236V528Q104 552 100 566T87 589T60 600T18 603V622H275V603H266Q224 603 206 589T187 530V252Q187 150 245 93T415 36Q457 36 498 46T571 80T623 147T643 253V486Q643 522 640 544T626 579T596 596T545 603V622H780ZM300 701L392 828Q407 848 424 860T456 872Q470 872 478 864T487 843Q487 829 471 813T419 772L313 701H300Z"  />
<glyph unicode="&#xDB;" horiz-adv-x="792" d="M780 622V603Q729 602 709 581T689 511V241Q689 194 674 149T623 66T531 7T393 -16Q321 -16 267 3T177 56T123 136T104 236V528Q104 552 100 566T87 589T60 600T18 603V622H275V603H266Q224 603 206 589T187 530V252Q187 150 245 93T415 36Q457 36 498 46T571 80T623 147T643 253V486Q643 522 640 544T626 579T596 596T545 603V622H780ZM276 699V716L384 896H412L518 716V699L394 824L276 699Z"  />
<glyph unicode="&#xDC;" horiz-adv-x="792" d="M780 622V603Q729 602 709 581T689 511V241Q689 194 674 149T623 66T531 7T393 -16Q321 -16 267 3T177 56T123 136T104 236V528Q104 552 100 566T87 589T60 600T18 603V622H275V603H266Q224 603 206 589T187 530V252Q187 150 245 93T415 36Q457 36 498 46T571 80T623 147T643 253V486Q643 522 640 544T626 579T596 596T545 603V622H780ZM494 816Q512 816 525 803T538 772Q538 754 525 741T494 728Q476 728 463 741T450 772Q450 790 463 803T494 816ZM300 816Q318 816 331 803T344 772Q344 754 331 741T300 728Q282 728 269 741T256 772Q256 790 269 803T300 816Z"  />
<glyph unicode="&#xDD;" horiz-adv-x="708" d="M512 531Q536 573 523 588T461 603V622H687V603Q636 599 610 579T562 524L396 243V93Q396 53 413 36T476 19H489V0H214V19H233Q280 19 296 36T313 91V232L135 510Q117 539 102 557T72 585T40 598T-2 603V622H264V603Q235 603 219 600T197 588T196 568T211 538L371 291L512 531ZM258 701L350 828Q365 848 382 860T414 872Q428 872 436 864T445 843Q445 829 429 813T377 772L271 701H258Z"  />
<glyph unicode="&#xDE;" horiz-adv-x="563" d="M117 545Q117 580 103 591T50 603H36V622H281V603H267Q228 603 214 592T200 545V497Q221 498 242 498T270 499Q348 499 398 482T476 439T516 382T527 322Q527 278 510 243T462 183T385 145T285 131Q262 131 243 132T200 139V96Q200 55 216 37T280 19H313V0H36V19H50Q89 19 103 30T117 77V545ZM200 158Q210 156 225 153T254 150Q295 150 328 163T384 199T420 255T433 325Q433 359 424 388T396 437T345 468T269 480Q252 480 235 480T200 476V158Z"  />
<glyph unicode="&#xDF;" horiz-adv-x="521" d="M235 369Q302 376 338 414T375 515Q375 575 345 611T263 648Q236 648 216 637T181 605T159 556T152 496V81Q152 42 166 31T217 19V0H20V19Q60 19 72 30T85 71V436Q85 500 101 544T143 617T204 659T274 672Q309 672 340 661T393 629T429 582T442 524Q442 471 405 431T301 367V365Q332 359 363 345T419 308T459 254T475 180Q475 129 458 93T415 34T360 -1T307 -12Q287 -12 274 -3T261 20Q261 31 268 39T284 47Q292 47 299 44T313 36T328 29T345 25Q357 25 367 35T384 64T396 108T400 163Q400 215 389 254T353 318Q331 340 303 347T235 354V369Z"  />
<glyph unicode="&#xE0;" horiz-adv-x="396" d="M45 277Q42 286 42 291Q42 304 56 324T91 362T139 394T190 407Q213 407 243 395T295 354Q301 346 304 339T308 323T310 300T310 268V134Q310 104 310 85T313 55T321 40T336 36Q344 36 355 39T385 58L390 43Q349 10 327 -1T291 -12Q276 -12 267 -5T253 12T247 32T245 49Q219 28 202 16T171 -3T149 -10T129 -12Q85 -12 61 10T36 70Q36 93 45 109T71 136T108 154T154 168Q170 172 193 181T243 206V285Q243 306 241 320T226 349Q216 361 202 369T170 378Q145 378 127 362T108 329Q108 321 113 310L45 277ZM243 186Q229 178 216 172T184 158Q161 149 145 142T119 126T105 108T100 82Q100 55 118 39T159 23Q165 23 171 24T186 30T208 43T243 67V186ZM170 559Q134 583 118 599T102 630Q102 643 110 651T133 659Q148 659 165 647T197 615L289 488H276L170 559Z"  />
<glyph unicode="&#xE1;" horiz-adv-x="396" d="M45 277Q42 286 42 291Q42 304 56 324T91 362T139 394T190 407Q213 407 243 395T295 354Q301 346 304 339T308 323T310 300T310 268V134Q310 104 310 85T313 55T321 40T336 36Q344 36 355 39T385 58L390 43Q349 10 327 -1T291 -12Q276 -12 267 -5T253 12T247 32T245 49Q219 28 202 16T171 -3T149 -10T129 -12Q85 -12 61 10T36 70Q36 93 45 109T71 136T108 154T154 168Q170 172 193 181T243 206V285Q243 306 241 320T226 349Q216 361 202 369T170 378Q145 378 127 362T108 329Q108 321 113 310L45 277ZM243 186Q229 178 216 172T184 158Q161 149 145 142T119 126T105 108T100 82Q100 55 118 39T159 23Q165 23 171 24T186 30T208 43T243 67V186ZM102 488L194 615Q209 635 226 647T258 659Q272 659 280 651T289 630Q289 616 273 600T221 559L115 488H102Z"  />
<glyph unicode="&#xE2;" horiz-adv-x="396" d="M45 277Q42 286 42 291Q42 304 56 324T91 362T139 394T190 407Q213 407 243 395T295 354Q301 346 304 339T308 323T310 300T310 268V134Q310 104 310 85T313 55T321 40T336 36Q344 36 355 39T385 58L390 43Q349 10 327 -1T291 -12Q276 -12 267 -5T253 12T247 32T245 49Q219 28 202 16T171 -3T149 -10T129 -12Q85 -12 61 10T36 70Q36 93 45 109T71 136T108 154T154 168Q170 172 193 181T243 206V285Q243 306 241 320T226 349Q216 361 202 369T170 378Q145 378 127 362T108 329Q108 321 113 310L45 277ZM243 186Q229 178 216 172T184 158Q161 149 145 142T119 126T105 108T100 82Q100 55 118 39T159 23Q165 23 171 24T186 30T208 43T243 67V186ZM78 486V503L186 683H214L320 503V486L196 611L78 486Z"  />
<glyph unicode="&#xE3;" horiz-adv-x="396" d="M45 277Q42 286 42 291Q42 304 56 324T91 362T139 394T190 407Q213 407 243 395T295 354Q301 346 304 339T308 323T310 300T310 268V134Q310 104 310 85T313 55T321 40T336 36Q344 36 355 39T385 58L390 43Q349 10 327 -1T291 -12Q276 -12 267 -5T253 12T247 32T245 49Q219 28 202 16T171 -3T149 -10T129 -12Q85 -12 61 10T36 70Q36 93 45 109T71 136T108 154T154 168Q170 172 193 181T243 206V285Q243 306 241 320T226 349Q216 361 202 369T170 378Q145 378 127 362T108 329Q108 321 113 310L45 277ZM243 186Q229 178 216 172T184 158Q161 149 145 142T119 126T105 108T100 82Q100 55 118 39T159 23Q165 23 171 24T186 30T208 43T243 67V186ZM64 508Q64 564 85 592T145 620Q165 620 182 611T216 590Q233 579 247 569T276 559Q318 559 322 620H333Q336 595 330 575T313 540T287 517T256 509Q236 509 219 519T185 540Q169 551 154 560T124 570Q83 570 75 508H64Z"  />
<glyph unicode="&#xE4;" horiz-adv-x="396" d="M45 277Q42 286 42 291Q42 304 56 324T91 362T139 394T190 407Q213 407 243 395T295 354Q301 346 304 339T308 323T310 300T310 268V134Q310 104 310 85T313 55T321 40T336 36Q344 36 355 39T385 58L390 43Q349 10 327 -1T291 -12Q276 -12 267 -5T253 12T247 32T245 49Q219 28 202 16T171 -3T149 -10T129 -12Q85 -12 61 10T36 70Q36 93 45 109T71 136T108 154T154 168Q170 172 193 181T243 206V285Q243 306 241 320T226 349Q216 361 202 369T170 378Q145 378 127 362T108 329Q108 321 113 310L45 277ZM243 186Q229 178 216 172T184 158Q161 149 145 142T119 126T105 108T100 82Q100 55 118 39T159 23Q165 23 171 24T186 30T208 43T243 67V186ZM276 603Q294 603 307 590T320 559Q320 541 307 528T276 515Q258 515 245 528T232 559Q232 577 245 590T276 603ZM82 603Q100 603 113 590T126 559Q126 541 113 528T82 515Q64 515 51 528T38 559Q38 577 51 590T82 603Z"  />
<glyph unicode="&#xE5;" horiz-adv-x="396" d="M45 277Q42 286 42 291Q42 304 56 324T91 362T139 394T190 407Q213 407 243 395T295 354Q301 346 304 339T308 323T310 300T310 268V134Q310 104 310 85T313 55T321 40T336 36Q344 36 355 39T385 58L390 43Q349 10 327 -1T291 -12Q276 -12 267 -5T253 12T247 32T245 49Q219 28 202 16T171 -3T149 -10T129 -12Q85 -12 61 10T36 70Q36 93 45 109T71 136T108 154T154 168Q170 172 193 181T243 206V285Q243 306 241 320T226 349Q216 361 202 369T170 378Q145 378 127 362T108 329Q108 321 113 310L45 277ZM243 186Q229 178 216 172T184 158Q161 149 145 142T119 126T105 108T100 82Q100 55 118 39T159 23Q165 23 171 24T186 30T208 43T243 67V186ZM199 644Q237 644 263 618T290 553Q290 515 264 489T199 462Q161 462 135 488T108 553Q108 591 134 617T199 644ZM199 620Q171 620 152 601T132 553Q132 525 151 506T199 486Q227 486 246 505T266 553Q266 581 247 600T199 620Z"  />
<glyph unicode="&#xE6;" horiz-adv-x="625" d="M316 254V230Q316 204 319 175T329 129Q342 89 376 64T453 39Q488 39 514 53T572 100L584 88Q542 39 500 14T416 -12Q328 -12 276 74Q241 32 201 10T125 -12Q87 -12 62 11T36 69Q36 93 45 108T70 134T111 152T167 168Q187 173 206 180T251 205V277Q251 292 251 302T248 320T243 334T233 347Q209 376 177 376Q150 376 131 361T112 323Q112 320 112 318T114 311L115 307L49 277Q46 282 46 285T45 291Q45 309 59 327T107 371Q156 407 194 407Q226 407 257 390T304 347Q331 377 364 392T430 407Q481 407 508 392T551 355T574 311T595 277V254H316ZM511 280Q503 327 476 357T418 388Q394 388 375 375T343 344Q333 330 328 316T319 280H511ZM251 185Q234 173 213 165T174 151Q141 140 122 127T102 83Q102 56 118 40T160 23Q180 23 204 35T251 71V185Z"  />
<glyph unicode="&#xE7;" horiz-adv-x="427" d="M391 92Q360 43 319 17T220 -12L198 -49Q214 -46 228 -51T252 -67T269 -93T275 -123Q275 -159 250 -184T190 -209Q179 -209 169 -207T147 -201L154 -187Q167 -191 180 -191Q202 -191 217 -176T233 -140Q233 -123 225 -114T201 -104Q179 -104 137 -124L205 -11Q162 -9 132 10T83 58T55 119T46 181Q46 228 64 269T113 341T186 389T276 407Q324 407 356 391T388 350Q388 337 380 329T359 320Q341 320 328 329T303 350T277 371T242 381Q216 381 193 367T152 328T124 272T113 203Q113 165 123 134T153 79T198 42T254 29Q290 29 319 46T376 101L391 92Z"  />
<glyph unicode="&#xE8;" horiz-adv-x="438" d="M114 254Q112 243 111 233T110 212Q110 173 122 141T156 86T204 51T262 38Q300 38 330 53T389 103L400 91Q384 71 365 53T323 20T275 -3T222 -12Q185 -12 154 3T99 47T62 112T48 193Q48 233 61 271T98 340T159 388T241 407Q292 407 319 392T362 355T385 311T406 277V254H114ZM322 280Q314 329 287 358T223 388Q211 388 196 384T167 369T139 336T117 280H322ZM191 559Q155 583 139 599T123 630Q123 643 131 651T154 659Q169 659 186 647T218 615L310 488H297L191 559Z"  />
<glyph unicode="&#xE9;" horiz-adv-x="438" d="M114 254Q112 243 111 233T110 212Q110 173 122 141T156 86T204 51T262 38Q300 38 330 53T389 103L400 91Q384 71 365 53T323 20T275 -3T222 -12Q185 -12 154 3T99 47T62 112T48 193Q48 233 61 271T98 340T159 388T241 407Q292 407 319 392T362 355T385 311T406 277V254H114ZM322 280Q314 329 287 358T223 388Q211 388 196 384T167 369T139 336T117 280H322ZM123 488L215 615Q230 635 247 647T279 659Q293 659 301 651T310 630Q310 616 294 600T242 559L136 488H123Z"  />
<glyph unicode="&#xEA;" horiz-adv-x="438" d="M114 254Q112 243 111 233T110 212Q110 173 122 141T156 86T204 51T262 38Q300 38 330 53T389 103L400 91Q384 71 365 53T323 20T275 -3T222 -12Q185 -12 154 3T99 47T62 112T48 193Q48 233 61 271T98 340T159 388T241 407Q292 407 319 392T362 355T385 311T406 277V254H114ZM322 280Q314 329 287 358T223 388Q211 388 196 384T167 369T139 336T117 280H322ZM99 486V503L207 683H235L341 503V486L217 611L99 486Z"  />
<glyph unicode="&#xEB;" horiz-adv-x="438" d="M114 254Q112 243 111 233T110 212Q110 173 122 141T156 86T204 51T262 38Q300 38 330 53T389 103L400 91Q384 71 365 53T323 20T275 -3T222 -12Q185 -12 154 3T99 47T62 112T48 193Q48 233 61 271T98 340T159 388T241 407Q292 407 319 392T362 355T385 311T406 277V254H114ZM322 280Q314 329 287 358T223 388Q211 388 196 384T167 369T139 336T117 280H322ZM317 603Q335 603 348 590T361 559Q361 541 348 528T317 515Q299 515 286 528T273 559Q273 577 286 590T317 603ZM123 603Q141 603 154 590T167 559Q167 541 154 528T123 515Q105 515 92 528T79 559Q79 577 92 590T123 603Z"  />
<glyph unicode="&#xEC;" horiz-adv-x="260" d="M168 76Q168 50 184 35T240 19V0H18V19Q64 19 82 35T101 92V293Q101 322 95 330T70 342L23 351V367L153 412H168V76ZM104 559Q68 583 52 599T36 630Q36 643 44 651T67 659Q82 659 99 647T131 615L223 488H210L104 559Z"  />
<glyph unicode="&#xED;" horiz-adv-x="260" d="M168 76Q168 50 184 35T240 19V0H18V19Q64 19 82 35T101 92V293Q101 322 95 330T70 342L23 351V367L153 412H168V76ZM36 488L128 615Q143 635 160 647T192 659Q206 659 214 651T223 630Q223 616 207 600T155 559L49 488H36Z"  />
<glyph unicode="&#xEE;" horiz-adv-x="260" d="M168 76Q168 50 184 35T240 19V0H18V19Q64 19 82 35T101 92V293Q101 322 95 330T70 342L23 351V367L153 412H168V76ZM12 486V503L120 683H148L254 503V486L130 611L12 486Z"  />
<glyph unicode="&#xEF;" horiz-adv-x="260" d="M168 76Q168 50 184 35T240 19V0H18V19Q64 19 82 35T101 92V293Q101 322 95 330T70 342L23 351V367L153 412H168V76ZM230 603Q248 603 261 590T274 559Q274 541 261 528T230 515Q212 515 199 528T186 559Q186 577 199 590T230 603ZM36 603Q54 603 67 590T80 559Q80 541 67 528T36 515Q18 515 5 528T-8 559Q-8 577 5 590T36 603Z"  />
<glyph unicode="&#xF0;" horiz-adv-x="521" d="M120 229Q120 184 132 144T165 75T216 29T279 12Q303 12 326 23T367 54T397 104T409 172Q409 215 397 253T363 320T313 366T251 383Q225 383 201 371T159 338T131 289T120 229ZM321 559Q364 523 393 479T441 390T468 304T476 235Q476 158 453 110T396 35T326 -2T264 -12Q217 -12 177 4T108 47T62 113T45 195Q45 247 64 286T114 353T183 393T261 407Q281 407 307 402T367 371L369 373Q354 416 329 457T270 533L142 467L133 484L256 547Q235 567 210 584T158 615L171 637Q249 616 304 572L429 637L437 619L321 559Z"  />
<glyph unicode="&#xF1;" horiz-adv-x="521" d="M160 87Q160 66 163 53T173 33T194 22T227 19V0H26V19Q59 19 76 36T93 82V292Q93 320 88 328T63 341L29 348V364L144 406H160V328Q211 360 253 383T332 407Q383 407 411 370T439 257Q439 207 438 176T436 123T433 88T431 59Q430 39 443 29T487 19H509V0H294V19Q316 20 329 25T351 38Q365 52 368 107T372 263Q372 293 366 313T348 345T322 363T293 368Q269 368 234 350T160 304V87ZM126 508Q126 564 147 592T207 620Q227 620 244 611T278 590Q295 579 309 569T338 559Q380 559 384 620H395Q398 595 392 575T375 540T349 517T318 509Q298 509 281 519T247 540Q231 551 216 560T186 570Q145 570 137 508H126Z"  />
<glyph unicode="&#xF2;" horiz-adv-x="521" d="M45 195Q45 247 64 286T114 353T183 393T261 407Q307 407 346 391T414 347T459 280T476 197Q476 153 460 115T415 48T348 4T264 -12Q217 -12 177 4T108 47T62 113T45 195ZM120 229Q120 184 132 144T165 75T214 29T275 12Q297 12 319 23T360 54T389 104T401 172Q401 215 389 253T355 320T306 366T247 383Q222 383 199 371T159 338T131 289T120 229ZM232 559Q196 583 180 599T164 630Q164 643 172 651T195 659Q210 659 227 647T259 615L351 488H338L232 559Z"  />
<glyph unicode="&#xF3;" horiz-adv-x="521" d="M45 195Q45 247 64 286T114 353T183 393T261 407Q307 407 346 391T414 347T459 280T476 197Q476 153 460 115T415 48T348 4T264 -12Q217 -12 177 4T108 47T62 113T45 195ZM120 229Q120 184 132 144T165 75T214 29T275 12Q297 12 319 23T360 54T389 104T401 172Q401 215 389 253T355 320T306 366T247 383Q222 383 199 371T159 338T131 289T120 229ZM164 488L256 615Q271 635 288 647T320 659Q334 659 342 651T351 630Q351 616 335 600T283 559L177 488H164Z"  />
<glyph unicode="&#xF4;" horiz-adv-x="521" d="M45 195Q45 247 64 286T114 353T183 393T261 407Q307 407 346 391T414 347T459 280T476 197Q476 153 460 115T415 48T348 4T264 -12Q217 -12 177 4T108 47T62 113T45 195ZM120 229Q120 184 132 144T165 75T214 29T275 12Q297 12 319 23T360 54T389 104T401 172Q401 215 389 253T355 320T306 366T247 383Q222 383 199 371T159 338T131 289T120 229ZM140 486V503L248 683H276L382 503V486L258 611L140 486Z"  />
<glyph unicode="&#xF5;" horiz-adv-x="521" d="M45 195Q45 247 64 286T114 353T183 393T261 407Q307 407 346 391T414 347T459 280T476 197Q476 153 460 115T415 48T348 4T264 -12Q217 -12 177 4T108 47T62 113T45 195ZM120 229Q120 184 132 144T165 75T214 29T275 12Q297 12 319 23T360 54T389 104T401 172Q401 215 389 253T355 320T306 366T247 383Q222 383 199 371T159 338T131 289T120 229ZM126 508Q126 564 147 592T207 620Q227 620 244 611T278 590Q295 579 309 569T338 559Q380 559 384 620H395Q398 595 392 575T375 540T349 517T318 509Q298 509 281 519T247 540Q231 551 216 560T186 570Q145 570 137 508H126Z"  />
<glyph unicode="&#xF6;" horiz-adv-x="521" d="M45 195Q45 247 64 286T114 353T183 393T261 407Q307 407 346 391T414 347T459 280T476 197Q476 153 460 115T415 48T348 4T264 -12Q217 -12 177 4T108 47T62 113T45 195ZM120 229Q120 184 132 144T165 75T214 29T275 12Q297 12 319 23T360 54T389 104T401 172Q401 215 389 253T355 320T306 366T247 383Q222 383 199 371T159 338T131 289T120 229ZM358 603Q376 603 389 590T402 559Q402 541 389 528T358 515Q340 515 327 528T314 559Q314 577 327 590T358 603ZM164 603Q182 603 195 590T208 559Q208 541 195 528T164 515Q146 515 133 528T120 559Q120 577 133 590T164 603Z"  />
<glyph unicode="&#xF7;" horiz-adv-x="667" d="M596 342V298H71V342H596ZM334 557Q347 557 356 547T366 524Q366 511 357 502T334 492Q321 492 311 501T301 524Q301 537 311 547T334 557ZM334 148Q347 148 356 139T366 116Q366 103 357 93T334 83Q321 83 311 93T301 116Q301 129 311 138T334 148Z"  />
<glyph unicode="&#xF8;" horiz-adv-x="521" d="M451 428L465 416L408 351Q418 342 430 329T452 296T469 253T476 197Q476 147 458 108T409 43T340 2T263 -12Q236 -12 200 -4T128 31L60 -47L46 -34L114 43Q45 103 45 196Q45 245 63 284T112 351T181 392T260 407Q306 407 338 394T394 364L451 428ZM356 320Q336 348 309 365T247 383Q220 383 197 370T157 336T130 286T120 226Q120 194 128 158T155 90L356 320ZM166 74Q172 65 182 55T206 35T237 19T274 12Q287 12 308 19T350 45T386 94T401 172Q401 212 392 243T366 303L166 74Z"  />
<glyph unicode="&#xF9;" horiz-adv-x="521" d="M497 29L363 -12V68Q252 -12 193 -12Q174 -12 155 -6T121 13T97 45T87 90V312Q87 330 82 339T60 353L25 363V378L154 406V126Q154 103 161 86T182 58T211 42T244 36Q270 36 301 50T363 91V306Q363 321 362 330T357 345T346 354T326 359L276 368V382L430 406V69Q430 48 439 43T476 43L497 47V29ZM232 559Q196 583 180 599T164 630Q164 643 172 651T195 659Q210 659 227 647T259 615L351 488H338L232 559Z"  />
<glyph unicode="&#xFA;" horiz-adv-x="521" d="M497 29L363 -12V68Q252 -12 193 -12Q174 -12 155 -6T121 13T97 45T87 90V312Q87 330 82 339T60 353L25 363V378L154 406V126Q154 103 161 86T182 58T211 42T244 36Q270 36 301 50T363 91V306Q363 321 362 330T357 345T346 354T326 359L276 368V382L430 406V69Q430 48 439 43T476 43L497 47V29ZM164 488L256 615Q271 635 288 647T320 659Q334 659 342 651T351 630Q351 616 335 600T283 559L177 488H164Z"  />
<glyph unicode="&#xFB;" horiz-adv-x="521" d="M497 29L363 -12V68Q252 -12 193 -12Q174 -12 155 -6T121 13T97 45T87 90V312Q87 330 82 339T60 353L25 363V378L154 406V126Q154 103 161 86T182 58T211 42T244 36Q270 36 301 50T363 91V306Q363 321 362 330T357 345T346 354T326 359L276 368V382L430 406V69Q430 48 439 43T476 43L497 47V29ZM140 486V503L248 683H276L382 503V486L258 611L140 486Z"  />
<glyph unicode="&#xFC;" horiz-adv-x="521" d="M497 29L363 -12V68Q252 -12 193 -12Q174 -12 155 -6T121 13T97 45T87 90V312Q87 330 82 339T60 353L25 363V378L154 406V126Q154 103 161 86T182 58T211 42T244 36Q270 36 301 50T363 91V306Q363 321 362 330T357 345T346 354T326 359L276 368V382L430 406V69Q430 48 439 43T476 43L497 47V29ZM358 603Q376 603 389 590T402 559Q402 541 389 528T358 515Q340 515 327 528T314 559Q314 577 327 590T358 603ZM164 603Q182 603 195 590T208 559Q208 541 195 528T164 515Q146 515 133 528T120 559Q120 577 133 590T164 603Z"  />
<glyph unicode="&#xFD;" horiz-adv-x="469" d="M346 285Q357 313 359 331T356 359T335 373T298 378V396H464V378Q433 374 414 354T381 298L211 -126Q188 -182 169 -207T123 -233Q105 -233 94 -223T82 -198Q82 -183 91 -176T114 -164T141 -156T165 -142Q173 -134 183 -117T199 -85L229 -10L74 319Q60 350 44 363T-5 378V396H196V378Q150 377 142 363T148 317L261 73L346 285ZM138 488L230 615Q245 635 262 647T294 659Q308 659 316 651T325 630Q325 616 309 600T257 559L151 488H138Z"  />
<glyph unicode="&#xFE;" horiz-adv-x="500" d="M150 331Q204 371 239 387T305 404Q334 404 361 389T408 348T441 289T453 218Q453 173 436 132T390 60T323 11T241 -7Q221 -7 200 -3T150 13V-149Q150 -187 167 -200T217 -214H242V-233H6V-214H16Q54 -214 68 -199T83 -140V569Q83 589 78 598T51 609L7 614V631L135 672H150V331ZM150 80Q177 54 208 39T268 24Q293 24 315 36T352 68T377 117T386 179Q386 216 376 248T349 304T307 341T255 355Q232 355 205 342T150 306V80Z"  />
<glyph unicode="&#xFF;" horiz-adv-x="469" d="M346 285Q357 313 359 331T356 359T335 373T298 378V396H464V378Q433 374 414 354T381 298L211 -126Q188 -182 169 -207T123 -233Q105 -233 94 -223T82 -198Q82 -183 91 -176T114 -164T141 -156T165 -142Q173 -134 183 -117T199 -85L229 -10L74 319Q60 350 44 363T-5 378V396H196V378Q150 377 142 363T148 317L261 73L346 285ZM332 603Q350 603 363 590T376 559Q376 541 363 528T332 515Q314 515 301 528T288 559Q288 577 301 590T332 603ZM138 603Q156 603 169 590T182 559Q182 541 169 528T138 515Q120 515 107 528T94 559Q94 577 107 590T138 603Z"  />
<glyph unicode="&#x131;" horiz-adv-x="260" d="M168 76Q168 50 184 35T240 19V0H18V19Q64 19 82 35T101 92V293Q101 322 95 330T70 342L23 351V367L153 412H168V76Z"  />
<glyph unicode="&#x152;" horiz-adv-x="990" d="M858 225H839Q836 252 831 267T818 291T798 301T771 304H609V36H809Q835 36 853 41T884 60T906 95T925 149H943L927 0H528Q513 0 489 -1T440 -3Q415 -5 395 -6T366 -7Q311 -7 256 14T157 76T85 175T57 307Q57 353 74 409T130 514T235 596T397 629Q417 629 440 628T490 625Q516 624 543 623T598 622H896L904 483H886Q881 517 874 537T857 569T836 583T812 586H609V340H781Q808 340 821 355T839 415H858V225ZM526 494Q526 550 488 577T384 604Q321 604 276 582T201 522T158 433T144 323Q144 257 163 201T216 105T295 41T393 18Q410 18 433 22T476 42T511 84T526 156V494Z"  />
<glyph unicode="&#x153;" horiz-adv-x="740" d="M438 254Q435 204 445 163T475 93T519 47T573 31Q601 31 628 50T691 102L701 91Q660 46 618 17T529 -12Q459 -12 413 61Q359 -12 261 -12Q215 -12 176 4T108 48T63 115T46 199Q46 242 63 280T109 346T176 391T259 407Q304 407 341 388T402 333Q434 372 468 389T548 407Q595 407 621 393T663 357T687 314T709 277V254H438ZM617 280Q617 334 593 361T533 388Q519 388 509 384T490 373T476 361T467 350Q456 335 450 320T440 280H617ZM377 173Q377 219 367 257T339 324T296 367T241 383Q223 383 202 373T163 342T133 292T121 223Q121 176 134 137T170 70T218 27T270 12Q321 12 349 54T377 173Z"  />
<glyph unicode="&#x160;" horiz-adv-x="490" d="M63 152Q79 85 126 48T232 11Q257 11 282 18T326 40T358 77T370 129Q370 165 346 193T287 248T210 299T133 352T73 414T49 492Q49 523 62 549T100 595T156 626T227 637Q258 637 278 633T313 625T339 616T363 612Q373 612 381 622H397L414 495H397Q376 549 332 581T236 613Q186 613 155 587T124 519Q124 483 148 456T207 403T284 353T361 300T421 236T445 155Q445 118 430 87T387 33T323 -3T241 -16Q220 -16 198 -12T157 -3T122 7T102 11Q89 11 82 0H65L44 152H63ZM366 896V879L258 699H230L124 879V896L248 771L366 896Z"  />
<glyph unicode="&#x161;" horiz-adv-x="302" d="M48 101Q57 56 83 32T143 7Q173 7 193 26T214 73Q214 89 208 101T182 134Q155 161 129 177T81 210T46 245T32 295Q32 345 67 376T160 407Q200 407 240 391L242 300H225Q220 338 198 360T145 383Q120 383 102 368T84 327Q84 305 98 289T132 257T177 228T221 195T256 155T270 102Q270 78 261 57T235 21T195 -3T146 -12Q132 -12 121 -10T102 -5Q94 -3 88 -1T75 1Q65 1 58 -11H43L32 101H48ZM274 683V666L166 486H138L32 666V683L156 558L274 683Z"  />
<glyph unicode="&#x178;" horiz-adv-x="708" d="M512 531Q536 573 523 588T461 603V622H687V603Q636 599 610 579T562 524L396 243V93Q396 53 413 36T476 19H489V0H214V19H233Q280 19 296 36T313 91V232L135 510Q117 539 102 557T72 585T40 598T-2 603V622H264V603Q235 603 219 600T197 588T196 568T211 538L371 291L512 531ZM452 816Q470 816 483 803T496 772Q496 754 483 741T452 728Q434 728 421 741T408 772Q408 790 421 803T452 816ZM258 816Q276 816 289 803T302 772Q302 754 289 741T258 728Q240 728 227 741T214 772Q214 790 227 803T258 816Z"  />
<glyph unicode="&#x17D;" horiz-adv-x="677" d="M40 23L489 586H192Q168 586 152 582T125 566T109 534T100 481H82L87 622H602V599L150 36H504Q532 36 549 43T577 68T595 113T611 181H629L617 0H40V23ZM459 896V879L351 699H323L217 879V896L341 771L459 896Z"  />
<glyph unicode="&#x17E;" horiz-adv-x="406" d="M31 19L284 360H147H115Q105 360 99 355T87 339T76 309T62 264H43L74 423H91Q91 406 100 401T138 396H376V378L124 36H307Q333 36 347 54T376 109H394L353 0H31V19ZM324 683V666L216 486H188L82 666V683L206 558L324 683Z"  />
<glyph unicode="&#x192;" horiz-adv-x="500" d="M132 363L135 382Q153 384 171 387T208 395Q219 457 243 517T309 619Q335 645 366 659T427 673Q456 673 477 659T498 625Q498 613 490 605T470 596Q458 596 447 602T424 616T403 630T381 637Q352 637 330 607T296 527L269 396H355L345 363H263L212 71Q197 -13 170 -71T109 -165T38 -217T-35 -233Q-67 -233 -89 -220T-112 -187Q-112 -175 -102 -166T-79 -157Q-65 -157 -54 -164T-32 -179T-10 -194T16 -201Q48 -201 77 -172Q96 -153 109 -116T130 -40T143 31T150 73L201 363H132Z"  />
<glyph unicode="&#x237;" horiz-adv-x="250" d="M168 -18Q168 -69 155 -109T120 -176T67 -218T2 -233Q-43 -233 -74 -218T-105 -181Q-105 -162 -96 -149T-75 -135Q-64 -135 -52 -144T-27 -165T2 -185T34 -195Q64 -195 82 -171T101 -86V302Q101 325 95 332T68 343L23 351V367L154 412H168V-18Z"  />
<glyph unicode="&#x2C6;" horiz-adv-x="333" d="M46 486V503L154 683H182L288 503V486L164 611L46 486Z"  />
<glyph unicode="&#x2DC;" horiz-adv-x="333" d="M32 508Q32 564 53 592T113 620Q133 620 150 611T184 590Q201 579 215 569T244 559Q286 559 290 620H301Q304 595 298 575T281 540T255 517T224 509Q204 509 187 519T153 540Q137 551 122 560T92 570Q51 570 43 508H32Z"  />
<glyph unicode="&#x2013;" horiz-adv-x="500" d="M506 271V227H-6V271H506Z"  />
<glyph unicode="&#x2014;" horiz-adv-x="1000" d="M1006 271V227H-6V271H1006Z"  />
<glyph unicode="&#x2018;" horiz-adv-x="260" d="M186 642Q109 597 109 542Q109 533 112 527T123 521Q130 521 134 522T147 524Q167 524 179 512T192 479Q192 459 177 445T138 430Q108 430 88 453T68 513Q68 560 98 600T179 660L186 642Z"  />
<glyph unicode="&#x2019;" horiz-adv-x="260" d="M74 448Q151 493 151 548Q151 557 148 563T137 569Q130 569 126 568T113 566Q93 566 81 578T68 611Q68 631 83 645T122 660Q152 660 172 637T192 577Q192 530 162 490T81 430L74 448Z"  />
<glyph unicode="&#x201A;" horiz-adv-x="260" d="M74 -130Q151 -85 151 -30Q151 -21 148 -15T137 -9Q134 -9 131 -9T126 -10Q123 -11 121 -11T113 -12Q93 -12 81 0T68 33Q68 53 83 67T122 82Q152 82 172 59T192 -1Q192 -48 162 -88T81 -148L74 -130Z"  />
<glyph unicode="&#x201C;" horiz-adv-x="479" d="M405 642Q328 597 328 542Q328 533 331 527T342 521Q349 521 353 522T366 524Q386 524 398 512T411 479Q411 459 396 445T357 430Q327 430 307 453T287 513Q287 560 317 600T398 660L405 642ZM178 642Q101 597 101 542Q101 533 104 527T115 521Q122 521 126 522T139 524Q159 524 171 512T184 479Q184 459 169 445T130 430Q100 430 80 453T60 513Q60 560 90 600T171 660L178 642Z"  />
<glyph unicode="&#x201D;" horiz-adv-x="479" d="M301 448Q378 493 378 548Q378 557 375 563T364 569Q357 569 353 568T340 566Q320 566 308 578T295 611Q295 631 310 645T349 660Q379 660 399 637T419 577Q419 530 389 490T308 430L301 448ZM74 448Q151 493 151 548Q151 557 148 563T137 569Q130 569 126 568T113 566Q93 566 81 578T68 611Q68 631 83 645T122 660Q152 660 172 637T192 577Q192 530 162 490T81 430L74 448Z"  />
<glyph unicode="&#x201E;" horiz-adv-x="479" d="M301 -130Q378 -85 378 -30Q378 -21 375 -15T364 -9Q361 -9 358 -9T353 -10Q350 -11 348 -11T340 -12Q320 -12 308 0T295 33Q295 53 310 67T349 82Q379 82 399 59T419 -1Q419 -48 389 -88T308 -148L301 -130ZM74 -130Q151 -85 151 -30Q151 -21 148 -15T137 -9Q134 -9 131 -9T126 -10Q123 -11 121 -11T113 -12Q93 -12 81 0T68 33Q68 53 83 67T122 82Q152 82 172 59T192 -1Q192 -48 162 -88T81 -148L74 -130Z"  />
<glyph unicode="&#x2020;" horiz-adv-x="500" d="M46 347Q36 345 32 349T27 368V417Q27 438 41 436L234 408L206 631Q203 650 222 650H267Q287 650 291 647T294 632L267 408L455 435Q466 437 470 433T474 411V370Q474 356 471 351T460 347L267 373L299 -195Q300 -208 297 -211T286 -215H219Q208 -215 205 -211T202 -194L234 373L46 347Z"  />
<glyph unicode="&#x2021;" horiz-adv-x="521" d="M279 32L459 57Q473 59 478 55T484 37V-6Q484 -23 481 -27T466 -30L279 -4L304 -189Q307 -212 285 -212H237Q224 -212 220 -207T218 -188L243 -4L57 -30Q37 -33 37 -12V37Q37 51 43 55T60 57L243 32L224 219L243 406L60 381Q49 379 43 383T37 401V450Q37 471 57 468L243 442L218 626Q216 640 220 645T237 650H285Q307 650 304 627L279 442L466 468Q477 470 480 466T484 444V401Q484 387 479 383T459 381L279 406L298 219L279 32Z"  />
<glyph unicode="&#x2022;" horiz-adv-x="354" d="M178 434Q203 434 225 425T264 399T290 360T300 312Q300 286 291 264T265 225T226 199T178 189Q152 189 130 198T91 225T65 264T55 312Q55 337 64 359T91 398T130 424T178 434Z"  />
<glyph unicode="&#x2026;" horiz-adv-x="1000" d="M833 82Q854 82 869 70T884 35Q884 12 869 0T833 -12Q811 -12 797 1T782 35Q782 56 796 69T833 82ZM500 82Q521 82 536 70T551 35Q551 12 536 0T500 -12Q478 -12 464 1T449 35Q449 56 463 69T500 82ZM167 82Q188 82 203 70T218 35Q218 12 203 0T167 -12Q145 -12 131 1T116 35Q116 56 130 69T167 82Z"  />
<glyph unicode="&#x2030;" horiz-adv-x="1000" d="M16 468Q16 504 26 534T53 588T93 624T144 637Q171 637 194 624T235 588T263 535T273 468Q273 432 263 402T236 348T195 312T144 299Q117 299 94 312T53 348T26 401T16 468ZM72 468Q72 314 144 314Q217 314 217 468Q217 622 144 622Q72 622 72 468ZM726 162Q726 198 736 228T763 282T803 318T854 331Q881 331 904 318T945 282T973 229T983 162Q983 126 973 96T946 42T905 6T854 -7Q827 -7 804 6T763 42T736 95T726 162ZM782 162Q782 8 854 8Q927 8 927 162Q927 316 854 316Q782 316 782 162ZM420 162Q420 198 430 228T457 282T497 318T548 331Q575 331 598 318T639 282T667 229T677 162Q677 126 667 96T640 42T599 6T548 -7Q521 -7 498 6T457 42T430 95T420 162ZM476 162Q476 8 548 8Q621 8 621 162Q621 316 548 316Q476 316 476 162ZM83 -27L569 654H610L125 -27H83Z"  />
<glyph unicode="&#x2039;" horiz-adv-x="229" d="M199 35H181L34 219L181 403H199L104 219L199 35Z"  />
<glyph unicode="&#x203A;" horiz-adv-x="229" d="M30 403H48L195 219L48 35H30L125 219L30 403Z"  />
<glyph unicode="&#x20AC;" horiz-adv-x="500" d="M524 106Q495 65 469 41T418 5T372 -10T334 -14Q295 -14 255 1T180 49T121 135T91 264H35L40 290H89Q89 299 89 305T89 315T89 325T91 338H35L40 364H93Q100 420 120 469T172 556T246 615T340 637Q381 637 409 626T465 601Q476 597 481 597L494 603H504L510 461H491Q487 476 478 501T452 550T407 593T339 611Q271 611 223 550T165 364H470L465 338H163Q163 321 163 311T164 290H455L450 264H166Q171 212 187 168T227 93T283 44T352 26Q393 26 431 50T509 119L524 106Z"  />
<glyph unicode="&#x2122;" horiz-adv-x="979" d="M381 662L392 564H375Q369 602 349 617T281 633H246V349Q246 329 247 317T254 298T269 289T296 285V268H113V285Q129 287 139 289T154 299T161 317T163 349V633H124Q79 633 60 618T32 564H15L25 662H381ZM699 382L828 662H964V644Q946 644 936 642T920 632T913 612T911 577V349Q911 328 912 316T919 298T935 289T964 285V268H769V285Q788 285 799 287T817 297T826 316T828 349V589H826L678 268H662L513 585H511V349Q511 309 520 297T558 285H576V268H425V285Q443 285 454 287T471 296T479 315T481 349V577Q481 599 479 612T471 633T454 642T425 644V662H566L699 382Z"  />

</font>
</defs>
</svg>
